<?xml version="1.0" encoding="utf-8"?>
<!-- Generator: Adobe Illustrator 22.0.1, SVG Export Plug-In . SVG Version: 6.00 Build 0)  -->
<svg version="1.1" id="Layer_1" xmlns="http://www.w3.org/2000/svg" xmlns:xlink="http://www.w3.org/1999/xlink" x="0px" y="0px"
	 viewBox="0 0 19.2 18.6" style="enable-background:new 0 0 19.2 18.6;" xml:space="preserve">
<style type="text/css">
	.st0{fill:#010101;}
</style>
<title>Asset 32</title>
<g id="Layer_2_1_">
	<g id="Layer_1-2">
		<path class="st0" d="M16.3,2.1C14.1,0.3,11.1,0,8.3,0C5.8,0,3.7,0.3,2,2C1.9,2,1.8,2,1.7,2.1C0,3.9-0.1,7.3,0,9.6
			c0.1,2.5,1.2,4.8,3,6.5c3.3,3.2,9.9,3.3,13.3,0.2c2.1-2,2.7-4.6,2.9-7.4C19.4,6.3,18.4,3.7,16.3,2.1z M18.5,9.3
			c-0.2,2.6-0.9,5.1-3,6.8c-3.2,2.6-8.8,2.4-11.9-0.2c-1.7-1.5-2.8-3.6-3-5.9C0.4,8.2,0.5,5.1,1.7,3.2c0.1,0,0.2,0,0.2-0.1
			C3.4,1,5.4,0.7,7.8,0.6c2.6-0.2,5.1,0.3,7.4,1.5C17.9,3.7,18.8,6.4,18.5,9.3z"/>
		<path class="st0" d="M7.3,7.3c0-0.1,0-0.1,0-0.2l0,0c0-0.1-0.1-0.2-0.2-0.3L7,6.8C6.9,6.6,6.8,6.5,6.7,6.4c-0.2-0.1-0.5,0-0.6,0.2
			C5.9,6.9,5.9,7.2,6,7.4C6,7.7,6.2,7.9,6.5,8c0.4,0.1,0.7-0.1,0.8-0.5C7.3,7.5,7.3,7.4,7.3,7.3z"/>
		<path class="st0" d="M12.2,6.4c-0.2,0-0.4,0.2-0.5,0.4c-0.1,0.2-0.1,0.4-0.1,0.6l0,0l0,0c0,0,0,0,0,0.1c0,0.1,0.1,0.2,0.2,0.2
			c0.1,0.1,0.2,0.1,0.3,0.2c0.3,0,0.6-0.2,0.7-0.4c0.1-0.4-0.1-0.8-0.4-0.9C12.3,6.4,12.3,6.4,12.2,6.4z"/>
		<path class="st0" d="M12.1,12c0,0-0.5,0.5-0.6,0.7c-0.7,0.6-1.6,0.7-2.5,0.4c-0.7-0.2-1.4-0.5-2-0.8c0.2-0.3-0.4-0.6-0.5-0.3
			c-0.4,1,2.1,1.6,2.7,1.7c0.9,0.2,1.8,0,2.5-0.6c0.3-0.3,1-0.9,0.8-1.3S11.9,11.7,12.1,12z"/>
	</g>
</g>
</svg>
