<?xml version="1.0" encoding="utf-8"?>
<!-- Generator: Adobe Illustrator 22.0.1, SVG Export Plug-In . SVG Version: 6.00 Build 0)  -->
<svg version="1.1" id="Layer_1" xmlns="http://www.w3.org/2000/svg" xmlns:xlink="http://www.w3.org/1999/xlink" x="0px" y="0px"
	 viewBox="0 0 15.6 20.8" style="enable-background:new 0 0 15.6 20.8;" xml:space="preserve">
<style type="text/css">
	.st0{fill:#010101;}
</style>
<title>Asset 40</title>
<g id="Layer_2_1_">
	<g id="Layer_1-2">
		<path class="st0" d="M14.6,16.1c-1.9-0.5-3.5,0.5-4.6-1.7c0,0-0.1-0.1-0.1-0.1c1.3-1.1,2-2.6,2.2-4.2c0.7,0,1.3-0.6,1.3-1.3
			c0,0,0,0,0-0.1c0-0.4,0-0.7-0.3-1c-0.1-0.1-0.2-0.1-0.3-0.2c0.1-0.2,0.1-0.4,0-0.6c0.4-0.1,0.5-0.6,0.4-0.9
			c-0.1-0.3-0.1-0.7,0.1-1c0.2-0.3,0.2-0.6,0.1-0.9c0-0.3-0.2-0.4-0.4-0.6c-0.4-0.4-0.4-0.8-0.6-1.3c-0.3-0.5-0.8-0.7-1.3-0.7
			c-0.3-1.1-1.5-1-2.5-1.4C7.4-0.4,6.7,0.6,5.4,0.7C2.4,1.1,0.5,4.8,2,7.3C1.6,7.6,1.4,8.2,1.4,8.8c0,0.8,0.6,1.1,1.2,1.2
			C2.8,10.6,3,11.3,3.2,12c0.3,1,1,1.8,1.9,2.3c0,0,0,0.1,0,0.1c0.2,2.5-2.3,1.9-3.9,2.3c-0.8,0.2-1.5,0.9-1.1,1.8
			c0.6,1.2,2.1,1.6,3.3,1.8c2.1,0.4,4.2,0.6,6.3,0.4c1.9-0.1,5-0.8,5.7-2.8c0.3-0.7-0.1-1.5-0.8-1.8C14.7,16.1,14.7,16.1,14.6,16.1z
			 M10.5,15.9c0.1,0.1,0.3,0.2,0.4,0.3l0,0c-0.1,0.1-0.1,0.2-0.1,0.3c-0.3,0.6-1,1.9-1.4,1.7s-0.6-0.6-0.9-0.8
			C9.3,17.2,10,16.7,10.5,15.9C10.5,16,10.5,15.9,10.5,15.9z M10.2,15.6c0,0-0.1,0-0.1,0.1C9.6,16.5,8.8,17,7.9,17
			c-0.9-0.1-1.7-0.5-2.3-1.1l0,0l-0.1-0.1c0,0-0.1-0.1-0.1-0.1c0.2-0.4,0.2-0.8,0.2-1.2C6.2,14.9,6.8,15,7.4,15c0.7,0.1,1.4,0,2-0.3
			c0,0.1,0.2,0.2,0.3,0.2C9.8,15.1,10,15.4,10.2,15.6z M12.9,8.7c0,0.4-0.3,0.8-0.7,0.8c0.1-0.5,0.1-1,0.2-1.6c0.1,0,0.3,0,0.4,0.1
			C13,8.2,13,8.6,12.9,8.7z M1.9,8.9c0-0.2,0-0.5,0.1-0.7C2,8,2.2,7.8,2.4,7.7c0,0.6,0.1,1.1,0.2,1.7C2.3,9.3,2,9.2,1.9,8.9L1.9,8.9
			z M2.4,5.5c0,0.4-0.1,0.9-0.1,1.3C2,6.2,1.8,5.4,2,4.7c0.2-0.4,0.4-0.6,0.5-1.1c0.2-1.4,2-2.3,3.3-2.5c0.2,0,0.6,0,0.8-0.1
			c0.8-0.5,1-0.7,1.8-0.5s2.4,0.4,2.5,1.2C10.9,1.9,11,2,11.2,2c0,0,0,0,0,0c2.2,0.1,0.8,0.8,1.3,1.4c0.3,0.5,1.2,0.6,0.5,1.4
			c-0.3,0.4,0.1,1.5-0.3,1.7c0,0-0.1,0-0.1,0.1c0-0.6,0-1.2,0-1.6l0,0c0-0.1,0-0.2-0.1-0.3c-0.1-0.1,0-0.3-0.2-0.4
			c-0.4-0.3-1-0.5-1.5-0.5c-0.4,0-1.1-0.3-1.5-0.2s-1.6,1-1.6,0c0-0.1-0.1-0.3-0.3-0.2c0,0-0.1,0-0.1,0c-0.3,0.2-1.4,0.8-1.6,0
			c0-0.1-0.1-0.2-0.3-0.2c0,0,0,0-0.1,0c-1.1,0.4-2,1.1-2.6,2C2.5,5.2,2.4,5.3,2.4,5.5C2.4,5.4,2.4,5.4,2.4,5.5L2.4,5.5z M3.5,11.2
			C3,9.4,2.8,7.5,2.9,5.7c0.1,0,0.2-0.1,0.2-0.2c0.5-0.8,1.2-1.5,2.1-1.8c0.3,0.7,1.2,0.7,2,0.3c0.2,0.7,0.7,0.9,1.5,0.7
			c0.1,0,0.3-0.1,0.4-0.2C9.5,4,9.5,4.2,10.2,4.3c0.6,0.1,1.2,0.3,1.7,0.7c0,0,0,0,0,0.1c0,0.1,0,0.3,0.1,0.3c0,0.7,0,1.4,0,2.2
			c-0.1,0.1-0.2,0.2-0.1,0.4c0,0,0,0.1,0.1,0.1c-0.2,2.9-1,6.1-4.2,6.4C5.6,14.6,4,13.1,3.5,11.2L3.5,11.2z M5.2,16.2L5.2,16.2
			L5.2,16.2L5.2,16.2l0.1,0.1l0,0c0.6,0.6,1.4,1,2.2,1.1l-0.3,0.2c-0.4,0.3-0.9,1.1-1.5,0.2C5.3,17.4,5,17,4.7,16.5
			C4.9,16.4,5,16.3,5.2,16.2L5.2,16.2z M14.3,18.8c-0.5,0.4-1,0.7-1.6,0.9c-1.1,0.4-2.2,0.6-3.4,0.7c-1.8,0.1-3.6-0.1-5.3-0.4
			c-0.8-0.1-1.5-0.3-2.2-0.7c-0.4-0.2-0.7-0.5-1-0.8c-0.9-1.1,0.8-1.3,1.2-1.3c0.8,0,1.7-0.2,2.5-0.5c0.3,0.8,0.7,1.4,1.4,1.9
			C6.4,19,6.9,18.4,7.4,18c1-0.8,1.5,1.1,2.5,0.8c0.6-0.2,1.2-1.8,1.5-2.3c0,0,0,0,0-0.1c1.1,0.3,2.2-0.1,3.3,0.3
			S14.7,18.4,14.3,18.8L14.3,18.8z"/>
		<path class="st0" d="M5.4,6.5c-0.2,0-0.4,0-0.6,0.1C4.6,6.7,4.5,6.9,4.5,7.2c0,0.1,0.1,0.2,0.3,0.2c0.1,0,0.2,0,0.3,0
			c0.4,0,0.6-0.4,0.6-0.7c0,0,0,0,0,0C5.6,6.6,5.5,6.5,5.4,6.5z"/>
		<path class="st0" d="M9.3,7.3C9.3,7.3,9.3,7.3,9.3,7.3c0.1,0.1,0.2,0.1,0.3,0.1c0.1,0,0.3,0,0.4,0c0.2-0.1,0.3-0.4,0.3-0.7
			c-0.1-0.3-0.4-0.5-0.7-0.5c0,0,0,0-0.1,0C9.2,6.3,9.2,6.8,9.2,7.1C9.2,7.1,9.3,7.2,9.3,7.3z"/>
		<path class="st0" d="M9.4,11.9c0-0.1-0.1-0.3-0.3-0.3c-0.1,0-0.2,0.1-0.2,0.2c-0.2,1.1-2.2,0.6-2.8,0.1c-0.1-0.1-0.3-0.1-0.4,0
			c-0.1,0.1-0.1,0.3,0,0.4C6.7,13,9.1,13.4,9.4,11.9z"/>
		<path class="st0" d="M7.9,18.9c0.1,0,0.2-0.1,0.2-0.3v-0.1c0-0.1-0.1-0.3-0.3-0.2c0,0,0,0,0,0c-0.1,0-0.2,0.1-0.2,0.3v0.1
			C7.6,18.8,7.8,18.9,7.9,18.9z"/>
		<path class="st0" d="M7.9,19.5c-0.3,0-0.3,0.5,0,0.5S8.3,19.5,7.9,19.5z"/>
	</g>
</g>
</svg>
