<?xml version="1.0" encoding="utf-8"?>
<!-- Generator: Adobe Illustrator 22.0.1, SVG Export Plug-In . SVG Version: 6.00 Build 0)  -->
<svg version="1.1" id="Layer_1" xmlns="http://www.w3.org/2000/svg" xmlns:xlink="http://www.w3.org/1999/xlink" x="0px" y="0px"
	 viewBox="0 0 18.4 24.3" style="enable-background:new 0 0 18.4 24.3;" xml:space="preserve">
<style type="text/css">
	.st0{fill:#010101;}
</style>
<title>Asset 35</title>
<g id="Layer_2_1_">
	<g id="Layer_1-2">
		<path class="st0" d="M15.7,5.5L15.7,5.5c-0.5-1.7-0.6-3.3-2.2-4.4C12.2,0.3,10.7-0.1,9.2,0C7.6,0,6,0.5,4.7,1.4
			C3.1,2.5,2.6,4.4,2.2,6.1c0,0,0,0.1,0,0.2c-0.6,0.3-1.1,0.6-1.6,1c-1.6,1.4,0.2,3.3,1.9,3v0.2c0,0.8,0.6,1.1,1.3,1.2
			c0.1,0.7,0.3,1.5,0.6,2.2c0.4,1,1.1,1.8,2,2.4c0,0,0,0,0,0.1h0.1c0.1,1,0.2,2.1-0.8,2.8c-0.7,0.4-1.5,0.6-2.3,0.6
			c-0.8,0.1-2,0.7-1.7,1.7c0.4,1.2,1.7,1.8,2.9,2.1c0.8,0.2,1.6,0.3,2.4,0.4c1,0.2,2,0.3,3,0.4c1.8-0.1,3.5-0.5,5.1-1.2
			c1.1-0.4,1.9-1.3,2.3-2.4c0.3-1.2-0.7-1.7-1.8-1.9c-0.9,0-1.7-0.2-2.5-0.7c-0.7-0.7-1-1.6-1-2.5c0.9-1.1,1.5-2.4,1.7-3.8
			c0.7,0,1.3-0.6,1.3-1.3c0,0,0,0,0,0c1.3-0.3,4.4-1.8,3.2-3.6C17.6,6.1,16.7,5.6,15.7,5.5z M5.2,1.7C6.4,1,7.8,0.5,9.3,0.5
			c1.4-0.1,2.9,0.3,4.1,1.1c1.3,0.9,1.4,2.3,1.8,3.7l0,0c-1-0.3-2.1-0.4-3.1-0.5c0.2-0.8,0.3-1.6,0.4-2.4c0.1-0.4,0-0.8-0.3-1.2
			C11.3,0.6,9.5,1,8.5,1S5.7,1.4,4.9,2.3s0.8,2,0.8,2.9C5.3,5.3,4.9,5.4,4.5,5.5C3.9,5.6,3.3,5.8,2.8,6C3,4.3,3.8,2.8,5.2,1.7z
			 M11.9,3c-0.1,0.5-0.2,1-0.3,1.6c-0.1,0-0.1,0.1-0.1,0.2H9.8c-1.2,0-2.3,0.1-3.5,0.3C6.2,4.5,5.9,3.9,5.4,3.4
			C4.7,2.2,7.2,1.8,7.9,1.6c1.1-0.2,2.2-0.3,3.3-0.2C12.1,1.5,12,2.3,11.9,3z M3.1,10.6c0-0.2,0-0.5,0.1-0.7c0-0.2,0.2-0.4,0.4-0.5
			c0,0.6,0.1,1.2,0.2,1.7C3.4,11,3.1,10.9,3.1,10.6z M12.7,18.6c0.9,0.4,1.9,0.7,2.8,0.7c2.4,0.5,0.3,2.7-0.8,3.2
			c-1.6,0.7-3.2,1.1-4.9,1.2c-1.6,0-3.2-0.2-4.7-0.7c-0.6-0.1-1.2-0.3-1.8-0.6c-0.4-0.2-0.7-0.5-1-0.9c-0.5-0.7,0.2-1.1,0.7-1.3
			c1.1-0.4,2.2-0.2,3.2-1c0.1-0.1,0.2-0.2,0.3-0.3C8.3,19.8,11.3,20.4,12.7,18.6L12.7,18.6z M12.3,18.2c-1.2,1.6-4,0.9-5.6,0.3
			C7,17.9,7.1,17.2,7,16.4c0.6,0.2,1.1,0.3,1.7,0.4c0.7,0,1.3-0.1,1.9-0.3c0.1-0.1,0.2-0.1,0.3-0.2l0.1-0.1l0.2-0.1h0.1l0,0l0.1-0.1
			C11.6,16.9,11.9,17.7,12.3,18.2L12.3,18.2z M13.3,9.2c-0.1,0.1-0.2,0.2-0.1,0.4c0,0,0.1,0.1,0.1,0.1c-0.1,2.1-0.5,4.2-1.8,5.4
			c-0.1,0-0.1,0.1-0.1,0.1c-0.7,0.6-1.5,0.9-2.4,1c-2.2,0.2-3.8-1.4-4.4-3.4C4.2,11.3,4,9.7,4,8V7.9c0.2-0.5,1.3-0.7,1.7-0.9
			c0.9-0.3,1.9-0.4,2.9-0.4c1.4-0.1,3.6-0.2,4.7,0.9C13.4,8.1,13.4,8.7,13.3,9.2L13.3,9.2z M14.3,10.4c0,0.4-0.3,0.8-0.7,0.8
			c0.1-0.5,0.1-1.1,0.2-1.6c0.1,0,0.3,0,0.4,0.1C14.4,9.9,14.4,10.2,14.3,10.4L14.3,10.4z M14.8,9.9c0-0.2-0.1-0.4-0.2-0.5
			c-0.1-0.1-0.2-0.1-0.3-0.2c0-0.1-0.4-0.1-0.4-0.1c0-0.2,0-0.7,0-1.1c0.2,0,0.3-0.2,0.3-0.3c0,0,0-0.1,0-0.1C13,6,10.5,6.1,8.6,6.1
			c-1.1,0-2.2,0.2-3.3,0.5c-0.6,0.2-1.5,0.4-1.7,1c0,0,0,0.1,0,0.1c0,0-0.1,0.1-0.1,0.1c0,0.4,0,0.8,0,1c-0.1-0.1-0.3,0-0.3,0
			C3.1,8.9,3,9,3,9.1l0,0C2.8,9.2,2.8,9.4,2.7,9.6H2.6C1.6,10,0,9,0.7,8c0.7-0.7,1.5-1.2,2.4-1.5C5.5,5.7,8,5.3,10.5,5.3
			c2.1,0,5,0.1,6.8,1.5S16.1,9.5,14.8,9.9L14.8,9.9z"/>
		<path class="st0" d="M6.7,8.1C6.4,8,6.2,8.1,6,8.2C5.8,8.3,5.7,8.6,5.8,8.8C5.8,9,5.9,9.1,6,9.1c0,0,0,0,0,0c0.1,0,0.2,0,0.3,0
			c0.4,0,0.6-0.4,0.6-0.7c0,0,0,0,0-0.1C6.8,8.2,6.8,8.1,6.7,8.1z"/>
		<path class="st0" d="M10.9,7.8c-0.4,0.1-0.4,0.6-0.4,0.9c0,0.1,0,0.1,0.1,0.2l0.1,0.1C10.8,9,10.9,9,11,9.1c0.1,0,0.3,0,0.4-0.1
			c0.2-0.2,0.4-0.4,0.3-0.7C11.6,8,11.3,7.7,10.9,7.8C11,7.8,10.9,7.8,10.9,7.8z"/>
		<path class="st0" d="M10.3,13.5C10,14.6,8,14.2,7.4,13.6c-0.1-0.1-0.3,0-0.4,0.1C7,13.8,7,13.9,7,14c0.9,0.8,3.4,1.1,3.7-0.4
			c0-0.1-0.2-0.2-0.3-0.2C10.3,13.4,10.3,13.5,10.3,13.5z"/>
		<path class="st0" d="M7.7,3.2c0,0.2-0.2,0.2-0.3,0.2H7.1c0.1-0.3,0.1-0.6,0.2-0.9c0-0.3-0.5-0.3-0.5,0S6.3,3.8,7,3.8
			c0.3,0,0.5,0,0.8-0.1c0,0.1,0,0.2,0,0.3c0,0,0,0.1,0,0.1c0,0.1,0,0.1,0,0.1C7.7,4.6,8.1,4.8,8.3,4.5s-0.1-1-0.1-1.4
			C8,3,7.9,3,7.7,3.2C7.7,3.1,7.7,3.2,7.7,3.2z"/>
		<path class="st0" d="M10.9,3.7l-0.5,0.1c-0.1-0.6-0.1-1.2,0.1-1.8c0-0.1-0.1-0.3-0.3-0.3c-0.1,0-0.1,0-0.2,0.1
			C9.6,2,9.3,2.3,9,2.7C8.8,3,9.3,3.2,9.5,2.9c0.1-0.1,0.2-0.3,0.3-0.4c0,0.5,0,0.9,0,1.3L9.5,4c-0.3,0.1-0.3,0.6,0,0.5l0.4-0.1
			c0.1,0.1,0.3,0,0.4-0.1c0,0,0,0,0,0c0.2,0,0.4-0.1,0.6-0.1C11.3,4.2,11.2,3.7,10.9,3.7z"/>
	</g>
</g>
</svg>
