<?xml version="1.0" encoding="utf-8"?>
<!-- Generator: Adobe Illustrator 22.0.1, SVG Export Plug-In . SVG Version: 6.00 Build 0)  -->
<svg version="1.1" id="Layer_1" xmlns="http://www.w3.org/2000/svg" xmlns:xlink="http://www.w3.org/1999/xlink" x="0px" y="0px"
	 viewBox="0 0 17.2 21.5" style="enable-background:new 0 0 17.2 21.5;" xml:space="preserve">
<style type="text/css">
	.st0{fill:#010101;}
</style>
<title>Asset 41</title>
<g id="Layer_2_1_">
	<g id="Layer_1-2">
		<path class="st0" d="M17.1,18.1c-0.8-2.9-5.6-0.5-6.2-3.6l0,0c0.4-0.3,0.7-0.7,1-1.2c0.3-0.6,0.6-1.2,0.8-1.9
			c0.6-0.1,0.9-0.6,1.1-1.2c0.2-0.6,0.1-1.3-0.3-1.8c0.2-0.4,0.5-0.8,0.6-1.3c0.2-0.5,0.2-1.1,0.1-1.7c-0.1-0.9-0.5-1.8-1.1-2.4
			c-1-0.8-2.3-1.3-3.6-1.5c0-0.6-0.5-1.1-1.1-1.1c0.1-0.1,0-0.3-0.1-0.3c0,0,0,0,0,0C6.8,0,5.6-0.3,4.3,0.5C3,1.4,2.2,2.6,1.8,4.1
			C1.2,5.6,1,7.2,0.9,8.8c-0.1,2.1,0.2,3.9-0.9,5.8C0,14.8,0,14.9,0.1,15c0,0,0,0,0,0c2,0.7,3.7-0.3,4.8-1.8C5.3,14,6,14.6,6.7,15
			c0,0.4-0.1,0.8-0.3,1.2c-0.4,0.4-1,0.7-1.6,0.8c-0.8,0.1-1.6,0.3-2.4,0.6c-0.8,0.3-1.2,1.2-0.9,2c0.1,0.2,0.1,0.3,0.2,0.4
			c0.9,1,3,1,4.2,1.2c2.2,0.4,4.5,0.3,6.7,0C13.8,21,17.7,20,17.1,18.1z M13.4,10c0,0.4-0.2,0.7-0.5,0.9c0.1-0.6,0.2-1.3,0.3-1.9
			C13.4,9.3,13.4,9.7,13.4,10z M9,1.7c-0.3,0-0.6,0-0.9,0.1c-0.6,0-1.2,0-1.8,0.1C6.2,1.9,6.1,2,6.1,2L6,2.2l0,0
			c0-0.5,0.3-0.5,0.6-0.7c0.3-0.1,0.6-0.2,0.9-0.2C8,1.1,8.9,1.1,9,1.7z M0.6,14.6c1.2-2.4,0.6-5.2,1-7.9c0.2-1.6,0.8-3.2,1.7-4.6
			C3.8,1.5,4.4,1,5.1,0.6c0.8-0.2,1.6-0.2,2.3,0.1c-0.1,0-0.1,0-0.2,0c-0.6,0-1.1,0.3-1.6,0.6C5.5,1.6,5.3,2.1,5.5,2.4
			C4.4,3.1,3.1,3.8,2.9,5.2C2.5,6.4,2.7,7.7,3.4,8.8c-0.6,0.7-0.6,1.7,0,2.3c0.2,0.2,0.5,0.4,0.8,0.4c0.1,0.4,0.2,0.7,0.4,1.1
			C3.8,14,2.3,15.1,0.6,14.6z M3.7,9.2c0.1,0.6,0.2,1.2,0.4,1.8C3.4,10.8,3.2,9.6,3.7,9.2z M6.6,14.2c-0.6-0.4-1.1-1-1.4-1.6
			c0-0.1,0-0.1-0.1-0.2C5,12,4.8,11.6,4.7,11.3c0,0,0-0.1,0-0.1C4.3,9.5,4.1,7.9,4,6.3C4,6.1,3.8,6,3.7,6.1c-0.1,0-0.2,0.1-0.2,0.2
			c0,0.5,0.1,1.1,0.2,1.8C3.1,7,3.1,5.7,3.6,4.6c0.5-1,1.9-1.5,2.8-2.2l0,0c0.6,0,1.2-0.1,1.8-0.1c0.1,0,0.1,0,0.1,0
			c1.4,0,2.7,0.3,3.9,1c0.9,0.5,1.4,1.4,1.5,2.4c0.1,0.8-0.1,1.5-0.5,2.1c0-0.7,0.1-1.3,0.1-1.9c0-0.3-0.5-0.4-0.5-0.1
			c-0.1,1.9-0.3,3.7-0.6,5.5C11.7,13.8,9.1,16,6.6,14.2L6.6,14.2z M7.5,20.9c-1.6,0-3.2-0.3-4.8-0.8c-0.7-0.3-1.1-0.8-0.5-1.6
			c0.4-0.4,1-0.6,1.5-0.6c0.5-0.1,1-0.2,1.6-0.4c0.4-0.1,0.9-0.3,1.2-0.6c0.1,0.2,0.3,0.3,0.6,0.4c0.7,0.3,1.1,0.1,1.2,1
			c0.1,1,0.4,1.9,0.8,2.8C8.5,21,8,21,7.5,20.9L7.5,20.9z M9.7,21L9.7,21c0-0.1-0.1-0.2-0.1-0.2c-0.5-1-0.8-2.2-0.8-3.3
			c0-0.1-0.1-0.2-0.1-0.2c-0.2-0.1-1.5-0.4-1.6-0.6c0-0.1-0.1-0.1-0.2-0.1c0.2-0.4,0.4-0.8,0.4-1.3h0.1c1.1,0.3,2.2,0.2,3.2-0.4
			c0.1,0.4,0.4,0.8,0.7,1.1c0,0,0,0.1,0,0.1c0,0.4-1.4,0.9-1.7,1c-0.1,0-0.2,0.2-0.2,0.3c0,0,0,0,0,0.1c0.6,1.1,0.9,2.3,0.8,3.5H9.7
			z M15.9,19.3c-0.9,0.6-2,1.1-3.1,1.3c-0.7,0.2-1.4,0.3-2.2,0.3c0-1.2-0.2-2.4-0.8-3.5c0.6-0.3,1.6-0.6,1.7-1.2
			c1,0.4,2.1,0.6,3.1,0.7C16.1,17.2,17.4,18.2,15.9,19.3z"/>
		<path class="st0" d="M6.6,7.6c-0.2,0-0.4,0-0.6,0.2l0,0C5.9,7.8,5.7,8,5.8,8.1c0,0,0,0,0,0c0,0.3,0.3,0.5,0.6,0.5c0,0,0,0,0.1,0
			c0.3-0.1,0.5-0.4,0.4-0.8c0,0,0,0,0,0C6.8,7.7,6.7,7.6,6.6,7.6z"/>
		<path class="st0" d="M10.2,7.5c-0.2,0-0.4,0.1-0.5,0.3c0,0,0,0.1,0,0.1c0,0,0,0.1,0,0.1c0.1,0.3,0.4,0.6,0.7,0.5c0,0,0,0,0,0
			c0.3,0,0.5-0.3,0.5-0.6c0-0.1-0.1-0.2-0.1-0.3C10.6,7.5,10.4,7.5,10.2,7.5z"/>
		<path class="st0" d="M11.3,3.4c0.3,0.1,0.4,0.4,0.5,0.7c-0.1,0-0.2,0.2-0.2,0.3c0,0,0,0,0,0.1c0.3,0.4,0.4,0.8,0.2,1.3
			c0,0.1,0,0.3,0.2,0.3c0.1,0,0.2,0,0.3-0.1c0.2-0.5,0.2-1.1-0.1-1.5c0.1,0,0.1-0.1,0.1-0.2c0-0.5-0.3-1-0.8-1.3
			C11.2,2.8,11,3.3,11.3,3.4z"/>
		<path class="st0" d="M9.4,3c0.4,0.2,0.7,0.4,1,0.8c-0.1-0.1-0.3-0.2-0.5-0.2C9.6,3.5,9.5,4,9.9,4.1c0.6,0,0.7,1.4,0.5,1.8
			s0.4,0.6,0.5,0.2C11,5.6,11,5,10.9,4.4c0.1,0.1,0.2,0.1,0.4,0c0.1-0.1,0.1-0.2,0.1-0.3C11,3.4,10.4,2.9,9.7,2.5
			C9.4,2.4,9.1,2.9,9.4,3z"/>
		<path class="st0" d="M6.8,3.4c-0.2,0-0.3,0.1-0.4,0.3c0-0.1-0.2-0.2-0.3-0.2c0,0,0,0-0.1,0c-1,0.7-1.7,1.8-1.7,3
			c0,0.3,0.5,0.4,0.5,0.1c0.1-1,0.6-2,1.4-2.6L6.1,4.2c-0.2,0.5-0.4,1-0.4,1.6c0,0.3,0.5,0.3,0.5,0c0-0.3,0.1-0.7,0.2-1
			c0-0.1,0.3-0.9,0.4-0.9C7.2,3.9,7.2,3.4,6.8,3.4z"/>
		<path class="st0" d="M7.4,5.6c0.2-0.7,0.7-1.7,0.2-2.4C7.5,3,7,3.2,7.2,3.5s0,0.7,0,1S7,5.2,7,5.5S7.4,5.9,7.4,5.6z"/>
		<path class="st0" d="M8.3,3.2c0.7,0.1,0.5,2,0.3,2.4S9,6.1,9.1,5.8c0.3-0.7,0.5-3-0.7-3.2C8.1,2.6,8,3.1,8.3,3.2z"/>
		<path class="st0" d="M11.4,18.4L11.4,18.4c0-0.2-0.1-0.3-0.3-0.3c-0.1,0-0.3,0.1-0.3,0.3v0.1c0,0.1,0.1,0.3,0.3,0.3
			S11.4,18.6,11.4,18.4z"/>
		<path class="st0" d="M11.4,19.9c-0.1,0-0.2,0.1-0.2,0.3v0.1c0,0.1,0.1,0.2,0.3,0.2c0.1,0,0.2-0.1,0.2-0.3v-0.1
			C11.7,20,11.6,19.8,11.4,19.9C11.4,19.9,11.4,19.9,11.4,19.9z"/>
		<path class="st0" d="M9.9,11.6c0.1-0.3-0.4-0.4-0.5-0.1c-0.2,0.5-0.6,0.7-1.1,0.5c-0.1,0-0.2-0.1-0.3-0.1c0-0.1,0-0.3-0.2-0.3
			c0,0-0.1,0-0.1,0H7.6c-0.1,0-0.2,0.1-0.2,0.3c0,0,0,0.1,0,0.1c0.3,0.7,1.1,0.9,1.8,0.6C9.5,12.3,9.8,12,9.9,11.6z"/>
	</g>
</g>
</svg>
