<?xml version="1.0" encoding="utf-8"?>
<!-- Generator: Adobe Illustrator 22.0.1, SVG Export Plug-In . SVG Version: 6.00 Build 0)  -->
<svg version="1.1" id="Layer_1" xmlns="http://www.w3.org/2000/svg" xmlns:xlink="http://www.w3.org/1999/xlink" x="0px" y="0px"
	 viewBox="0 0 17 22.5" style="enable-background:new 0 0 17 22.5;" xml:space="preserve">
<style type="text/css">
	.st0{fill:#010101;}
</style>
<title>Asset 44</title>
<g id="Layer_2_1_">
	<g id="Layer_1-2">
		<path class="st0" d="M15.6,16.4c-1-0.6-1.8-1.3-2.5-2.2c-0.2-0.3-0.4-0.6-0.6-0.8c1.3-0.9,2.1-2.3,2.1-3.9l0,0
			c0.9,0,1.7-0.8,1.6-1.8c0-0.5-0.2-1-0.7-1.3l0.2-0.2l-0.1-0.1C15.9,5.8,16,5.4,15.9,5c0-0.6-0.3-1.2-0.8-1.6h0.2
			c0.1,0,0.2-0.1,0.2-0.3c0-1.6-2.2-2-3.5-1.6c-0.8-0.8-1.8-1.3-2.9-1.4C7.6-0.3,6.1,0.5,4.6,1C4.3,1.1,4.4,1.5,4.7,1.5
			c0.3,0,0.5,0,0.8,0.1C4.2,2,2.5,1.8,1.9,3.3c-0.1,0.2,0,0.4,0.3,0.4h0.1c-0.4,0.6-0.6,1.3-0.7,2l0,0c0,0,0,0,0,0.1
			c0,0,0,0.1,0,0.1c0,0-0.1,0-0.1,0L1.7,6c0.1,0.1,0.1,0.1,0.1,0.2c-0.3,0.5-0.4,1-0.3,1.5c0,0.9,0.7,1.6,1.6,1.6c0,0,0.1,0,0.1,0
			l0,0l0.1,0.2c0.4,1.1,1,2,1.8,2.8c0.4,0.4,0.8,0.7,1.2,0.9c-0.2,0.7-1.5,1-2,1.2c-0.7,0.3-1.5,0.6-2.2,1c-1.3,0.6-2.2,2-2.1,3.5
			c0.1,0.9,1,1.6,1.9,2c0.1,0.1,0.2,0.2,0.3,0.1c0.3,0.1,0.5,0.2,0.8,0.3c2,0.6,4,0.9,6,1c3,0.2,6.4-0.6,7.9-3.5
			C17.5,17.8,16.6,17,15.6,16.4z M14.8,9.1L14.8,9.1c0-0.2,0-0.4,0-0.7l0,0l0,0C14.9,8.2,15,7.9,15,7.6c0-0.1-0.1-0.2-0.2-0.2
			c0,0,0,0,0-0.1c0-0.1,0-0.2,0-0.3h-0.1c0-0.1,0-0.1,0-0.2l0,0C16.1,6.6,16.1,8.9,14.8,9.1z M12.1,2.1L12.1,2.1
			c1-0.3,2.7-0.2,2.9,0.8h-1.1c-0.1,0-0.2,0.2-0.2,0.3c0,0.1,0.1,0.2,0.2,0.2c0.8,0.1,1.4,0.7,1.5,1.5c0,0.2,0.1,1.3-0.4,1.3
			c-0.1,0-0.1,0-0.2,0.1l-0.3,0.1c-0.2-0.6-0.4-1.2-1-1.3c-0.1,0-0.1,0-0.2,0c0-0.1-0.1-0.1-0.1-0.2c-0.1-0.2-0.3-0.1-0.4,0
			c-0.7-0.1-1.2-1.2-1.1-1.8c0,0,0-0.1,0-0.1C11.9,2.8,12,2.4,12.1,2.1z M2.9,8.8C2.4,8.7,2,8.4,2,7.9C1.9,7.4,1.9,6.4,2.6,6.5h0.1
			C2.8,6.5,2.9,6.6,3,6.7v0.5h0c0,0-0.1,0-0.1,0l0,0c-0.1,0-0.1,0.1-0.2,0.1c-0.2,0.3-0.2,0.7,0.1,1c0,0.1,0,0.1,0,0.2L3,8.4
			c0,0.1,0,0.1,0,0.2C3,8.7,2.9,8.7,2.9,8.8z M3.1,5.6c0,0.2,0,0.3,0,0.5C2.8,5.9,2.4,5.8,2,5.8l0,0c0-0.1,0.1-0.2,0.1-0.3
			c0.1-0.1,0.1-0.2,0-0.3c0.2-0.7,0.5-1.4,0.9-2C3.1,3.2,3,3,2.9,2.9c0,0-0.1,0-0.1,0c0.9-0.8,2.5-0.5,3.5-1.1
			c0.1-0.1,0.1-0.2,0.1-0.3c0,0,0,0-0.1-0.1C6,1.3,5.8,1.2,5.6,1.2c1-0.4,2.1-0.7,3.2-0.6c1,0.1,2,0.5,2.8,1.2
			c-0.1,1.5-1.4,2.3-2.7,2.9C9,4.3,9,4,9,3.7c0-0.1-0.1-0.2-0.3-0.2c-0.1,0-0.1,0-0.2,0.1c-0.3,0.4-1.1,1.1-1,0.2
			c0-0.3-0.4-0.3-0.5-0.1C6.6,4.7,4.5,4.7,3.5,5.4C3.4,5.3,3.2,5.3,3.1,5.4C3.1,5.5,3.1,5.5,3.1,5.6z M4.9,11.4
			c-0.6-0.7-1-1.5-1.3-2.4C3.5,8.7,3.5,8.4,3.5,8.1c0,0,0.1-0.1,0.1-0.1c0-0.1,0-0.3-0.1-0.3c0-0.3,0-0.6,0.1-0.8
			c0.1-0.1,0.1-0.2,0-0.3c0-0.2,0-0.4,0-0.6c0,0,0.1,0,0.2,0C4.6,5.2,6.1,5.2,7,4.5c0,0.2,0.1,0.3,0.3,0.4c0.4,0,0.8-0.1,1.1-0.4
			c0,0.2,0,0.4,0,0.6c0,0.1,0.1,0.3,0.3,0.2c0,0,0,0,0.1,0c0.9-0.3,1.8-0.9,2.5-1.5c0.2,0.8,0.9,1.8,1.8,1.8
			c0.1,0.2,0.3,0.3,0.5,0.4c0.1,0.1,0.2,0.1,0.3,0c0.2,0.4,0.4,0.9,0.4,1.3c-0.1,0.1-0.1,0.1-0.1,0.2c0,0.1,0,0.1,0.1,0.2
			c0,0.6,0,1.2-0.1,1.9c0,1.5-0.9,2.9-2.2,3.7l0,0c-0.1,0-0.2,0-0.3,0.1c0,0,0,0,0,0c-0.4,0.2-0.8,0.3-1.2,0.3
			C8.4,13.8,6.3,13,4.9,11.4z M12.5,14.2h-0.1c-0.1,0-0.2,0.1-0.2,0.2c-1,0.5-2.1,0.7-3.1,0.7c-0.7,0-2.1-0.2-2.4-0.9
			c0-0.1-0.1-0.1-0.1-0.1c0.1-0.1,0.2-0.3,0.3-0.4c1.5,0.6,3.2,0.8,4.8,0.3c0.2,0,0.3-0.1,0.4-0.1C12.3,13.9,12.4,14,12.5,14.2z
			 M2,20.5c-0.5-0.3-1-0.6-1.3-1.1c-0.7-0.9,0-2,0.7-2.7h0.1C2.4,16.7,2.3,19.6,2,20.5z M14,18.2c0,0.7,0.1,1.4,0.1,2.1
			c-0.1,0.1-0.1,0.2,0,0.3c0,0,0,0,0,0.1c0,0.1,0.1,0.2,0.2,0.2c-2.1,1.3-4.8,1.1-7.1,0.8c-1.5-0.1-3-0.5-4.4-0.9l-0.2-0.1
			c0.3-0.9,0.3-1.8,0.1-2.7c-0.1-0.7-0.1-1.5-0.7-1.8L2,16.1c1.1-0.7,2.2-1.2,3.4-1.5c0.3-0.1,0.5-0.2,0.7-0.4
			c0.4,0.8,1.5,1,2.3,1.1c1.5,0.2,3,0,4.3-0.8c0,0,0.1,0,0.1-0.1c0.1,0.2,0.3,0.4,0.4,0.5c0.4,0.4,0.7,0.8,1.2,1.2l0.1,0.1
			c-0.1,0.2-0.3,0.3-0.3,0.5C13.9,17.4,13.9,17.8,14,18.2z M15.6,19.9c-0.3,0.3-0.6,0.6-0.9,0.8c0,0,0-0.1,0-0.1
			c0-0.7-0.1-1.4-0.1-2.1c0,0,0-2.1,0.4-1.8c0,0,0.1,0,0.1,0c0.2,0.1,0.5,0.2,0.7,0.3C17.2,17.8,16.2,19.1,15.6,19.9L15.6,19.9z"/>
		<path class="st0" d="M6.8,7.5L6.8,7.5C6.9,7.3,6.9,7.2,6.9,7c0-0.1-0.1-0.2-0.2-0.2c-0.2,0-0.4,0-0.6,0.2C5.9,7.1,5.9,7.3,5.9,7.5
			c0,0.1,0.1,0.2,0.2,0.2C6.4,7.8,6.6,7.7,6.8,7.5z"/>
		<path class="st0" d="M10.8,7.4c0.1,0.2,0.3,0.2,0.5,0.2c0.2,0,0.3-0.1,0.4-0.3c0.1-0.2,0.1-0.3,0-0.5c-0.1-0.2-0.4-0.2-0.6-0.2
			c-0.2,0-0.4,0.2-0.4,0.4l0,0C10.7,7.3,10.7,7.4,10.8,7.4z"/>
		<path class="st0" d="M11.9,10.5c0.1-0.1,0-0.3-0.1-0.4c-0.1-0.1-0.3,0-0.4,0.1c-0.7,1.4-3.7,1.2-4.5,0c-0.2-0.3-0.6,0-0.4,0.3
			C7.6,12,11.1,12.3,11.9,10.5z"/>
	</g>
</g>
</svg>
