<?xml version="1.0" encoding="utf-8"?>
<!-- Generator: Adobe Illustrator 22.0.1, SVG Export Plug-In . SVG Version: 6.00 Build 0)  -->
<svg version="1.1" id="Layer_1" xmlns="http://www.w3.org/2000/svg" xmlns:xlink="http://www.w3.org/1999/xlink" x="0px" y="0px"
	 viewBox="0 0 22.7 22.8" style="enable-background:new 0 0 22.7 22.8;" xml:space="preserve">
<style type="text/css">
	.st0{fill:#010101;}
</style>
<title>Asset 36</title>
<g id="Layer_2_1_">
	<g id="Layer_1-2">
		<path class="st0" d="M21.2,10.6c-0.6-1-1-2.2-1.2-3.4c-0.5-1.9-1.6-3.5-3.1-4.7c-0.1,0-0.1-0.1-0.2-0.1c-0.4-1-1.3-1.3-2-2
			c-0.1-0.1-0.1-0.1-0.2-0.1c-0.1-0.1-0.2-0.1-0.3-0.1l0,0C11-0.2,7.1-0.3,5.1,2.8C4.6,3.7,4.3,4.7,4.2,5.7c0,0-0.1,0.1-0.1,0.1
			c-0.7,1.4-1.2,3-1.3,4.6c-0.3,2.1-1.1,4-2.4,5.6c-0.6,0.8-0.7,1.6,0.4,1.8c0.4,0.1,0.8,0.1,1,0.6C2,18.7,2.1,19,2.2,19.3
			c0.3,0.5,0.9,0.4,1.4,0.4c-0.3,0.5-0.2,1.2,0.2,1.6c1,1.1,3.3,1.1,4.5,1.3c2.4,0.4,4.8,0.4,7.2,0c1.3-0.3,5.5-1.4,4.9-3.4
			c-0.1-0.4-0.3-0.8-0.7-1.1c0.4,0,0.9-0.3,1.1-0.6c0.4-0.7-0.1-1.6,0.3-2.2c0.4-0.5,0.9-0.7,1.3-1.1c0.3-0.5,0.3-1.1,0.1-1.6
			C22.2,11.8,21.8,11.2,21.2,10.6z M16.8,4.6c0.3,0.2,0,0.7-0.1,0.9s0.3,0.6,0.5,0.3c0.1-0.1,0.1-0.2,0.2-0.4
			c0.2,0.1,0.3,0.3,0.3,0.5c0,0.1-0.2,0.2-0.3,0.3c-0.1,0-0.2,0.2-0.2,0.3c-0.2,0.1-0.3,0.3-0.1,0.4s0.2,0.1,0.2,0.3
			s-0.1,0.2-0.2,0.3c-0.1,0.1-0.3,0.2-0.5,0.2c0,0,0-0.1,0-0.1c0-0.3-0.5-0.5-0.5-0.1c0,0.1,0,0.1-0.1,0.1c-0.1,0-0.1,0.1-0.2,0.2
			c-0.4,0.1-0.9-0.1-1.2-0.4c0.3,0,0.5,0,0.8,0c0.4-0.1,0.3-0.6,0-0.6c-0.4,0.1-0.9,0-1.3-0.2c-0.2-0.1-0.1-0.8,0.1-0.9
			c0.2,0.1,0.4,0.3,0.6,0.4c0.2,0.3,0.7,0,0.5-0.3s-0.5-0.4-0.8-0.6s0-0.2,0.1-0.3c0.3-0.2,0.6-0.2,0.9-0.2c0,0.1,0,0.2,0,0.3
			c0.1,0.4,0.6,0.3,0.6,0c0-0.2,0-0.3,0.1-0.4C16.4,4.6,16.6,4.5,16.8,4.6L16.8,4.6z M17.7,18.5c-0.4-0.2-0.9-0.1-1.2,0.3
			c0,0.1-0.1,0.2-0.1,0.2c-0.6-0.3-1.3,0-1.6,0.6c-0.5-0.4-1.3-0.3-1.7,0.2c0,0.1-0.1,0.1-0.1,0.2c-0.4-0.4-1.1-0.5-1.6-0.1
			c-0.3-0.4-0.8-0.6-1.3-0.4c-0.2,0.1-0.4,0.5-0.6,0.3c-0.2-0.2-0.5-0.3-0.8-0.2c-0.5,0.1-0.7,0.3-1-0.1c-0.2-0.2-0.4-0.3-0.7-0.3
			c-0.1,0-0.8,0.1-0.8,0.1c-0.1-0.2-0.3-0.3-0.6-0.4h0.2c0.6-0.1,1.1-0.2,1.7-0.4c1.2-0.2,2-1.2,2.1-2.4h0.1
			c1.1,0.4,2.4,0.2,3.4-0.4c0.6,2.1,2.8,2,4.6,2.3l0.3,0.1C17.9,18.1,17.8,18.3,17.7,18.5L17.7,18.5z M18.7,18.3L18.7,18.3
			c0.2,0.1,0.4,0.2,0.6,0.4c-0.1,0-0.1,0-0.1,0.1c-2.3,2-5.1,2.2-8.1,2.3c-1.5,0.1-2.9,0-4.3-0.3c-0.2-0.1-2.4-0.7-2.3-0.9
			c0-0.1,0-0.1,0-0.2c0.1-0.1,0.3-0.2,0.5-0.3c0,0.1,0.1,0.2,0.2,0.2L6,19.9C6.1,20,6.2,20,6.3,20c0.4-0.3,0.8-0.2,1.2,0.3
			c0,0.1,0.2,0.2,0.3,0.2c0.6-0.1,1.1-0.5,1.6,0.1c0.1,0.1,0.3,0.2,0.4,0.1c0.3-0.3,0.9-0.9,1.4-0.1c0.1,0.1,0.3,0.1,0.4,0
			c0,0,0,0,0,0h1.2c0.1,0.1,0.3,0.2,0.4,0c0.3-0.5,0.9-0.7,1.4-0.4c0,0,0.1,0.1,0.1,0.1c0.1,0.1,0.3,0.1,0.4,0
			c0-0.1,0.1-0.1,0.1-0.2l1.1-0.3c0.1,0.1,0.3,0.1,0.4,0c0,0,0.1-0.1,0.1-0.1c0-0.5,0.3-0.6,0.9-0.4c0.1,0.1,0.3,0,0.4-0.1
			c0,0,0,0,0,0C18.2,18.7,18.4,18.4,18.7,18.3L18.7,18.3z M7.3,7c2-1.1,6.2-1.1,7.1-3.5c0.2,0.3,0.4,0.6,0.6,0.9
			c-0.3,0.1-0.6,0.3-0.8,0.5c-0.6,0.5-0.8,1.4-0.4,2.2c0.1,0,0.1,0.1,0.2,0.1c0,0.1,0,0.2,0.1,0.3c0.1,0.1,0.2,0.2,0.3,0.3
			c0.2,0.2,0.5,0.3,0.8,0.3c0.1,0,0.2,0.1,0.4,0.1c0,0,0,0.1,0,0.1l0,0l0,0c0,0.1,0,0.3,0,0.4l0,0c0,0.1,0,0.3,0,0.4v0.1
			c0,0.1,0,0.3-0.1,0.4c0,0,0,0.1,0,0.1c0,0.1,0,0.2-0.1,0.4c0,0,0,0.1,0,0.1c0,0.1,0,0.2,0,0.3c0,0.1,0,0.1,0,0.2
			c0,0.1,0,0.2,0,0.3s0,0.2-0.1,0.3s0,0.1,0,0.2l-0.1,0.4c-0.6,2.7-3.4,5-6,3.2c-2.8-1.7-3-5.6-3.2-8.4C6.2,6.4,6.4,6.2,6.5,6
			c0,0,0,0,0,0.1c0,0.2,0.1,0.3,0.3,0.3c0.1,0,0.2,0,0.2-0.1C6.9,6.4,6.9,6.6,6.9,6.8C6.9,7,7.1,7.1,7.3,7z M16,8.1l0.1-0.1h0.1
			C16.6,8,16.8,8,17,7.9c0,0.3,0,0.5,0,0.8c-0.1,2.6-0.8,5.7,0.1,8.2c0,0.1,0,0.2,0.1,0.3l0,0.1c-1.6-0.2-3.2-0.3-3.6-2l0,0
			c0.4-0.3,0.8-0.8,1.1-1.2c0.9-1.8,1.4-3.8,1.4-5.9L16,8.1z M4.9,5c0.9-4.5,5.3-4.8,9.1-4.2c-0.1,0.2-0.2,0.5-0.3,0.7
			c-0.2,0.3,0.2,0.7,0.4,0.4c0.2-0.3,0.3-0.6,0.4-0.9c0.2,0.2,0.5,0.3,0.7,0.5c0.8,0.6,1.2,1.4,1.4,2.3V4l0,0c0,0.1,0,0.1,0,0.2
			c-0.3,0-0.5,0-0.8,0c0,0-0.1,0-0.1,0.1l-0.1-0.1h-0.1V4.1c-0.2-0.3-0.4-0.6-0.6-0.9l-0.1-0.1l-0.2-0.3c0-0.1-0.1-0.1-0.1-0.1
			c0-0.1-0.2-0.2-0.4-0.2c-0.1,0-0.1,0.1-0.2,0.2c-0.2,1.7-2,2.1-3.3,2.5c-1.1,0.2-2.1,0.6-3.2,1c0.2-0.5,0.6-0.9,1.1-1
			C8.8,5.1,8.9,5,8.8,4.8C8.8,4.7,8.6,4.6,8.5,4.7L8.3,4.7C7.8,4.9,7.4,5.2,7,5.5c0-0.1,0-0.2,0.1-0.3C7.1,5,7,4.9,6.8,4.8
			c-0.1,0-0.2,0-0.3,0.1L6,5.7c-0.1-1.4,0.9-2.7,2.2-3c1.4-0.5,2.9-0.2,4.3-0.8c0.3-0.2,0.1-0.7-0.2-0.5c-1.7,0.8-3.7,0.4-5.4,1.3
			C5.7,3.5,5.1,5.1,5.6,6.5l0,0c0.3,2.8,0.6,7.7,3.5,9.2c0,0.5-0.1,0.9-0.3,1.3C8.3,17.6,7.7,17.9,7,18c-0.5,0.2-1.1,0.2-1.6,0.4
			C6.2,13.9,4.1,9.5,4.9,5z M3.3,19c-0.9,0-0.8-0.5-1-1c-0.1-0.3-0.4-0.5-0.7-0.6c-0.2-0.1-0.4-0.1-0.6-0.1
			c-0.4-0.4-0.4-0.7-0.1-0.9l0.4-0.5c0.4-0.5,0.7-1,1-1.6c1.3-2.2,1-4.8,1.8-7.1c0,0.9,0.1,1.8,0.2,2.7c0.3,3,1.1,5.7,0.5,8.7
			l-0.4,0.1C4.2,18.7,4,18.9,3.8,19C3.7,19,3.5,19,3.3,19z M19,20.4c-1,0.7-2.1,1.2-3.3,1.4c-1.9,0.4-3.9,0.5-5.8,0.3
			c-1.8,0-3.5-0.4-5.2-0.9c-0.6-0.2-1-0.6-0.8-1.3C4.7,21,8.3,21.4,9,21.4c3.6,0.2,7.6,0.1,10.4-2.3c0.1-0.1,0.1-0.1,0.1-0.2
			C19.8,19.3,19.8,19.9,19,20.4z M22.1,13.3c0,0.6-0.7,0.9-1.1,1.2c-0.3,0.2-0.5,0.5-0.6,0.9c0,0.2,0,0.5,0,0.7
			c0.1,0.9-0.5,1.3-1.4,1.4c0,0-0.1,0-0.1,0c-0.4-0.1-0.8-0.2-1.2-0.3c0-0.1,0-0.2,0-0.2c0,0,0-0.1,0-0.1c-0.4-1.5-0.6-3-0.4-4.5
			c0.1-1.6,0.2-3.1,0.3-4.7c0.3-0.3,0.4-0.7,0.1-1.1c0.5-0.3,0.7-0.9,0.4-1.4C18,5,17.8,4.9,17.5,4.8c0-0.2-0.1-0.5-0.3-0.6
			c-0.1-0.3-0.1-0.6-0.2-0.8c1.2,1,2,2.3,2.4,3.8c0.5,1.4,0.7,3,1.6,4.2C21.5,11.9,22.2,12.5,22.1,13.3L22.1,13.3z"/>
		<path class="st0" d="M17,8c0,0.2,0,0.4,0,0.6c0-0.3,0-0.5,0-0.8c-0.2,0.1-0.4,0.2-0.7,0.2C16.6,8.1,16.8,8.1,17,8z"/>
		<path class="st0" d="M15.6,4.1L15.6,4.1L15.6,4.1C15.6,4.2,15.6,4.2,15.6,4.1L15.6,4.1z"/>
		<path class="st0" d="M15,3.3L15,3.3L15,3.3z"/>
		<path class="st0" d="M15.8,4.2c0.3,0,0.5,0,0.8,0c0-0.1,0-0.1,0-0.2C16.3,3.9,16.1,4,15.8,4.2L15.8,4.2z"/>
		<path class="st0" d="M15.5,8.7c0,0.1,0,0.3,0,0.4C15.5,9,15.5,8.8,15.5,8.7z"/>
		<path class="st0" d="M15.3,10.7c0,0.1,0,0.2,0,0.3C15.2,10.8,15.3,10.8,15.3,10.7z"/>
		<path class="st0" d="M15.5,9.2c0,0.1,0,0.3-0.1,0.4C15.4,9.4,15.4,9.3,15.5,9.2z"/>
		<path class="st0" d="M15.6,8.2c0,0.1,0,0.3,0,0.4C15.5,8.5,15.6,8.4,15.6,8.2z"/>
		<path class="st0" d="M15.6,8.2C15.6,8.2,15.6,8.2,15.6,8.2c-0.1-0.1-0.2-0.1-0.4-0.2c-0.3-0.1-0.5-0.2-0.8-0.3
			c-0.1-0.1-0.2-0.2-0.3-0.3C14.5,7.9,15,8.2,15.6,8.2z"/>
		<path class="st0" d="M15.4,9.7c0,0.1,0,0.2-0.1,0.4C15.4,9.9,15.4,9.8,15.4,9.7z"/>
		<path class="st0" d="M15.3,10.2c0,0.1,0,0.2,0,0.3C15.3,10.4,15.3,10.3,15.3,10.2z"/>
		<path class="st0" d="M15.2,11.2c0,0.1,0,0.1,0,0.2S15.2,11.3,15.2,11.2z"/>
		<path class="st0" d="M14,5.1L14,5.1c-0.4,0.4-0.5,1-0.4,1.5c0,0.2,0.2,0.3,0.3,0.4c-0.4-0.7-0.2-1.6,0.4-2.1
			c0.2-0.2,0.5-0.4,0.8-0.5c-0.2-0.3-0.4-0.6-0.6-0.9L15,4.2C14.4,4.3,14,4.5,14,5.1z"/>
		<path class="st0" d="M8.7,8.8C9.1,8.7,9.3,8.4,9.2,8c0,0,0,0,0,0c0-0.1-0.1-0.1-0.2-0.2C8.7,7.7,8.4,7.8,8.3,8l0,0
			C8.1,8,8,8.1,8,8.3C8.1,8.6,8.4,8.9,8.7,8.8C8.7,8.8,8.7,8.8,8.7,8.8z"/>
		<path class="st0" d="M13.1,8.8c0.3,0,0.5-0.3,0.5-0.6c0-0.1-0.1-0.2-0.1-0.3c-0.2-0.1-0.4-0.2-0.6-0.2c-0.2,0-0.4,0.1-0.5,0.3
			c0,0,0,0.1,0,0.1c0,0.1,0,0.1,0,0.2C12.4,8.5,12.7,8.8,13.1,8.8z"/>
		<path class="st0" d="M12.5,12.4c0-0.2-0.2-0.3-0.3-0.2c-0.1,0-0.2,0.1-0.2,0.2c0.1,1-1.8,0.6-2.2,0.1c-0.3-0.3-0.6,0.2-0.4,0.4
			C10.2,13.8,12.6,14,12.5,12.4z"/>
	</g>
</g>
</svg>
