<?xml version="1.0" encoding="utf-8"?>
<!-- Generator: Adobe Illustrator 22.0.1, SVG Export Plug-In . SVG Version: 6.00 Build 0)  -->
<svg version="1.1" id="Layer_1" xmlns="http://www.w3.org/2000/svg" xmlns:xlink="http://www.w3.org/1999/xlink" x="0px" y="0px"
	 viewBox="0 0 17.1 21.8" style="enable-background:new 0 0 17.1 21.8;" xml:space="preserve">
<style type="text/css">
	.st0{fill:#010101;}
</style>
<title>Asset 42</title>
<g id="Layer_2_1_">
	<g id="Layer_1-2">
		<path class="st0" d="M17.1,14c-0.3-1.6-0.7-3.1-0.9-4.7C16,8.1,16,6.9,15.7,5.8c-0.4-2.3-1.8-4.3-3.9-5.4C11.1,0,9.3-0.3,8.7,0.5
			C7-0.2,5-0.1,3.4,0.9c-1.7,1-2.5,3.2-2.8,5c-0.4,2.7-0.5,5.3-0.4,8c0,0.6-0.3,2,0.2,2.4c0.4,0.3,0.8,0.6,1.3,0.7
			c-0.5,0.3-0.9,0.6-0.9,1.1c0.1,1.3,1.7,2.2,2.7,2.7c1.8,0.8,3.8,1.1,5.8,1c2.4-0.1,7.2-0.9,7.7-4c0.2-1-1-1.2-1.7-1.2H14
			c0.7-0.2,1.4-0.5,2-0.9C17,15.2,17.3,15.2,17.1,14z M14.9,17.1c0.3,0,0.6,0,0.8,0.1c1.3,0.2,0.3,1.4,0,1.7c-0.5,0.6-1.2,1.1-2,1.4
			c-1.6,0.6-3.3,1-5.1,1c-1.9,0.1-3.7-0.3-5.4-1.1c-0.8-0.4-1.4-0.9-2-1.6c-0.5-0.6,0.3-1,1-1.3c0.1,0.1,0.1,0.1,0.2,0.1h0.1
			c0.1,0,0.2-0.1,0.2-0.2c0,0,0,0,0,0l0.2,0c0.7-0.2,1.3-0.3,1.9-0.6c0.2,0.6,0.6,1.2,1,1.7c0.2,0.3,0.5,0.8,1,0.8
			c0.7,0,1.4-0.8,1.8-1.2l0,0c0.2,0.2,0.3,0.4,0.6,0.5c0.2,0.3,0.5,0.5,0.9,0.6c0.4,0.1,0.7-0.2,1.1-0.5s1.3-1,1.4-1.6
			C13.4,17,14.2,17.1,14.9,17.1L14.9,17.1z M4.2,10.1C4.1,9.4,4,8.8,3.9,8.1l0.5,0.2c0.1,0.1,0.3,0.1,0.4,0.2C4.8,8.8,4.8,9,4.9,9.2
			c0.5,1.2,3.1,1,3.1-0.3c0.6-0.2,0.9-0.1,1.2,0.4c0.2,0.3,0.6,0.5,1,0.6c0.8,0.3,1.6,0,2.1-0.6c0.1-0.1,0.1-0.3,0.2-0.5
			c0.1,0,0.3-0.1,0.2-0.3l0.1-0.1c0.1-0.1,0.2-0.2,0.3-0.2l0,0c0,0.8-0.1,1.5-0.2,2.3c-0.4,2.3-2.4,3.9-4.8,3.8
			c-2.3-0.2-3.3-1.9-3.8-3.9C4.3,10.3,4.3,10.2,4.2,10.1L4.2,10.1z M4,5.3c0.4-0.5,1.1-0.5,1.6-0.7c0.6-0.2,1.2-0.4,1.8-0.6
			c0.4-0.2,0.7-0.4,1-0.8c0.6,1.3,3.3,1.2,4.5,2c-0.1,0.2,0,0.5,0.3,0.4c0.1,0.7,0.1,1.3,0,2l0,0C13,7.7,12.8,7.8,12.6,8
			c-0.1,0.1-0.2,0.2-0.3,0.3c-0.3-0.2-0.6-0.4-1-0.5V7.8l0,0c0.1-0.1,0.1-0.2,0.1-0.3c0-0.1,0-0.1-0.1-0.2c0-0.1,0-0.1-0.1-0.1
			c-0.2-0.2-0.5-0.2-0.6,0c-0.2,0.1-0.3,0.3-0.2,0.6c0,0,0,0,0,0l0,0C9.8,7.8,9.3,8.1,9.3,8.5C8.9,8.3,8.4,8.3,8,8.4
			C7.8,8,7.3,7.7,6.8,7.7c0,0,0-0.1,0-0.1C6.7,7.4,6.5,7.2,6.3,7.3c0,0-0.1,0-0.1,0C6,7.3,5.8,7.5,5.8,7.7l0,0
			C5.6,7.8,5.4,7.9,5.2,8.1C4.8,7.8,4.3,7.7,3.9,7.6c0-0.7-0.1-1.4-0.1-2l0.1-0.1C4,5.4,4,5.3,4,5.3z M9.9,8.6
			c0.2-0.5,2.4-0.6,2,0.4c-0.2,0.5-1.2,0.4-1.6,0.3c-0.2,0-0.4-0.1-0.5-0.2C9.9,9.1,10,9,10,8.9V8.8C10,8.7,10,8.6,9.9,8.6z
			 M5.5,8.6c0.2-0.1,0.3-0.3,0.6-0.3c0.3,0,1.5-0.1,1.4,0.4l0,0c0,0,0,0.1,0,0.1c0.3,0.9-1.6,0.8-2,0.5C5.4,9.2,5.4,9.1,5.3,9
			c0.1,0,0.2-0.1,0.2-0.2c0,0,0,0,0-0.1C5.5,8.7,5.5,8.6,5.5,8.6L5.5,8.6z M6.6,14.6C6.6,14.6,6.7,14.6,6.6,14.6
			C7.4,14.8,8.1,15,8.8,15c0.5,0,0.9-0.1,1.4-0.3c0.3,0.4,0.6,0.9,0.9,1.3c-0.1,0-0.2,0.2-0.2,0.3c0,0,0,0.1,0,0.1
			c-0.5,1.3-4.4,0.6-4.8-0.5c0,0,0-0.1-0.1-0.1c0.1-0.1,0.1-0.1,0.2-0.2C6.3,15.6,6.7,14.7,6.6,14.6L6.6,14.6z M11.5,16.4
			c0.1,0.1,0.2,0.1,0.3,0.2l0.3,0.2c0,0,0,0.1,0.1,0.1c-0.1-0.1-0.4,0.4-0.5,0.5c-0.2,0.3-0.5,0.5-0.7,0.7s-0.3,0.3-0.5,0.4
			S9.5,18,9.2,17.6C10.3,17.5,11.3,17.2,11.5,16.4L11.5,16.4z M8.4,17.4c-0.4,0.3-0.7,0.6-1.1,0.9s-0.8-0.1-1-0.4
			c-0.1-0.2-1.1-1.4-0.9-1.6c0,0,0-0.1,0.1-0.1c0,0,0.1,0,0.1-0.1c0.1,0,0.1-0.1,0.2-0.1C6.4,16.9,7.3,17.4,8.4,17.4z M13.1,16.2
			c-0.1,0-0.2,0.1-0.2,0.2c-0.2,0-0.4-0.1-0.6-0.2c-0.9-0.4-1.1-1.2-1.6-1.9c1.1-0.7,2-1.8,2.5-3c0.1-0.2,0.2-0.4,0.2-0.7l0,0
			c0.9,0.1,1-1,1-1.6c-0.1-0.5-0.3-1.2-0.8-1.1c0-0.1,0-0.1,0-0.2c0.1-0.1,0.1-0.2,0-0.3c0-0.6,0-1.3,0-1.9c0.1-0.1,0.1-0.2,0.1-0.3
			c0-0.1-0.1-0.1-0.1-0.2l0,0c0-0.1-0.1-0.2-0.2-0.2C12.1,4,8.7,4,8.8,2.3c0-0.3-0.4-0.3-0.5,0c-0.1,0-0.2,0.1-0.2,0.3
			c0,0.9-2,1.3-2.6,1.5s-1.7,0.3-2,1.1c-0.1,0-0.2,0.1-0.2,0.3c0,0.9,0,1.8,0.2,2.7c-1,0.1-0.6,2.4,0.4,2.5c0.2,0.6,0.4,1.3,0.6,1.9
			c0.3,0.8,0.9,1.4,1.7,1.8c-0.2,1.8-2,2-3.4,2.4l-0.5,0.1c-0.4-0.2-0.9-0.3-1.3-0.5c-0.7-0.3-0.4-2.2-0.4-2.8
			c-0.1-2.1,0-4.1,0.2-6.2c0.2-1.8,0.8-3.5,1.8-5c1.5-1.7,4-2.1,6-1.1c0.1,0,0.2,0,0.3-0.1C9,1,9.1,0.9,9.1,0.9
			c0.3-0.5,1.4-0.3,1.9-0.2c0.7,0.1,1.4,0.5,1.9,1c1.5,1.4,2.3,3.4,2.5,5.4c0.3,1.7,0.4,3.4,0.8,5.1c0.1,0.6,0.9,2.5,0.1,2.9
			C15.3,15.6,14.2,16,13.1,16.2z M13.5,10.2c0.1-0.6,0.1-1.1,0.1-1.7l0,0c0.1-0.1,0.2,0.6,0.2,0.7S13.8,10.2,13.5,10.2L13.5,10.2z
			 M3.7,10C3.4,9.7,3.3,8.8,3.5,8.7C3.6,9.1,3.6,9.5,3.7,10z"/>
		<path class="st0" d="M10.5,12.4c0.2-0.3-0.2-0.6-0.4-0.3c-0.6,0.7-2.4,1-3,0.1c-0.2-0.3-0.6,0-0.4,0.3
			C7.5,13.7,9.7,13.4,10.5,12.4z"/>
		<path class="st0" d="M8.8,19.4c0.1,0,0.2-0.1,0.2-0.3c0-0.1-0.1-0.2-0.3-0.2H8.7c-0.1,0-0.3,0.1-0.3,0.3s0.1,0.3,0.3,0.3H8.8z"/>
		<path class="st0" d="M8.9,20.3L8.9,20.3c-0.1,0-0.3,0.1-0.2,0.3c0,0,0,0,0,0c0,0.1,0.1,0.2,0.3,0.2l0,0c0.1,0,0.2-0.1,0.2-0.3
			C9.1,20.4,9,20.3,8.9,20.3z"/>
	</g>
</g>
</svg>
