<?xml version="1.0" encoding="utf-8"?>
<!-- Generator: Adobe Illustrator 22.0.1, SVG Export Plug-In . SVG Version: 6.00 Build 0)  -->
<svg version="1.1" id="Layer_1" xmlns="http://www.w3.org/2000/svg" xmlns:xlink="http://www.w3.org/1999/xlink" x="0px" y="0px"
	 viewBox="0 0 22.9 22.6" style="enable-background:new 0 0 22.9 22.6;" xml:space="preserve">
<style type="text/css">
	.st0{fill:#231F20;}
</style>
<title>Asset 39</title>
<g id="Layer_2_1_">
	<g id="Layer_1-2">
		<path class="st0" d="M22.7,11.4c-1-0.2-0.8-1.9-1-2.7c-0.2-0.7-0.6-1.3-1.2-1.6c-0.6-0.5-1.3-0.7-2.1-0.7c0.5-1.7,0.1-3.5-1-4.9
			c-1.2-1.5-3.4-1.8-4.9-0.6c0,0,0,0,0,0c-0.6-0.4-1.3-0.7-2-0.7c-1.6-0.4-3.4,0-4.7,1C3.4,2.4,2.5,5.2,3.8,7.5
			C3.9,7.7,4,7.9,4.1,8.1C3.4,8,2.7,8.4,2.4,9c-0.8,1.5,0.2,3.9-2.2,4.1c-0.1,0-0.2,0.1-0.2,0.3c0,0.1,0,0.1,0.1,0.2
			c1.9,1.8,6.3,2,6.8-1c0.5,0.6,1.1,1,1.9,1.3c0.3,2.8-3.2,1.9-4.6,3.1c-1,0.9-0.3,2.3,0.4,3.1c1.1,1.3,3.3,1.6,4.8,2.1
			c2.1,0.6,4.4,0.5,6.4-0.4c1.8-0.7,5-2,5.1-4.2c0-1.1-1.1-1.8-2.1-2c-1.8-0.4-3.7,0.3-4.4-1.9l0,0c1-0.6,1.7-1.4,2.2-2.4
			c0.4,0.5,1,0.8,1.7,1c1.5,0.6,3.1,0.5,4.6-0.2c0.1,0,0.1-0.1,0.1-0.2C22.9,11.6,22.8,11.5,22.7,11.4z M17.7,6.6
			c-0.1,0.1-0.3,0.2-0.4,0.3c-0.1,0-0.1,0.1-0.1,0.2c0,0,0,0.1,0,0.1H17c0-0.4-0.1-0.7-0.2-1.1c0,0,0-0.1,0-0.2
			c-0.3-0.5-0.7-0.9-1.3-1c-1-0.2-1.9-0.9-2.3-1.8c0,0,0-0.1-0.1-0.1c0-0.6-0.1-1.2-0.4-1.7l0,0C15.5-1.5,19.5,3.8,17.7,6.6
			L17.7,6.6z M17.1,7.8c0.3-0.1,0.4,0.3,0.4,0.5c0,0.1,0,0.3,0,0.4c0,0.1-0.3,0.4-0.4,0.4l0,0C17.1,8.6,17.1,8.2,17.1,7.8L17.1,7.8z
			 M13.1,7.3c0.5-0.2,1-0.1,1.5,0.1c0.2,0.1,0.4,0.3,0.5,0.5c0,0,0,0.1,0,0.1c0,0.4-0.1,0.7-0.3,1c-0.3,0.4-2,0.6-2.2-0.1l0,0
			C12.6,8.4,12.5,7.6,13.1,7.3L13.1,7.3z M13.2,6.7c-0.9,0.2-1.1,0.8-1.1,1.5c-0.4-0.1-0.9-0.1-1.3,0.1c-0.3-0.6-0.9-1.1-1.6-1.1
			c-0.7-0.1-1.4,0.3-1.7,1C7,7.9,6.4,7.8,5.8,8c0-0.3,0-0.7,0-1C5.9,7,6,6.9,6,6.8c0.6-1.8,4.3-1.2,5.8-1.9c0.5-0.2,0.9-0.6,1.1-1.1
			c0.3,0.5,0.7,0.9,1.2,1.2c0.6,0.4,2,0.4,2.2,1.2c0,0,0,0.1,0,0.1c0.1,0.3,0.1,0.5,0.2,0.7c-0.4,0.1-0.7,0.2-1.1,0.4
			C14.9,6.8,14.1,6.5,13.2,6.7L13.2,6.7z M9.1,10C8.4,9.9,7.8,9.3,7.9,8.6c0,0,0,0,0,0c0.3-1.1,2.3-1,2.5,0.1l0,0
			c0,0.1-0.1,0.1-0.1,0.2c0.2,0.5-0.1,1.1-0.7,1.3C9.5,10.1,9.3,10.1,9.1,10z M5.7,9.5c0.1,0.4,0.2,0.7,0.3,1.1
			c-0.1,0-0.1,0.1-0.2,0.1c-0.1,0.1-0.5-0.2-0.6-0.2c-0.1-0.2-0.2-0.4-0.2-0.6c0-0.2,0-1,0.4-1l0,0C5.6,9.1,5.7,9.3,5.7,9.5z
			 M5.3,2.1c1-0.8,2.1-1.4,3.4-1.6c0.6-0.1,3.3,0.1,3.5,1c0,0.1,0,0.1,0.1,0.1c2.1,4.8-5.6,2.1-6.7,5c-0.1,0-0.2,0.1-0.2,0.2
			c-0.1,0.5-0.1,1.1,0,1.6c-0.1,0-0.3,0-0.4,0.1C3.4,6.5,3,3.8,5.3,2.1z M6.5,12.1c-0.1,2.7-3.8,2.6-5.6,1.4
			c0.5-0.1,0.9-0.3,1.2-0.7C2.8,11.5,2,8,4.5,8.6l0,0l0.1,0.1c0,0,0,0.1,0.1,0.1L4.8,9c-0.1,0.3-0.1,0.7-0.1,1
			c0,0.5,0.3,0.9,0.7,1.1c0.3,0.2,0.6,0.2,0.9,0c0.1,0.3,0.2,0.6,0.4,0.8C6.5,12,6.5,12,6.5,12.1z M7.5,16.5c0,0.1,0.1,0.1,0.1,0.2
			c1.5,0.6,2.5,1.7,4.2,1.7c-1.4,2.2-3.6-0.7-4.8-1.8C7.2,16.6,7.3,16.6,7.5,16.5L7.5,16.5z M17.5,16c0.5,0,1,0.1,1.5,0.2
			c0.9,0.1,1.5,1,1.4,1.9c-0.2,0.6-0.7,1.2-1.2,1.5c-1,0.7-2,1.3-3.2,1.7c-1.7,0.8-3.7,1.1-5.6,0.8c-1.8-0.4-4.3-1-5.6-2.4
			c-0.3-0.4-0.5-0.8-0.6-1.3C4,17.2,5.3,16.9,6,16.8l0.4-0.1c0,0.1,0,0.1,0.1,0.1c1.5,1.2,3.9,4.4,5.6,2c0.5,0.7,1.3,0.9,2.1,0.7
			c1.6-0.5,2.4-2.2,3.2-3.5C17.5,16.1,17.5,16,17.5,16L17.5,16z M16.1,15.8c0.3,0.1,0.6,0.1,0.9,0.1c0,0-0.1,0.1-0.1,0.2
			c-0.4,0.6-0.8,1.3-1.3,1.9c-0.7,0.9-2.5,2-3.2,0.4C13.8,17.9,15.1,17.1,16.1,15.8L16.1,15.8z M15.1,15.5c0.1,0.1,0.3,0.1,0.4,0.2
			c0,0,0,0,0,0.1c-0.9,1.1-2.3,1.9-3.7,2.1c-1.5,0.2-2.5-1-3.8-1.6l0.2-0.1c1.2,0.9,2.7,1.3,4.2,1.1C13.5,17.1,14.5,16.5,15.1,15.5
			L15.1,15.5z M14.6,15.2L14.6,15.2c0,0.1,0,0.1,0,0.2c-0.4,0.9-1.7,1.3-2.6,1.5c-1.2,0.1-2.4-0.3-3.3-1c0.5-0.5,0.7-1.1,0.7-1.8
			c0.7,0.2,1.5,0.3,2.3,0.3c0.8,0,1.6-0.1,2.3-0.5C14,14.4,14.3,14.8,14.6,15.2L14.6,15.2z M11.5,13.8c-1.6,0.1-3.2-0.6-4.3-1.8
			c-0.4-0.6-0.7-1.3-0.8-2c-0.1-0.5-0.3-1-0.4-1.5H6c0.1-0.1,0.6,0,0.7,0c0.2,0,0.4,0.1,0.6,0.2c-0.1,1,0.9,1.7,1.8,1.8
			c0.8,0.2,1.6-0.4,1.8-1.2c0-0.2,0-0.3,0-0.5l0,0c0.2-0.2,1.2-0.5,1.2,0V9c0,0,0,0,0,0.1s0,0,0,0c0.2,0.8,1.5,1.1,2.2,0.9
			c0.9-0.2,1.5-1.1,1.4-2c0.3-0.2,0.6-0.4,0.9-0.4C16.9,10.8,15.1,13.7,11.5,13.8L11.5,13.8z M19.1,12c-0.2,0-2.3-0.6-2.2-1.1
			c0-0.1,0-0.2-0.2-0.3c0.1-0.3,0.2-0.7,0.3-1c0.3,0,0.6-0.1,0.8-0.3C18,9,18.1,8.7,18,8.3c0-0.3-0.1-0.6-0.4-0.9l0,0
			C17.8,7.3,17.9,7.2,18,7l0.2-0.1c0.6-0.1,1.2,0,1.6,0.4c0.8,0.5,1.4,1.3,1.4,2.3c0.1,0.8,0.1,1.7,0.9,2.1
			C21.2,12.1,20.1,12.2,19.1,12z"/>
		<path class="st0" d="M8.7,8.1C8.5,8.2,8.4,8.5,8.5,8.7c0,0.1,0.1,0.1,0.1,0.1c0.1,0.1,0.2,0.1,0.3,0h0c0.2,0,0.4-0.2,0.4-0.4
			c0,0,0-0.1,0-0.1C9.3,8.1,9,8,8.7,8.1C8.8,8.1,8.7,8.1,8.7,8.1z"/>
		<path class="st0" d="M13.7,8.5h0.2c0,0,0.1,0,0.1,0c0.1,0,0.1,0,0.2,0c0.2-0.1,0.3-0.3,0.2-0.5c0-0.1-0.1-0.2-0.3-0.2
			c-0.1,0-0.3,0-0.4,0c-0.2,0.1-0.3,0.3-0.3,0.5C13.4,8.4,13.6,8.5,13.7,8.5z"/>
		<path class="st0" d="M12.6,12c-0.2,0.7-1.4,0.3-1.8,0s-0.6,0.2-0.3,0.4c0.6,0.5,1.3,0.6,2,0.4c0.3-0.1,0.9-0.7,0.6-1
			c-0.1-0.1-0.2-0.1-0.4-0.1C12.6,11.8,12.5,11.9,12.6,12z"/>
	</g>
</g>
</svg>
