<?xml version="1.0" encoding="utf-8"?>
<!-- Generator: Adobe Illustrator 22.0.1, SVG Export Plug-In . SVG Version: 6.00 Build 0)  -->
<svg version="1.1" id="Layer_1" xmlns="http://www.w3.org/2000/svg" xmlns:xlink="http://www.w3.org/1999/xlink" x="0px" y="0px"
	 viewBox="0 0 18.9 20.2" style="enable-background:new 0 0 18.9 20.2;" xml:space="preserve">
<style type="text/css">
	.st0{fill:#010101;}
</style>
<title>Asset 45</title>
<g id="Layer_2_1_">
	<g id="Layer_1-2">
		<path class="st0" d="M10.6,9.4c0.5-0.1,1-0.1,1.4,0c0.1,0,0.3-0.1,0.3-0.2c0-0.1,0-0.2-0.1-0.2c-0.5-0.2-1.1-0.2-1.7-0.1
			C10.3,8.9,10.3,9.4,10.6,9.4z"/>
		<path class="st0" d="M10.9,9.8c-0.3,0-0.3,0.5,0,0.5h1.5c0.3,0,0.3-0.5,0-0.5H10.9z"/>
		<path class="st0" d="M10.5,11.6c0.7,0,1.3,0,2-0.1c0.3,0,1.4,0.1,1.7-0.2S14,10.7,13.8,11c0.1-0.1,0.1,0-0.1,0h-0.4l-1.2,0.1
			c-0.6,0-1.1,0-1.7,0C10.1,11.1,10.2,11.6,10.5,11.6z"/>
		<path class="st0" d="M13.7,12.5c0.3,0,0.3-0.5,0-0.5c-0.6,0.1-1.3,0.1-1.9,0c-0.3-0.1-0.4,0.4-0.1,0.5
			C12.4,12.6,13.1,12.6,13.7,12.5z"/>
		<path class="st0" d="M13.6,13.2c0.3,0.1,0.4-0.5,0.1-0.5c-0.6,0-1.1,0-1.7,0.1c-0.3,0-0.3,0.5,0,0.5
			C12.5,13.2,13.1,13.2,13.6,13.2z"/>
		<path class="st0" d="M13.8,13.4c-0.2,0.1-0.5,0.1-0.7,0c-0.3,0-0.5-0.1-0.8-0.1s-0.3,0.5,0,0.5c0.6,0,1.2,0.2,1.7,0
			C14.3,13.7,14.1,13.3,13.8,13.4z"/>
		<path class="st0" d="M18.8,15.8c0-0.1,0-0.1,0-0.2c-0.1-0.2-0.2-0.4-0.3-0.6c0-0.1-0.1-0.2-0.1-0.3c-1.1-2.1-3.3-3.5-4.8-5.4
			c-1.1-1.3-0.9-2.9-0.9-4.4c0-0.3,0-0.5-0.1-0.8c0.2-0.1,0.2-0.4-0.1-0.5c-0.1-0.5,0-1,0.2-1.4c0-0.1,0-0.1,0-0.2
			c0.5,0,1.1-0.1,1.6-0.2c0.1,0.1,0.2,0,0.3-0.1l0,0c0.1,0,0.1-0.1,0.1-0.2c0.1-0.4,0.1-1-0.3-1.1c-1-0.5-2.7-0.2-3.9-0.2
			c-1.5,0-3.1,0-4.7,0c-0.8-0.1-1.7,0-2.5,0.3H3.2C3.1,0.5,3,0.6,3,0.7v0.1C2.9,0.9,2.9,1,3,1.2c0.2,1.2,1.7,1.3,2.8,1.2
			c0,0,0,0.1,0,0.2c0,2,0.2,4,0.3,6c-0.2,1.7-2,2.9-3.1,3.9c-0.8,0.7-1.6,1.6-2.3,2.4L0.4,15c-0.1,0-0.3,0.2-0.2,0.3
			c0,0.1,0.1,0.2,0.1,0.2l-0.1,0.2c-1.2,2.5,3.5,3.4,5,3.8c3.5,0.7,7.2,1.2,10.6-0.1C17.1,18.9,19.4,17.3,18.8,15.8z M5.7,1.9
			c-0.4,0-0.8,0-1.2,0C4.3,1.8,4.2,1.7,4,1.7C3.8,1.5,3.6,1.3,3.5,1.1C4.6,0.4,6.8,0.7,8,0.6c1,0,2.1,0,3.1,0h1.5
			c0.1,0,2.1-0.1,1.8,0.5h-0.1c-0.1,0-0.1,0-0.2,0.1c-1.1,0.1-2.2,0.1-3.4,0.1c-1,0-2,0.2-3,0.3C7.1,1.7,6.4,1.8,5.7,1.9z M3,13.1
			C4.2,12,6.1,10.8,6.4,9c0,0,0,0,0.1,0V8.9c0.1-0.1,0.1-0.2,0-0.3c0-2-0.2-4-0.3-6.1c0,0,0-0.1,0-0.1l0,0C7.3,2.3,8.4,2.1,9.4,2
			c0.9-0.1,1.9-0.1,2.8-0.1C12.1,2.4,12,3,12.1,3.5c-0.5,0-1,0.1-1.6,0.1H9.2c-0.3,0-0.3,0.5,0,0.5h1.2C11,4.1,11.6,4,12.2,4l0,0
			c0,0.1,0,0.3,0,0.4c-0.6,0-1.3,0.1-1.9,0.1c-0.3,0-0.3,0.5,0,0.5c0.6,0,1.2-0.2,1.8-0.1h0.1v0.6c0-0.1-0.1-0.2-0.3-0.2h-1.2
			c-0.3,0-0.3,0.5,0,0.5H12c0.1,0,0.2-0.1,0.2-0.1c0,0.2,0,0.4,0,0.7h-1.4c-0.3,0-0.3,0.5,0,0.5h1.4c0,0.2,0,0.4,0.1,0.6
			c-0.9,0-1.8,0.1-2.6,0.1c-0.3,0-0.3,0.5,0,0.5c0.9,0,1.8-0.2,2.7-0.1c0.8,2.6,3.6,4,5.1,6.3c-1-0.1-2.1-0.1-3.1,0
			c-2.5-0.1-5-0.2-7.5-0.1c-1.1,0.1-2.2,0.2-3.2,0.2c-0.6,0-1.3,0.1-1.9,0.1H1.5C2,14.1,2.5,13.6,3,13.1z M2.3,15
			c0.8-0.1,1.6-0.1,2.4-0.1c1.7-0.1,3.5-0.3,5.2-0.3c0.5,0,1,0,1.5,0H11c-0.3,0-0.3,0.5,0,0.5c1.2,0,2.5-0.3,3.7-0.3
			c0.1,0,0.2-0.1,0.2-0.1H15c0.6,0,1.2,0,1.9,0s1.7,0.2,0.5,0.5c-1.3,0.3-2.6,0.4-3.9,0.3c-1.8,0-3.7,0-5.5,0c-0.4,0-6,0.3-6.5-0.5
			C1.8,15,2,15,2.3,15z M16.1,18.7c-1.4,0.6-2.9,1-4.4,1c-2.7,0.1-5.4-0.3-8-1.1c-1.2-0.4-3.7-1.1-2.8-2.9c0-0.1,0.1-0.2,0.2-0.3h0
			c0.4,1.2,3.2,0.8,4,0.8c2.5,0,5,0,7.5,0c1.8,0.1,3.5,0,5.2-0.4c0.1,0,0.2-0.1,0.3-0.1l0,0c0,0.1,0.1,0.2,0.1,0.2
			C18.8,17,16.9,18.3,16.1,18.7L16.1,18.7z"/>
	</g>
</g>
</svg>
