<?xml version="1.0" encoding="utf-8"?>
<!-- Generator: Adobe Illustrator 22.0.1, SVG Export Plug-In . SVG Version: 6.00 Build 0)  -->
<svg version="1.1" id="Layer_1" xmlns="http://www.w3.org/2000/svg" xmlns:xlink="http://www.w3.org/1999/xlink" x="0px" y="0px"
	 viewBox="0 0 16.6 21" style="enable-background:new 0 0 16.6 21;" xml:space="preserve">
<style type="text/css">
	.st0{fill:#010101;}
</style>
<title>Asset 39</title>
<g id="Layer_2_1_">
	<g id="Layer_1-2">
		<path class="st0" d="M14.2,9.1c-0.6-0.4-1.2-0.6-1.9-0.8c0-0.3,0-0.6,0-0.8c-0.1-1.3-0.1-2.5-0.1-3.8c0.1-0.8-0.1-1.7-0.4-2.4
			c-1.1-2-5.1-1-6.9-1c-1.2,0-4.8,0-4.9,1.8C0,2.1,0,2.2,0,2.3c0.1,3,0.2,6.1,0.3,9.1c0.1,2.3-0.2,4.6-0.1,6.9c0.1,2,1.5,2,3.2,2.3
			c2.6,0.5,5.2-0.1,7.8,0.3c0,0.1,0.1,0.1,0.2,0.1c1.1,0.1,1.5-0.8,1.5-2h-0.3h0.3c1.5-0.2,2.8-1.2,3.4-2.6
			C17.1,13.9,16.5,10.6,14.2,9.1z M12.3,19c0,0.7-0.1,1.3-0.6,1.4c0,0-0.1-0.1-0.1-0.1c-2.3-0.4-4.5,0-6.8-0.2
			c-1.1,0-2.3-0.2-3.4-0.5c-0.9-0.4-0.7-2.3-0.6-3c0.3-4.7-0.1-9.5-0.2-14.2c0.1-0.1,0.1-0.2,0.1-0.2c-0.2-1.4,4-1.4,4.9-1.4
			c2.2,0.1,5.8-1.2,6.1,2c0,0.7,0,1.5-0.1,2.2c0,1,0,2,0.2,3c0,0.1,0,0.1,0,0.2c-0.4-0.1-0.8-0.1-1.3-0.1c0-1.5-0.1-3-0.2-4.5
			c0-0.9-0.6-1.7-1.5-1.8C8.1,1.7,7.3,1.6,6.6,1.7c-1.3,0-2.7,0-4,0.2c0,0-0.1,0-0.1,0C2.3,1.8,2.1,1.9,2.1,2c0,0,0,0.1,0,0.1
			c0,4.6,0.2,9.2,0,13.8c0,1.2,0.9,1.7,2,1.8c1.5,0.1,2.9,0.1,4.4,0c1.2,0.8,2.6,1.3,4,1.3H12.3z M10,8.1C9.1,8.2,8.2,8.6,7.5,9.2
			c-2.6,2.3-1.9,5.6,0.1,7.9c0,0,0,0.1,0,0.1L5,17.2c-1,0-2.4,0.2-2.5-1.3c0-0.9,0-1.7,0-2.6V2.6c0.1,0,0.3-0.1,0.3-0.3
			c0,0,4.6-0.1,5.2-0.1c2.2,0,1.8,1.8,1.9,3.5C10,6.5,10,7.3,10,8.1z M16,15.3c-0.2,1.5-1.3,2.7-2.8,3.1c-1.3,0.2-2.6,0-3.7-0.7l0,0
			c-0.4-0.2-0.7-0.4-1-0.5c-2.1-2-3-5.1-0.7-7.4c0.6-0.6,1.4-1,2.3-1.1l0,0c0.2-0.1,0.3-0.1,0.5,0l0,0c0.4,0,0.9,0,1.3,0.1h0.1
			c0.6,0.1,1.1,0.3,1.6,0.6C15.6,10.4,16.3,13,16,15.3z"/>
		<path class="st0" d="M5.6,1.4L5.6,1.4c0-0.2-0.2-0.3-0.3-0.3c-0.1,0-0.2,0.1-0.2,0.2v0.1C5.1,1.8,5.6,1.8,5.6,1.4z"/>
		<path class="st0" d="M14,13c-0.5-0.1-0.9-0.2-1.4-0.1c-0.6,0-0.3-0.1-0.3-0.7v-1.9c0-0.1-0.1-0.3-0.3-0.3c-0.8,0-1.6-0.2-2.1,0.4
			S9.7,12.3,9.7,13H8.6c-0.1,0-0.3,0.1-0.3,0.3v1.9c0,0.1,0.1,0.3,0.3,0.3c0.6,0,1.5-0.2,1.5,0.6c0,0.3,0,0.6,0.1,0.9
			c0.3,0.7,1.7,0.3,2.2,0.3c0.1,0,0.3-0.1,0.3-0.3c0,0,0,0,0,0c0-0.9,0.1-1.4,1.1-1.4c0.1,0,0.2-0.1,0.3-0.2
			C14.1,14.7,14.8,13.4,14,13z M13.7,15c-1.2,0-1.6,0.1-1.5,1.5c0,0.4-0.1,0.3-0.6,0.3s-0.8,0.1-0.9-0.4c0-0.4,0.1-0.8-0.2-1.1
			c-0.4-0.3-0.8-0.4-1.3-0.3c-0.5,0-0.3-0.1-0.3-0.7c0-0.8,0.3-0.7,1-0.8c0.1,0,0.2-0.1,0.3-0.2c0.1,0,0.1-0.1,0.1-0.2
			c0-0.9-0.4-2.6,1.2-2.5c0.5,0,0.4,0.3,0.4,0.7v1.9c0,0.1,0.1,0.3,0.3,0.3c0.5,0,1.1,0,1.6,0.1C14.3,13.6,13.3,15,13.7,15L13.7,15z
			"/>
	</g>
</g>
</svg>
