<?xml version="1.0" encoding="utf-8"?>
<!-- Generator: Adobe Illustrator 22.0.1, SVG Export Plug-In . SVG Version: 6.00 Build 0)  -->
<svg version="1.1" id="Layer_1" xmlns="http://www.w3.org/2000/svg" xmlns:xlink="http://www.w3.org/1999/xlink" x="0px" y="0px"
	 viewBox="0 0 36.9 17.4" style="enable-background:new 0 0 36.9 17.4;" xml:space="preserve">
<style type="text/css">
	.st0{fill:#010101;}
</style>
<title>Asset 5</title>
<g id="Layer_2_1_">
	<g id="Layer_1-2">
		<path class="st0" d="M36.2,7.9c-1.1-1.3-2.9-1.6-4.3-0.8c-0.2-2.1-1.4-3.6-3.7-3.5c-0.6,0-1.1,0.2-1.5,0.5
			c-1.7-1.8-3.9-3.1-6.3-3.8c-2.5-0.7-5.2-0.5-7.6,0.5c-4.6,1.7-7.7,6-7.9,10.9c-0.6-0.5-1.4-0.6-2.1-0.2c-1,0.5-1.5,1.8-1,2.8
			c-0.6,0-1.5,0.1-1.7,0.7c-0.3,0.9,0.4,1.5,1.2,1.6l0.1,0.1c0.8,0.4,1.7,0.6,2.5,0.4c1.5-0.2,3-0.2,4.4,0c2.5,0.2,5.6,0.5,8-0.5
			c1.5-0.6,1.3-2.6,0.4-3.6c-1.1-1.2-2.8-1.1-4.3-0.7c0.8-4.2,8.6-7.4,11-3.1c-0.4,0.2-0.8,0.5-1.1,0.9c-0.6,0.7-0.6,1.7-0.1,2.5
			c0,0.1,0.1,0.3,0.2,0.3c2.4,0.6,4.9,0.4,7.4,0.6c2,0.1,4.3,0.2,5.9-1.2C37,11.2,37.2,9.3,36.2,7.9z M21.9,5.3
			c-2.2-0.5-4.5-0.7-6.7-0.4c-3.4,0.5-5.9,2.7-5.8,6.2c-0.3-0.1-0.7-0.2-1-0.2c0-0.6,0.2-1.3,0.4-1.9c0.2-0.9,0.6-1.8,1.2-2.6
			C11,5,13,4.4,14.6,4c1.9-0.4,3.9-0.4,5.9-0.1c1.8,0.3,3.4,1.1,4.6,2.4c-0.1,0.2-0.2,0.3-0.3,0.5C24.3,5.7,23,5.6,21.9,5.3z
			 M24.6,7.4c0,0.1,0,0.2-0.1,0.4c-2.3-2.2-6.2-2.1-9.1-1.4c-2.7,0.6-4.8,2.8-5.1,5.6c-0.2-0.2-0.4-0.4-0.6-0.6
			c0-1.3,0.4-2.6,1.1-3.7c1.1-1.1,2.5-1.9,4-2.1c1.9-0.4,3.9-0.3,5.7,0.1c1.1,0.2,3.3,0.3,3.8,1.5C24.4,7.3,24.5,7.4,24.6,7.4z
			 M20.3,3.3C18,3,15.7,3.1,13.4,3.8c-2,0.4-3.6,1.7-4.6,3.4C8.4,8,8.2,8.9,8,9.8c-0.1,0.3-0.2,0.7-0.1,1.1C7.4,11,7,11.1,6.7,11.3
			c0.5-4.1,3.1-8,7.3-9c2.3-0.4,4.6-0.3,6.8,0.4c1.9,0.4,4.5,1.1,5.5,2.9c-0.2,0-0.5,0.1-0.7,0.3C24.2,4.4,22.3,3.5,20.3,3.3z
			 M12.7,1.5c2.2-0.9,4.6-1.2,6.9-0.7c2.5,0.5,4.7,1.7,6.5,3.6c-1.3-1-2.8-1.7-4.4-2c-2.4-0.7-4.9-0.9-7.4-0.6
			c-4.7,0.7-7.8,5.4-8,9.9C6,12,5.8,12.2,5.7,12.5l-0.3-0.3C5.5,7.5,8.4,3.3,12.7,1.5z M16.3,13.5c0.7,0.6,0.8,1.6,0.2,2.4
			c-0.1,0.2-0.3,0.3-0.5,0.4c-1.1,0.4-2.2,0.6-3.3,0.5c-1.9,0-3.7,0-5.6-0.2c-0.7-0.1-1.5-0.1-2.3-0.1c-1,0.3-2,0.3-3,0
			c0,0-0.1-0.1-0.1-0.1H1.6c0,0-0.1,0-0.1,0c-0.6-0.4-0.9-1.4,0-1.5c0.2,0,0.5,0,0.7,0c0.1,0,0.3-0.1,0.3-0.2c0,0,0-0.1,0-0.1
			c-0.5-1.1-0.3-2.2,1-2.6C4.3,11.7,5,12.5,5.6,13c0.1,0.1,0.3,0.1,0.4,0C6,13,6,13,6,12.9c0.4-1.2,1.7-1.8,2.9-1.4
			c0.8,0.3,1.4,1,1.5,1.9c0,0.1,0.2,0.2,0.3,0.2c0.4-0.2,0.8-0.3,1.2-0.5c0.1,0.1,0.2,0,0.3-0.1c0,0,0,0,0,0
			C13.6,12.5,15.2,12.6,16.3,13.5L16.3,13.5z M17.3,7.2c-2.2,0.7-5.3,2.8-5.4,5.4c-0.4,0.1-0.7,0.3-1,0.4c0-0.1,0-0.2-0.1-0.3
			c0-2.8,2-5.3,4.8-5.8c2.7-0.7,6.6-0.7,8.7,1.5c0,0,0.1,0.1,0.2,0.1c0,0.2,0,0.4,0,0.6c-0.2,0-0.3,0-0.5,0.1c0,0,0-0.1,0-0.1
			C22.7,6.7,19.6,6.4,17.3,7.2L17.3,7.2z M33.3,12.9c-1.6,0.2-3.1,0.2-4.7,0c-2-0.2-3.9,0-5.9-0.5h-0.1c-0.4-0.6,0-1.4,0.3-2
			s1.3-0.8,2-0.8c0.1,0,0.3-0.1,0.3-0.3v0V9.2c-0.2-0.3-0.2-0.7-0.2-1.1c0-0.7,0.3-1.5,0.8-2c0.5-0.5,1.1-0.8,1.8-0.8l-0.2-0.9
			c0.3-0.1,0.7-0.2,1-0.2c0.5,0,1.1,0,1.6,0.3c1.2,0.5,1.5,2,1.5,3.1c0,0.2,0.1,0.3,0.3,0.3c0,0,0.1,0,0.1,0c1.7-1,3.8-0.7,4.4,1.3
			S34.9,12.6,33.3,12.9L33.3,12.9z"/>
	</g>
</g>
</svg>
