<?xml version="1.0" encoding="utf-8"?>
<!-- Generator: Adobe Illustrator 22.0.1, SVG Export Plug-In . SVG Version: 6.00 Build 0)  -->
<svg version="1.1" id="Layer_1" xmlns="http://www.w3.org/2000/svg" xmlns:xlink="http://www.w3.org/1999/xlink" x="0px" y="0px"
	 viewBox="0 0 20.6 20.4" style="enable-background:new 0 0 20.6 20.4;" xml:space="preserve">
<style type="text/css">
	.st0{fill:#010101;}
</style>
<title>Asset 12</title>
<g id="Layer_2_1_">
	<g id="Layer_1-2">
		<path class="st0" d="M20.4,15.4c-0.1-1,0.1-2,0.1-3c0-1.9-0.3-3.7-0.2-5.6c0.1-1.1-0.3-2.1-1.1-2.8c-0.9-0.6-2.3-0.3-3.3-0.3
			c-0.1,0-0.2,0-0.2,0.1c0-0.5-0.1-1.1-0.2-1.6c-0.2-1.2-1.2-2.1-2.4-2C10.7,0,7-0.5,5.3,1.5l0,0c-0.1,0-0.2,0.1-0.2,0.3
			c0,0.9,0.1,1.7,0.3,2.6C5.4,4.3,5.3,4.3,5.3,4.3c-1.2,0.1-4.8-0.9-5,1.2C0.3,6.7,0.6,7.8,0.4,9c-0.1,1-0.3,2.1-0.4,3.1
			c0,1.2,0,2.4,0.1,3.6c-0.1,0.8-0.1,1.7,0,2.5c0.3,1.4,1.5,1.8,2.7,2c1.9,0.3,3.8,0.3,5.6,0.1c2.6-0.3,1.9-3.3,1.7-5.1h1
			c0.2,2,0.6,4.4,3,4.7c1.5,0.2,3.1,0.2,4.7-0.1c1-0.1,1.8-1,1.8-2C20.6,17,20.5,16.2,20.4,15.4z M15.6,7.5c0-0.8,0-1.6,0-2.4h0.1
			c0.6,0,1.2,0,1.7,0.1c1.3,0.3,1.4,1.4,1.5,2.5c0.2,2,0.2,4,0.1,5.9c0,0.9,0,1.9,0.1,2.8c0.1,1.5-1.9,1.1-2.7,1.1h-3.1
			c-0.5,0-0.6-1.8-0.7-2.1c0,0,0-0.1,0-0.1c0.4,0,0.8,0,1.3-0.1c0.9-0.1,1.6-0.7,1.9-1.6C16.2,11.7,15.7,9.4,15.6,7.5z M16.4,18.5
			c-0.1,0-0.1,0.1-0.2,0.1c-0.2,0.1-0.3,0.1-0.5,0l0,0l0,0C15.9,18.5,16.2,18.4,16.4,18.5L16.4,18.5z M7.5,19.8
			c-1.3,0-2.6-0.1-3.8-0.1c-1,0-2.5-0.2-3-1.3c-0.1-0.7-0.1-1.5,0-2.2c-0.1-1.7-0.1-3.3,0-5C0.9,9.9,1,8.6,0.9,7.3
			C0.9,6.6,0.6,5.6,1,5.1s1.2-0.4,1.7-0.3c0.9,0,1.7,0.2,2.6,0.1c0.1,0,0.2-0.1,0.2-0.2v0.2c0.1,1.3,0.1,2.6-0.1,3.8
			c-0.1,1-0.1,2,0,3.1c0.1,0.8,0.1,1.7,0,2.5l0,0v0.6c0.9,0.5,2,0.7,3,0.5c0,0.5,0.3,2.8-0.3,2.8c-1,0-2.1-0.1-3.1-0.1
			c-0.8,0-1.6,0-2.4-0.1C1.3,17.7,1.8,16,1.8,15c0-2.1,0.1-4.2,0.3-6.3c0-0.3,0-2.7,0.3-2.7c1-0.1,2-0.2,3-0.2c0.3,0,0.3-0.5,0-0.5
			C4.2,5.2,3.1,5.4,2,5.5c-0.1,0-0.3,0.1-0.3,0.3c0,2-0.2,3.9-0.3,5.8c-0.1,1-0.1,1.9-0.1,2.9c-0.1,0.9-0.1,1.8,0,2.7
			c0.3,0.9,1,1.2,1.9,1.3c1.8,0.2,3.8,0.2,5.6,0.2c0.1,0,0.2-0.1,0.3-0.2c0.1-1.1,0.1-2.1,0-3.2l0.7-0.1c0.1,0.8,0.2,1.5,0.2,2.3
			C10,19.2,9.2,19.8,7.5,19.8L7.5,19.8z M10,14.7c-1.4,0.1-2.8,0.4-4-0.2l0,0c0.1-0.7,0.1-1.3,0-2c-0.1-1.4-0.1-2.8,0-4.2
			c0.1-1,0.1-2,0.1-3C6,4.2,5.7,3.1,5.6,1.9c0,0,0,0,0.1,0c1.4-1.7,4.2-1.2,6.1-1.2H13c1.5,0,1.9,1.1,2,2.3c0.1,1.5,0,3,0.1,4.4
			s0.2,3.1,0.3,4.6c0.1,1.8-0.6,2.6-2.4,2.7C12,14.8,11,14.6,10,14.7z M19.4,19.1c-0.9,0.6-2.8,0.3-3.8,0.3c-1.5,0-2.8,0-3.4-1.6
			c-0.3-0.8-0.5-1.7-0.5-2.6h0.6c-0.1,0.1-0.1,0.2-0.1,0.3c0.2,0.7,0.4,1.5,0.5,2.2c0,0.1,0.1,0.3,0.3,0.3h2.7
			c-0.2,0.1-0.5,0.2-0.7,0.3c-0.3,0.2,0,0.7,0.3,0.5h0.1c0,0.1,0,0.2,0.1,0.2c0.4,0.4,1.8,0.2,1.6-0.5c0-0.2-0.1-0.3-0.3-0.4H17
			c0.7,0.1,1.5,0.1,2.2-0.2c0.4-0.3,0.6-0.9,0.5-1.4c0-1.3-0.1-2.5-0.1-3.8s0-2.6-0.1-3.9c0-0.9-0.1-1.8-0.4-2.7
			c-0.7-1.3-2.2-1.4-3.5-1.4h-0.1V4c0,0.1,0.1,0.2,0.2,0.2c0.8,0,1.5,0,2.3,0.1c1.7,0.2,1.6,2.1,1.5,3.4c0,1.2,0,2.5,0.2,3.7
			c0.1,1.3,0,2.7,0,4C19.8,16.5,20.6,18.2,19.4,19.1L19.4,19.1z"/>
		<path class="st0" d="M15,11c-0.1-2.1-0.2-4.3-0.5-6.5c-0.1-1.3,0.1-3-1.5-3.3c-0.6-0.1-1.3-0.1-1.9,0c-1.3,0-2.6,0.1-3.9,0.3
			C7.1,1.4,7,1.5,7,1.6C6.7,1.4,6.4,1.8,6.7,2s0.1,1.6,0.1,1.9c0,0.8-0.1,1.6-0.1,2.4c0,0.7,0,1.4,0.1,2.1c0.2,1.5,0.1,3.1,0.2,4.6
			c0,0.1,0.1,0.3,0.3,0.3l3.6-0.1c0.9-0.1,1.7-0.1,2.6,0c0,0.1,0.2,0.2,0.3,0.2C15,13.1,15.1,12.1,15,11z M13.8,12.8L13.8,12.8
			c-0.4-0.2-0.9-0.2-1.4-0.2l-3.2,0.1c-0.5,0-1,0-1.6,0s-0.3-1.2-0.3-1.5c0-1.3-0.1-2.6-0.3-3.8c0-1.1,0-2.2,0.1-3.3
			c0.1-0.7,0.1-1.3,0-2c0.1,0,0.2-0.1,0.2-0.2c0,0,3.6-0.1,4-0.1c0.9,0,2.3-0.4,2.4,1.1C13.9,3.5,14,4.3,14.1,5
			c0.2,1.4,0.1,2.9,0.2,4.4C14.4,10.3,15,12.3,13.8,12.8L13.8,12.8z"/>
		<path class="st0" d="M10.5,13.3c-0.4,0-0.8,0.1-1.1,0.3c-0.1,0.1-0.1,0.3,0,0.4c0,0,0.1,0.1,0.2,0.1c0,0.1,0,0.1,0.1,0.1
			c0.4,0.5,1.6,0.6,1.7-0.2C11.3,13.5,10.8,13.3,10.5,13.3z M10.6,14c-0.1,0-0.2,0-0.3,0c-0.1,0-0.3-0.1-0.4-0.2
			C10.3,13.8,10.7,13.8,10.6,14C10.7,14,10.7,14,10.6,14z"/>
		<path class="st0" d="M5.6,19c0-0.1-0.1-0.2-0.2-0.2c-0.2-0.1-0.4-0.1-0.6-0.1c-0.1,0-0.2,0.1-0.2,0.2c0,0,0,0,0,0
			c-0.2-0.1-0.5,0-0.4,0.3c0.1,0.3,0.5,0.5,0.8,0.5c0.3,0,0.6-0.2,0.6-0.6C5.6,19.1,5.6,19.1,5.6,19z"/>
	</g>
</g>
</svg>
