<?xml version="1.0" encoding="utf-8"?>
<!-- Generator: Adobe Illustrator 22.0.1, SVG Export Plug-In . SVG Version: 6.00 Build 0)  -->
<svg version="1.1" id="Layer_1" xmlns="http://www.w3.org/2000/svg" xmlns:xlink="http://www.w3.org/1999/xlink" x="0px" y="0px"
	 viewBox="0 0 26 24.1" style="enable-background:new 0 0 26 24.1;" xml:space="preserve">
<style type="text/css">
	.st0{fill:#010101;}
</style>
<title>Asset 9</title>
<g id="Layer_2_1_">
	<g id="Layer_1-2">
		<path class="st0" d="M26,7.3c-0.1-0.4-0.4-0.7-0.8-0.8c-0.1,0-0.2,0-0.3,0c0.1-0.3,0.2-0.6,0.3-0.9c0-0.1,0-0.3-0.2-0.3
			s-0.3,0-0.3,0.2l0,0c0,0.4-0.2,0.8-0.5,1.1c0,0-0.1,0.1-0.1,0.1l-0.3,0.1c0.1-0.4,0.3-0.8,0.5-1.1c0.2-0.3-0.1-0.6-0.4-0.4
			c-0.4,0.4-0.4,1.1-0.8,1.5c-0.1,0.1-0.1,0.2,0,0.2l-0.3,0.1c0.2-0.5,0.4-1,0.5-1.5c0-0.1,0-0.3-0.2-0.3c-0.1,0-0.3,0-0.3,0.2
			c-0.1,0.5-0.4,1-0.5,1.6c0,0.1,0,0.2,0.1,0.3l-0.3,0.1c0-0.4,0.1-0.8,0.2-1.2C22.6,6.1,22.1,6,22,6.3c-0.2,0.5-0.3,1-0.3,1.5l0,0
			C20.2,8.4,18.6,9,17,9.4c-0.6,0.2-1.1,0.3-1.7,0.5c-0.1-2.2,0-4.5-1-6.6c-1-2.2-3.4-3.5-5.8-3.2H8.4L8.3,0C1.9-0.6,0.4,6.6,0,11.4
			c-0.4,5.5,2.3,13.1,9,12.7c0.1,0,0.2-0.1,0.2-0.2c0.3,0,0.7,0,1,0c2.3-0.2,3.9-2.6,4.6-4.6c0.9-2.7,0.4-5.7,0.6-8.5
			c0-0.1-0.1-0.2-0.2-0.2c0,0,0,0,0,0v-0.1c0.5-0.1,1-0.3,1.4-0.4c1.7-0.5,3.4-1,5-1.6c0,0,0.1,0.1,0.1,0.1c0.5,0.1,0.9,0.6,1.4,0.8
			c0.1,0,0.3-0.1,0.3-0.2c0-0.1-0.1-0.2-0.2-0.3c-0.4-0.2-0.7-0.4-1-0.6L23,7.9l0.1,0.1c0.5,0.2,0.8,0.5,1.3,0.6
			c0.1,0,0.3-0.1,0.3-0.2c0-0.1-0.1-0.2-0.2-0.3c-0.3-0.1-0.6-0.3-0.9-0.5l0.5-0.2c0.1,0.1,0.2,0.2,0.3,0.2c0.3,0.2,0.6,0.3,1,0.4
			c0.2,0,0.3-0.1,0.2-0.3c0.1,0.1,0.3,0,0.3-0.1C26,7.5,26,7.4,26,7.3z M0.5,11.8C0.7,7.6,1.9,1.2,6.7,0.6C2.5,2.5,1.7,8.7,2,12.8
			c0.3,3.6,2,9.3,5.8,10.7C2.4,23,0.4,16.6,0.5,11.8z M10.9,23.2c-2.3,0.9-4.7-1.1-6-2.8c-1.4-2.1-2.2-4.6-2.4-7.2
			C2,8.7,2.9,2.4,7.9,0.7c2.7-0.9,5.3,1.1,6.2,3.5c0.7,1.8,0.6,3.9,0.7,5.9l-0.7,0.2V10c0.4-3.5-0.6-8-4.8-7.7c0,0,0-0.1,0-0.1V1.6
			c0-0.1-0.1-0.3-0.3-0.3S8.7,1.5,8.7,1.6v0.6c0,0.1,0,0.2,0.1,0.2l0,0C7,2.2,5.7,3.6,4.8,5c-1.1,2-1.7,4.3-1.6,6.6l-0.1-0.1
			c-0.3-0.1-0.4,0.2-0.4,0.4c0,0.1,0.1,0.2,0.2,0.3c0,0,0.1,0,0.1,0c0.1,0,0.1,0,0.2,0c0,0.2,0,0.3,0,0.5c0.1,2.2,0.8,4.3,2.1,6
			c0.9,1.3,2.4,3.1,4.2,3.2c2,0.1,3.1-1.8,3.6-3.4c0.9-2.4,0.7-5.1,0.9-7.6l0.8-0.3l0.1,0.7c0,0.1,0,0.1,0.1,0.2
			C14.9,15.6,15.6,21.5,10.9,23.2z M10.9,7.6C10.2,6.7,9,6.5,8,6.9C6.9,7.5,6.2,8.6,6,9.8c-0.6,2-0.7,5.6,1,7.1c0.9,0.7,2,0.8,3,0.2
			c1.2-0.6,1.5-2.2,1.7-3.4c0.1-0.8,0.2-1.5,0.2-2.3l0.8-0.2c0,2.4-0.4,5.7-2.3,7.1c-2.6,1.8-4.6-2.6-5.1-4.4
			c-0.4-1.5-0.5-3-0.1-4.5c0.5-1.8,2.7-5,4.9-3.9c0,0.1,0.1,0.2,0.2,0.2c0,0,0,0,0,0c2.1-0.2,2.3,3.6,2.3,5v0.1L11.8,11
			c0-0.3,0-0.6,0-0.8C11.9,9.3,11.9,7.9,10.9,7.6L10.9,7.6z M8.9,11.4c0,0-0.1,0-0.1,0.1c-0.1-0.2,0-0.4,0.1-0.6
			c0.2-0.2,0.2,0.4,0.2,0.5c0,0,0,0,0,0.1L8.9,11.4z M9,11.9c0,0.1-0.1,0.3-0.1,0.4c-0.1-0.2-0.2-0.4-0.2-0.6l0,0
			c0,0.1,0.1,0.2,0.2,0.2L9,11.9z M8.6,10.5c-0.1,0.1-0.1,0.1-0.2,0.2c-0.1,0-0.3,0.1-0.3,0.2c0,0,0,0,0,0c0,0.7,0,1.6,0.6,2
			C8.8,13,9,13,9.1,12.9c0.2-0.3,0.4-0.6,0.5-1l0.7-0.1v0.1c0,0.6-0.1,1.2-0.2,1.8c-0.4,1.1-1.6,1.6-2.4,0.6S7,8.3,9.2,9.2
			c0.1,0,0.3,0,0.3-0.1c0.7,0.1,0.8,1.4,0.8,2.2l-0.6,0.1c0-0.2,0-0.5-0.1-0.7c-0.2-0.3-0.5-0.4-0.8-0.3C8.7,10.4,8.7,10.4,8.6,10.5
			L8.6,10.5z M9.3,8.6c-0.1,0-0.1,0-0.1,0.1c-2.7-0.8-3.4,5.3-1.4,6.5c1.8,1.1,2.9-1.2,3-2.6c0-0.2,0.1-0.5,0.1-0.8l0.5-0.1
			c-0.1,0.6-0.1,1-0.1,1.3c-0.1,1.9-1.1,5.3-3.8,3.8c-1.4-0.8-1.2-3.4-1.2-4.9h0.1c0.1,0,0.3-0.1,0.3-0.3c0-0.1-0.1-0.3-0.3-0.3H6.2
			c0.1-0.9,0.3-1.8,0.7-2.6c0.5-1.1,2.8-2.4,3.6-0.8c0,0,0,0.1,0.1,0.1c0,0,0.1,0,0.1,0.1c0.7,0.2,0.8,1.7,0.7,3l-0.5,0.1
			C10.8,9.9,10.5,8.4,9.3,8.6L9.3,8.6z M10.4,5.2C10.4,5.2,10.3,5.1,10.4,5.2C8.6,4.2,7,5.5,5.8,6.8c-1.2,1.6-1.8,3.6-1.5,5.6
			c0.2,2.4,1.8,6.7,4.7,6.8c1.4,0,2.6-1.4,3.1-2.6c0.6-1.8,0.9-3.6,0.9-5.5l0.5-0.2c-0.1,1.4-0.2,2.8-0.3,4.2
			c-0.1,2.1-0.7,5.5-3.1,6.1C8.6,21.8,7,20,6.1,18.9c-1.3-1.5-2.1-3.4-2.3-5.4c-0.2-2.2,0-4.4,0.7-6.5C5.1,5.2,6.7,2.5,9,3
			c0.1,0,0.2,0,0.3-0.1c3.7-0.3,4.6,3.5,4.4,6.6c0,0.3,0,0.7-0.1,1l-0.5,0.2C13.1,8.8,12.6,5.2,10.4,5.2L10.4,5.2z M25.3,7.4L25,7.2
			l-0.2-0.1C25,7,25.3,7.1,25.4,7.3c0,0,0,0.1,0.1,0.1L25.3,7.4z"/>
	</g>
</g>
</svg>
