<?xml version="1.0" encoding="utf-8"?>
<!-- Generator: Adobe Illustrator 22.0.1, SVG Export Plug-In . SVG Version: 6.00 Build 0)  -->
<svg version="1.1" id="Layer_1" xmlns="http://www.w3.org/2000/svg" xmlns:xlink="http://www.w3.org/1999/xlink" x="0px" y="0px"
	 viewBox="0 0 21.4 26.2" style="enable-background:new 0 0 21.4 26.2;" xml:space="preserve">
<style type="text/css">
	.st0{fill:#010101;}
</style>
<title>Asset 46</title>
<g id="Layer_2_1_">
	<g id="Layer_1-2">
		<path class="st0" d="M15.9,7.9c-1.3-1.1-2.8-1.8-4.5-1.9c0-0.1,0-0.2,0-0.4c0.5,0,1.1,0,1.7-0.1c0.1,0,0.2-0.1,0.2-0.2
			c0.2-0.7,0.2-1.5-0.2-2.2c-0.3-0.5-1.4-0.4-2-0.4c-0.8,0-2.2-0.2-2.8,0.3s-0.4,1.4-0.3,2c0,0.1,0.1,0.2,0.2,0.2
			c0.5,0.1,1,0.2,1.5,0.2c0,0.1,0.1,0.1,0.1,0.1l0.2,0.2c0,0.2,0,0.2,0.1,0.4C8.6,6.3,6.9,7,5.7,8.2c0-0.1-0.1-0.2-0.2-0.2l0,0
			c0.2-0.5,0-0.9-0.4-1.2C5,6.7,4.8,6.7,4.7,6.7C4.1,6.7,3.2,7.3,3.1,8C3.2,8.5,3.5,8.9,4,9C4,9,4,9.1,4.1,9.1
			C4.2,9.3,4.5,9.2,4.5,9h0.1c0.1,0,0.1-0.1,0.2-0.2l0,0c0.1,0,0.2,0.1,0.2,0.1C4.7,9,4.7,9.1,4.6,9.3c-2.3,2.8-3.2,7.5-1.1,10.6
			C4.9,22,7.3,23,9.8,23.3c2.4,0.5,5-0.3,6.7-2.1C20.3,17.6,19.6,11.2,15.9,7.9z M12.4,3.4L12.4,3.4c0.2,0.6,0.3,1.3,0.3,1.9h-0.6
			l0,0C12,4.9,12,4.6,12,4.2c0-0.3-0.1-0.5-0.2-0.8c0,0,0,0,0-0.1C12,3.3,12.3,3.4,12.4,3.4z M8.8,5L8.8,5C8.4,5,8.4,4.1,8.4,3.9
			c0-0.2,0.2-0.4,0.4-0.5C8.7,3.9,8.7,4.5,8.8,5z M9.2,5c0-0.2,0-0.5,0-0.8c0-0.3,0-0.3,0-0.5c0-0.1,0-0.2,0-0.2l0,0
			c0.1-0.1,0.1-0.2,0.1-0.2c0.2,0,0.3,0,0.4-0.1V5V5H9.2z M11.6,3.3c-0.1,0.1-0.2,0.2-0.1,0.3l0,0c0.2,0.2,0.1,0.6,0.1,0.9
			s0,0.5,0.1,0.8h-0.5c0.1,0,0.2-0.2,0.2-0.2c0,0,0,0,0-0.1c-0.1-0.2-0.2-0.5-0.1-0.8c0-0.2,0-0.5,0-0.7c0-0.1-0.1-0.2-0.2-0.2
			s-0.2,0.1-0.2,0.2v0.1c-0.1,0.5-0.1,1.1,0.2,1.6l0.1,0.1h-0.5C10.8,5.1,10.8,5,10.8,5c-0.2-0.5-0.2-1.1-0.1-1.6
			c0-0.1,0-0.1-0.1-0.2C11,3.2,11.4,3.3,11.6,3.3z M11,5.8L11,5.8c0,0.1,0,0.2,0,0.2h-0.3c0,0,0,0,0-0.1c-0.1-0.1-0.1-0.2-0.1-0.3
			h0.3C11,5.7,11,5.7,11,5.8z M10.1,5.1L10.1,5.1V3.2h0.2c0,0-0.1,0.1-0.1,0.2c-0.1,0.5,0,1.2,0.1,1.7H10.1z M4.1,8.6
			C4,8.6,3.8,8.5,3.7,8.3C3.5,8.2,3.5,8,3.6,7.9c0,0,0,0,0.1,0.1l0,0l0,0c0.1,0,0.1,0,0.2,0h0.1l0,0L4,8c0.2,0.2,0.2,0.3,0.2,0.4
			L4.1,8.6z M4.7,7.4c-0.1,0-0.2,0-0.2,0.1H4.4C4.3,7.4,4,7.4,3.9,7.5c0.4-0.4,1.2-0.7,1.3,0c0,0.1,0,0.2-0.1,0.3l0,0
			C5.1,7.5,4.9,7.4,4.7,7.4z M4.9,8.5L4.9,8.5C5,8.4,5.1,8.3,5.2,8.2c0,0,0.1,0.1,0.2,0.1c0,0-0.1,0,0,0v0.1v0.1L5.2,8.6
			C5.1,8.6,5,8.6,4.9,8.5L4.9,8.5z M16.4,20.5c-0.2,0.2-0.3,0.3-0.5,0.5c-0.1,0-0.2,0.1-0.2,0.2l0,0l0,0c-0.5,0.5-1.2,0.9-1.8,1.2
			c-1.3,0.5-2.7,0.6-4.1,0.4c-2.3-0.1-4.5-1.3-5.9-3.3c-1.8-2.9-0.9-6.8,0.9-9.4c2.1-3.4,6.6-4.3,9.9-2.2C15,7.9,15.2,8,15.4,8.2
			c2,1.6,3.2,4.1,3.2,6.7C18.5,17,17.7,19,16.4,20.5z"/>
		<path class="st0" d="M16.6,11.7c-0.7,0.4-1.3,0.9-2.1,1.2c-0.9,0.5-2,0.9-3,1.2h-0.1c-0.2-0.2-0.5-0.4-0.9-0.3
			c-0.5,0.2-0.9,0.6-0.8,1.2c0,0.2,0.2,0.4,0.3,0.5c0.4,0.2,0.9,0.2,1.3-0.2c0.2-0.2,0.4-0.5,0.3-0.9c0.9-0.2,1.7-0.5,2.5-0.9
			c0.9-0.4,1.8-0.9,2.7-1.4C17,11.9,16.8,11.6,16.6,11.7z M10.6,15c0.1-0.1,0.2-0.1,0.2-0.2l0.1,0.1C10.9,15,10.6,15.1,10.6,15z
			 M11,14.4c0-0.1-0.1-0.1-0.2-0.1c-0.1,0-0.2,0-0.2,0.1l0,0c-0.2,0.1-0.3,0.2-0.3,0.5v0.1c0,0.1,0,0.1,0,0.2V15
			c0-0.1,0-0.1-0.1-0.2l0,0C10.2,14.4,10.7,14,11,14.4c0.2,0,0.2,0,0.3,0.2C11.2,14.4,11.1,14.4,11,14.4z"/>
		<path class="st0" d="M9.5,14.9c0-0.2-0.2-0.2-0.2-0.2c-0.1,0-0.1,0-0.1,0.1c-0.1,0-0.1,0.1-0.2,0.1S8.9,15,8.8,15.1
			c-0.2,0.1-0.3,0.2-0.5,0.2c-0.1,0.1-0.2,0.2-0.1,0.2c0,0.1,0.2,0.2,0.2,0.2c0.3-0.2,0.7-0.2,1.1-0.3c0.2,0,0.2-0.1,0.2-0.2
			C9.8,15.1,9.6,14.9,9.5,14.9z"/>
		<path class="st0" d="M11,8.6V8.2c0.1-0.1,0.1-0.2,0.1-0.3c0,0,0,0-0.1-0.1V7.5c0-0.1-0.2-0.2-0.2-0.2c-0.1,0-0.2,0.1-0.2,0.2v0.6
			c0,0.2,0,0.4,0,0.6c0,0.1,0.2,0.2,0.2,0.2C10.9,8.8,11,8.7,11,8.6z"/>
		<path class="st0" d="M10.4,20.8v-0.2c0-0.1-0.1-0.2-0.2-0.2c-0.1,0-0.2,0.1-0.2,0.2c-0.1,0.3-0.2,0.6-0.1,0.9
			c0,0.1,0.1,0.2,0.2,0.2c0,0,0,0,0.1,0c0.1,0,0.2,0,0.2-0.2c0,0,0,0,0-0.1c0-0.2,0.1-0.4,0.1-0.6C10.5,20.9,10.5,20.8,10.4,20.8z"
			/>
		<path class="st0" d="M4.7,14.9h0.2c0.1,0,0.2-0.1,0.2-0.2c0-0.1-0.1-0.2-0.2-0.2c-0.2,0-0.5-0.1-0.8-0.1c-0.2,0.1-0.2,0.2-0.2,0.2
			v0.1c0,0.1,0,0.2,0.1,0.2c0.2,0.1,0.3,0.2,0.5,0.2C4.5,15.1,4.6,15.1,4.7,14.9C4.7,15,4.7,15,4.7,14.9z"/>
		<path class="st0" d="M18,14.2h-0.2c0-0.1-0.1-0.1-0.2-0.1c-0.2,0-0.5,0-0.8,0.2c-0.1,0.1-0.2,0.2-0.1,0.2c0,0.1,0.1,0.1,0.1,0.1
			c0,0.1,0.1,0.2,0.2,0.2h1c0.1,0,0.2-0.1,0.2-0.2l0,0v-0.1C18.2,14.4,18.1,14.2,18,14.2z"/>
		<path class="st0" d="M6.5,9.5C6.4,9.4,6.2,9.6,6.3,9.7c0,0.1,0,0.2,0.1,0.2C6.4,10,6.5,10,6.5,10c0,0.1,0.1,0.2,0.2,0.2
			c0.1,0.1,0.2,0.1,0.2,0l0.1-0.1c0,0.1,0,0.2,0.1,0.2c0.1,0.1,0.2,0.1,0.3,0c0.1-0.1,0.1-0.2,0-0.3l0,0C7.1,9.8,6.9,9.7,6.5,9.5z"
			/>
		<path class="st0" d="M6.1,19.3L6.1,19.3c-0.1,0-0.2,0-0.2,0.1l-0.1,0.1l0,0l-0.2,0.1c-0.1,0-0.1,0.1-0.1,0.2l-0.1,0.1
			c-0.1,0.1,0,0.2,0.1,0.3c0.1,0,0.1,0,0.2,0c0.1,0,0.2,0,0.2,0V20l0,0l0,0l0.1-0.1c0.1-0.2,0.2-0.2,0.3-0.4
			C6.6,19.4,6.3,19,6.1,19.3z"/>
		<path class="st0" d="M15.8,19.4c-0.1,0-0.2,0-0.2,0c0-0.1-0.1-0.1-0.1-0.2c-0.2-0.1-0.2-0.2-0.4-0.2c0-0.2-0.2-0.3-0.3-0.2
			c-0.4,0.2-0.1,0.5,0.2,0.7c0.2,0.2,0.5,0.2,0.8,0.2c0.1,0,0.2-0.1,0.2-0.2C15.9,19.4,15.9,19.4,15.8,19.4L15.8,19.4z"/>
		<path class="st0" d="M14.3,10.2h0.4c0.1,0,0.2-0.1,0.2-0.2V9.9l0.3-0.2c0.2-0.2-0.1-0.4-0.2-0.3c-0.1-0.1-0.2-0.1-0.2,0
			c-0.2,0.2-0.4,0.3-0.5,0.5C14.1,10,14.1,10.1,14.3,10.2C14.2,10.1,14.3,10.2,14.3,10.2z"/>
		<path class="st0" d="M8.3,9c0.1,0.2,0.5,0.2,0.4-0.1S8.5,8.4,8.5,8.2c0-0.1-0.1-0.2-0.2-0.2C8.2,7.9,8,8,8,8.2v0.2
			c0,0.1,0,0.1,0.1,0.2C8.2,8.6,8.3,8.8,8.3,9z"/>
		<path class="st0" d="M5.6,12.6c-0.2-0.2-0.4-0.2-0.6-0.3c-0.1,0-0.2,0-0.2,0.2l0,0c0,0.1,0,0.2,0.2,0.2H5h0.1
			c0.1,0.1,0.2,0.1,0.3,0.2C5.5,13,5.8,12.7,5.6,12.6z"/>
		<path class="st0" d="M5.1,17.2L5.1,17.2H5l-0.3,0.1c-0.1,0-0.3,0-0.4,0.1s-0.1,0.2,0,0.2c0.1,0.2,0.2,0.2,0.3,0.2h0.1h0.2
			c0.2,0,0.3-0.1,0.5-0.2C5.6,17.4,5.4,17.1,5.1,17.2z"/>
		<path class="st0" d="M8.3,20.5c-0.2,0.2-0.4,0.5-0.4,0.9c0,0.1,0.2,0.2,0.2,0.2s0.2-0.1,0.2-0.2c0-0.2,0.1-0.4,0.2-0.5
			C8.7,20.7,8.4,20.4,8.3,20.5z"/>
		<path class="st0" d="M13.7,20.2c-0.1,0-0.2,0-0.2,0.2c0,0.1,0,0.2,0.1,0.2c0.1,0.1,0.2,0.2,0.2,0.2c0.1,0.2,0.2,0.2,0.2,0.4
			c0.1,0.2,0.5,0,0.3-0.2C14.1,20.8,13.9,20.4,13.7,20.2z"/>
		<path class="st0" d="M17.5,16.9c-0.3,0-0.5-0.1-0.8-0.1c-0.1,0-0.2,0.2-0.2,0.2c0,0.1,0.1,0.2,0.2,0.2c0.3,0,0.5,0.1,0.8,0.1
			c0.1,0,0.2-0.2,0.2-0.2C17.7,16.9,17.6,16.9,17.5,16.9z"/>
		<path class="st0" d="M13.2,8.9c0.2-0.2,0.3-0.4,0.5-0.5s0-0.5-0.2-0.3c-0.3,0.2-0.5,0.4-0.7,0.7C12.7,8.9,13.1,9.1,13.2,8.9z"/>
		<path class="st0" d="M11.7,16.9c-0.5-0.1-1.2-0.1-1.7-0.1l0,0c-0.1,0-0.2,0.1-0.2,0.2v0.5c0,0.1,0.1,0.2,0.2,0.2h0.1l0,0
			c0.5,0.2,1.1,0.1,1.5,0.4c0.1,0.1,0.2,0,0.3-0.1v-0.1v-0.8C11.9,16.9,11.9,16.9,11.7,16.9L11.7,16.9z M11.5,17.6
			c-0.4-0.1-0.8-0.2-1.3-0.2h-0.1v-0.2c0.5,0,0.9,0.1,1.3,0.1C11.5,17.2,11.5,17.6,11.5,17.6z"/>
	</g>
</g>
</svg>
