<?xml version="1.0" encoding="utf-8"?>
<!-- Generator: Adobe Illustrator 22.0.1, SVG Export Plug-In . SVG Version: 6.00 Build 0)  -->
<svg version="1.1" id="Layer_1" xmlns="http://www.w3.org/2000/svg" xmlns:xlink="http://www.w3.org/1999/xlink" x="0px" y="0px"
	 viewBox="0 0 22.8 21.7" style="enable-background:new 0 0 22.8 21.7;" xml:space="preserve">
<style type="text/css">
	.st0{fill:#010101;}
</style>
<title>Asset 48</title>
<g id="Layer_2_1_">
	<g id="Layer_1-2">
		<path class="st0" d="M22.6,13.6c0-2.2-0.2-4.4-0.5-6.6c0-0.1,0-0.1,0-0.2c-1-2.3-3.9-2.4-5.9-3.5s-3.5-2.7-5.7-3.3
			S6.3,1.6,4.7,2.9C3.4,4,2.2,5.1,1,6.3C0.6,6.6,0.3,7.1,0.1,7.5c-0.3,0.6,0,1.2,0.1,1.8c0,0,0,0.1,0,0.1c-0.1,1.7,0.5,3.6,0.6,5.3
			s-0.1,3.6,1,5c1,1.2,2.6,1.9,4.2,1.7c1,0,2-0.1,3-0.1c0.3,0,0.5,0,0.8,0l0.3,0.4c0.1,0.1,0.3,0.2,0.4,0.1c0.1,0,0.1-0.1,0.1-0.2
			v-0.1c0-0.1,0-0.1,0-0.2c0.7,0,1.3,0.1,2,0.1c2.1-0.1,4-0.9,6.1-0.9c1.5,0,2.9-0.4,3.7-1.7S22.7,15.1,22.6,13.6z M0.6,7.4
			c0.3-0.5,0.8-1,1.3-1.4c0.9-0.8,1.8-1.7,2.8-2.5c2-1.8,4.1-3.9,6.9-2.6c1.7,0.8,3.1,2.2,4.8,3.1c0.8,0.4,1.6,0.7,2.4,0.9
			c0.8,0.3,1.6,0.7,2.2,1.3c0,0,0,0.1,0,0.2c0.3,1.1-2.2,3.1-2.9,3.7s-1.2,1-1.8,1.4c0-0.1,0-0.2-0.1-0.3c-0.9-0.8-1.7-1.7-2.5-2.6
			c-0.5-0.8-1.2-1.5-2-2c-0.1-0.1-0.2-0.1-0.3,0c-0.4,0.5-0.8,1.1-1.1,1.7C9.8,8.2,9.2,8.1,8.6,8C8.5,8,8.4,8.1,8.4,8.2
			c-0.2,1.1-1,2-1.4,3.1l0,0c-1.1-0.5-2.1-1-3.2-1.5C2.7,9.4,1.7,8.9,0.6,8.4c0,0-0.1,0-0.2,0c0,0,0,0,0,0C0.5,8.1,0.5,7.7,0.6,7.4
			L0.6,7.4z M8.8,8.5C9.2,8.6,9.7,8.8,10.1,9c-0.4,1-1,1.9-1.6,2.8c0,0,0,0.1,0,0.1l-1.1-0.4C8,10.5,8.4,9.5,8.8,8.5L8.8,8.5z
			 M7.6,20.7c-1.9,0-3.7,0.4-5.2-1.1c-1.3-1.3-1-3.7-1.1-5.4s-0.8-3.5-0.6-5.2c0-0.1-0.1-0.2-0.2-0.2c0,0,0,0,0,0V8.6l0,0
			c0.7,0.6,1.5,1,2.4,1.3c1.1,0.5,2.2,1.1,3.3,1.6s2.1,0.9,3.1,1.4c0.5,0.2,1,0.3,1.6,0.5c0.6,0.1,0.7,0.5,1,0.9s0.7,0,0.5-0.3
			c-0.5-0.7-0.5-1-1.4-1.2c-0.8-0.2-1.5-0.4-2.3-0.7c0.9-0.7,1.6-1.7,1.9-2.8c0.1-0.1,0.2-0.2,0.1-0.3c0.2-0.4,0.4-0.8,0.6-1.2
			c0.6-0.9,1.7,1.3,2.1,1.8c0.7,0.8,1.5,1.6,2.2,2.4c0,0,0.1,0.1,0.2,0.1c-1.3,0.9-2.6,1.8-3.9,2.7s-2.6,1.7-3.1,3.1
			c-0.3,1-0.1,2.2,0.6,3C8.8,20.7,8.2,20.6,7.6,20.7z M22.1,17.5c-0.3,2.2-2.5,2.3-4.2,2.3s-3.6,0.8-5.4,0.9h-0.5c0-0.1,0-0.1,0-0.2
			c-0.1-0.2-0.2-0.4-0.3-0.6c-0.1-0.2-0.2-0.4-0.4-0.4c-0.1,0-0.1,0-0.1,0.1c0,0.2,0,0.4,0.1,0.6c0.1,0.2,0.2,0.4,0.3,0.5
			c-0.5,0-0.9,0-1.4,0c-0.3-0.5-0.6-0.9-0.9-1.5C8.9,18,9.8,17,10.7,16.2c1.7-1.5,3.7-2.7,5.5-4c1.5-1,2.8-2.2,4-3.5
			c0.4-0.5,1.1-1.3,1.1-2l0.2,0.3c0,0,0,0.1,0,0.1c0.3,1.9,0.4,3.7,0.5,5.6C22.2,14.3,22.2,15.9,22.1,17.5z"/>
		<path class="st0" d="M11.1,18.2c0,0-0.1,0-0.1,0c-0.2,0.2,0,0.6,0,0.8c0,0,0.1,0.1,0.1,0c0,0,0,0,0,0
			C11.2,18.8,11.3,18.4,11.1,18.2z"/>
		<path class="st0" d="M16.6,13.6c-0.5,0.3-1,0.6-1.6,0.9c-0.5,0.4-1,0.8-1.6,1.1c-0.5,0.3-1,0.7-1.4,1.1c-0.4,0.2-0.7,0.6-0.9,1
			c-0.1,0.1,0.1,0.3,0.2,0.2c0.3-0.5,0.8-1,1.3-1.3c0.5-0.3,1-0.6,1.5-1c0.9-0.6,2-0.8,2.6-1.8C16.7,13.6,16.7,13.6,16.6,13.6
			C16.6,13.6,16.6,13.6,16.6,13.6z"/>
		<path class="st0" d="M18.6,12c-0.6,0.3-1.1,0.7-1.6,1.1c-0.2,0.1,0,0.4,0.2,0.3c0.5-0.3,1.4-0.5,1.6-1.2
			C18.8,12.1,18.7,12,18.6,12z"/>
		<path class="st0" d="M20.2,10.9c-0.1-0.1-0.4,0.1-0.5,0.2l-0.2,0.2c-0.1,0.1-0.1,0.1-0.2,0.2s0,0.3,0.2,0.2s0.2-0.1,0.2-0.1
			c0.1-0.1,0.2-0.1,0.3-0.2C20.1,11.2,20.3,11,20.2,10.9z"/>
		<path class="st0" d="M21.5,9.6c-0.3,0-0.4,0.3-0.6,0.4s-0.1,0.3,0.1,0.3s0.5-0.3,0.6-0.6C21.6,9.6,21.6,9.6,21.5,9.6z"/>
		<path class="st0" d="M0.9,10.3c-0.1-0.1-0.2,0.1-0.1,0.1c0.6,0.5,1.4,0.6,1.9,1.2c0,0,0.1,0,0.1-0.1C2.6,10.6,1.6,10.7,0.9,10.3z"
			/>
		<path class="st0" d="M5.4,12.7C5,12.4,4.5,12.2,4,12.1c-0.1,0-0.1,0.1-0.1,0.1c0.5,0.3,0.9,0.8,1.4,0.6
			C5.5,12.8,5.5,12.7,5.4,12.7z"/>
		<path class="st0" d="M9.4,13.8c-0.4-0.3-0.8-0.4-1.3-0.4c-0.5-0.1-1.1-0.1-1.6-0.2c-0.1,0-0.1,0.1,0,0.1c0.4,0.2,0.8,0.4,1.2,0.4
			c0.3,0,0.6,0,0.8,0.1C8.9,14,9.1,14,9.4,14.1C9.5,14.1,9.5,14,9.4,13.8C9.5,13.9,9.5,13.9,9.4,13.8z"/>
		<path class="st0" d="M10,14.3c0,0-0.1-0.1-0.1-0.2c0,0,0-0.1-0.1-0.1c0,0-0.1,0-0.1,0.1c0,0.1,0,0.2,0,0.3c0,0.1,0.1,0.2,0.2,0.3
			c0.1,0,0.2,0,0.2-0.1c0,0,0-0.1,0-0.1C10.1,14.4,10.1,14.3,10,14.3z"/>
		<path class="st0" d="M18.8,6c-0.8-0.2-1.4-0.9-2.1-1.2c-1.1-0.4-2.2-0.9-3.3-1.4C12,2.8,10.5,1.6,8.9,1.7S6.3,3,5.4,4
			C4.8,4.7,4.1,5.3,3.4,5.9C2.7,6.4,2,7.1,1.5,7.9C1.5,8.1,1.7,8.3,1.8,8.1C2.8,6.9,4,6,5.1,4.8s3.1-3.5,5-2.6
			c1.6,0.8,3.1,1.6,4.7,2.3c0.8,0.3,1.6,0.7,2.3,1.1c0.5,0.4,1,0.7,1.5,0.9C19,6.6,19.2,6.1,18.8,6z"/>
	</g>
</g>
</svg>
