<?xml version="1.0" encoding="utf-8"?>
<!-- Generator: Adobe Illustrator 22.0.1, SVG Export Plug-In . SVG Version: 6.00 Build 0)  -->
<svg version="1.1" id="Layer_1" xmlns="http://www.w3.org/2000/svg" xmlns:xlink="http://www.w3.org/1999/xlink" x="0px" y="0px"
	 viewBox="0 0 20.6 16.5" style="enable-background:new 0 0 20.6 16.5;" xml:space="preserve">
<style type="text/css">
	.st0{fill:#010101;}
</style>
<title>Asset 33</title>
<g id="Layer_2_1_">
	<g id="Layer_1-2">
		<path class="st0" d="M19.5,7.4c-0.7-0.9-1.6-1.6-2.7-2c-0.2,0-0.3-0.1-0.5-0.1c0.2-0.2,0.4-0.4,0.7-0.6C17,4.6,17.1,4.5,17,4.4
			c-0.5-1.2-1.1-3.3-2.4-3.9c-0.6-0.3-1.2-0.4-1.8-0.3C12.1,0,11.4,0,10.7,0.1C9.2,0.5,7.9,1.9,6.7,2.9C6.1,3.4,5.6,3.9,4.9,4.4
			c-0.4,0.2-0.8,0.6-1,1c0,0.1,0,0.2,0.1,0.3C3.8,6.3,3.7,6.9,3.7,7.5c0,0.6-0.2,1.2-0.3,1.8c-0.4,0.3-0.7,0.6-1,0.9
			c-0.5,0.4-0.9,0.8-1.3,1.3c-0.1,0.1,0,0.2,0.1,0.3c0,0,0,0,0,0C1,12,0.9,12.4,0.9,12.8C0.4,13.9,0.2,15,0,16.2
			c0,0.1,0.1,0.3,0.3,0.3c0.1,0,0.1,0,0.2-0.1l0,0l0.1,0.1c0.1,0.1,0.2,0,0.3-0.1c2.3,0,4.6-0.2,6.8-0.3c0,0,0.1,0,0.1,0
			c0.1,0.1,0.3,0,0.3-0.1c0,0,0,0,0-0.1c0.1-0.1,0.2-0.3,0.4-0.4v0.1c0,0,0,0,0,0.1c0,0.1,0.1,0.3,0.2,0.3c0,0,0.1,0,0.1,0
			c1.1-0.2,2.2-0.3,3.3-0.3c1.2-0.1,2.4-0.2,3.6-0.2c0.1,0,0.2-0.1,0.2-0.1c0.2,0,0.3,0,0.4-0.1c0.1,0,0.2-0.1,0.2-0.2l0,0
			c0.3-0.8,1-1.3,1.5-2c0.6-0.8,1.4-1.5,1.9-2.4c0,0,0,0,0-0.1C21.2,10,20.3,8.3,19.5,7.4z M6.4,3.9c1.1-1,2.3-2,3.6-2.9
			c1-0.7,2.7-0.4,3.8-0.2C15.2,1,16,3.3,16.5,4.4c-0.3,0.2-0.5,0.4-0.8,0.7h-0.1c-0.1,0-0.2,0-0.3,0.2c0,0,0,0.1,0,0.1
			c-0.7,0.6-1.3,1.4-2,2.1S12,8.5,11.4,9c-0.4-1.1-0.9-2.1-1.6-2.9C9,4.9,8.2,4.8,6.9,4.8C6.2,4.8,5.6,4.8,5,5
			C5.4,4.6,6,4.2,6.4,3.9z M4,9.6L4,9.6c0.1-0.1,0.2-0.2,0.1-0.4c0-0.1-0.1-0.1-0.1-0.1C4.1,8.6,4.2,8,4.2,7.5c0-0.7,0.1-1.7,1-2
			c0.5-0.1,1.1-0.2,1.7-0.2c0.7,0,1.3-0.1,1.9,0.3C9.2,6.1,9.5,6.5,9.7,7c0.3,0.5,2,2.4,0.8,2.5c-0.1,0-0.2,0.1-0.2,0.1
			C9,9.6,7.8,9.8,6.6,9.8c-0.9,0-1.7,0-2.6,0.1V9.6z M0.6,15.9L0.6,15.9c0.1-0.6,0.4-1.2,0.5-1.8s0.2-1.9,0.8-2.3s2.1-0.4,3-0.4
			c0.3,0,0.6,0,0.8-0.1C6,11.3,6.8,13,7,13.2s0.9,2,0.7,2.4C5.3,15.7,3,15.9,0.6,15.9z M8.6,15c-0.1,0-0.1,0-0.2,0.1l-0.2,0.2
			c-0.1-0.5-0.3-1-0.4-1.4c-0.4-1.1-1-2.1-1.7-3c-0.1-0.1-0.2-0.1-0.3-0.1c-1.2,0.3-2.5,0-3.7,0.4c0.2-0.2,0.5-0.4,0.7-0.6
			s0.4-0.4,0.7-0.6c0,0.1,0,0.1,0,0.2c0,0,0,0,0,0.1c0,0.1,0.1,0.3,0.2,0.3c0,0,0.1,0,0.1,0c1.1-0.2,2.2-0.3,3.3-0.3
			c1,0,2-0.1,3-0.2c-0.3,0.2-0.6,0.6-0.7,1l0,0c-0.1,0.1-0.1,0.2-0.2,0.2c-0.2,0.5-0.3,1.1-0.3,1.7C8.9,13.7,8.7,14.3,8.6,15L8.6,15
			z M15.6,15c-0.1,0-0.2,0.1-0.2,0.1c-1.2,0-2.4,0.2-3.7,0.2c-0.9,0-1.8,0-2.7,0.2c0-0.8,0.3-1.6,0.3-2.4s0.1-1.7,0.9-2
			c0.5-0.1,1.1-0.2,1.7-0.1c0.7-0.1,1.3,0,1.9,0.3c0.4,0.4,0.7,0.8,0.9,1.3C15.2,13,16.9,14.9,15.6,15L15.6,15z M19.4,10.6
			c-0.1,0.1-0.2,0.2-0.2,0.4c0,0,0,0.1,0.1,0.1c-0.6,0.8-1.2,1.5-1.8,2.2c-0.3,0.3-0.6,0.7-0.9,1.1c-0.4-1-0.9-1.9-1.5-2.7
			c-0.8-1.2-1.6-1.3-2.9-1.3c-0.5,0-1,0-1.6,0.1l0.3-0.3c0.1-0.1,0.1-0.2,0.1-0.3h0.2c0.1,0.1,0.2,0,0.3-0.1l0.1-0.1l0,0
			c0.6-0.8,1.5-1.3,2.2-2c0.5-0.5,0.9-1,1.4-1.5c0.1,0,0.2,0,0.3-0.1c0.4-0.7,1.6-0.2,2.1,0C18,6.6,18.5,7.1,19,7.6
			C19.7,8.3,20.8,10.1,19.4,10.6L19.4,10.6z"/>
	</g>
</g>
</svg>
