<?xml version="1.0" encoding="utf-8"?>
<!-- Generator: Adobe Illustrator 22.0.1, SVG Export Plug-In . SVG Version: 6.00 Build 0)  -->
<svg version="1.1" id="Layer_1" xmlns="http://www.w3.org/2000/svg" xmlns:xlink="http://www.w3.org/1999/xlink" x="0px" y="0px"
	 viewBox="0 0 21.3 16.4" style="enable-background:new 0 0 21.3 16.4;" xml:space="preserve">
<style type="text/css">
	.st0{fill:#010101;}
</style>
<title>Asset 31</title>
<g id="Layer_2_1_">
	<g id="Layer_1-2">
		<path class="st0" d="M21.3,15.7c-0.8-1.6-1.4-3.2-2-4.9c-0.3-0.9-0.2-2.3-1-2.9c-0.6-0.4-2.2-0.1-2.9-0.1c-1.2,0-2.4,0-3.6,0.2
			c1-1.3,1.8-2.9,2.1-4.5c0.4-1.5-0.6-3-2.1-3.4C11.6,0,11.5,0,11.3,0c-2-0.1-3.7,1.2-4.2,3.2C6.7,4.8,7.7,6.4,8.6,8
			C7.3,8,6.1,8.1,4.8,8.1c-0.6,0-1.4-0.2-1.7,0.5c-0.5,1-0.8,2.1-1.3,3.2c-0.7,1.4-1.3,2.8-1.9,4.2c-0.1,0.1,0,0.3,0.1,0.4
			c0,0,0,0,0.1,0c1.4,0.2,2.9,0.2,4.3,0c1.8-0.1,3.5-0.2,5.3-0.2s3.7-0.1,5.6-0.1s3.8,0.2,5.6,0.2c0.1,0,0.3-0.1,0.3-0.2
			C21.3,15.8,21.3,15.8,21.3,15.7z M10.7,0.5c2.7-0.4,3,2.4,2.3,4.3c-0.7,1.7-1.8,3.3-3,4.7C9.8,9,9.6,8.7,9.4,8.3
			c0-0.1,0-0.2-0.1-0.3c-0.5-0.9-1-1.8-1.4-2.7C7.1,3.5,8,1.5,9.8,0.7C10.1,0.6,10.4,0.6,10.7,0.5z M16.4,15.4c-1.9,0-3.7,0-5.6,0.1
			s-3.6,0.1-5.4,0.2c-1.6,0.2-3.2,0.2-4.8,0.1c0.8-2,1.8-3.8,2.6-5.8c0.1-0.2,0.2-0.4,0.2-0.7c0.3-1,1.2-0.7,1.9-0.7
			c1.2,0,2.4-0.1,3.6-0.1C9.1,9,9.4,9.4,9.5,9.9c0,0,0,0.1,0.1,0.1c0.1,0.1,0.3,0.1,0.4,0c0,0,0,0,0,0C10.5,9.6,11,9,11.4,8.4
			c0.1,0.1,0.2,0.1,0.3,0.1c1.2-0.2,2.5-0.3,3.8-0.2c1,0,2.7-0.4,2.9,0.9c0.5,2.2,1.3,4.3,2.3,6.4C19.2,15.6,17.8,15.4,16.4,15.4z"
			/>
		<path class="st0" d="M12,1.9c-0.9-1.2-3.8-0.4-3.5,1.2c0,0.1,0.1,0.2,0.3,0.2c0,0.1,0,0.1,0.1,0.2C9.9,4.8,13.2,3.6,12,1.9z
			 M11,3.4c-0.6,0.3-1.3,0.2-1.8-0.3C9.2,3,9.1,3,9,3c-0.1-1.1,1.7-1.5,2.4-1S11.5,3.2,11,3.4z"/>
	</g>
</g>
</svg>
