<?xml version="1.0" encoding="utf-8"?>
<!-- Generator: Adobe Illustrator 22.0.1, SVG Export Plug-In . SVG Version: 6.00 Build 0)  -->
<svg version="1.1" id="Layer_1" xmlns="http://www.w3.org/2000/svg" xmlns:xlink="http://www.w3.org/1999/xlink" x="0px" y="0px"
	 viewBox="0 0 14.2 25.1" style="enable-background:new 0 0 14.2 25.1;" xml:space="preserve">
<style type="text/css">
	.st0{fill:#3BC6F3;}
</style>
<title>Asset 45</title>
<g id="Layer_2_1_">
	<g id="Layer_1-2">
		<path class="st0" d="M14.2,0.5L14.2,0.5L14.2,0.5c0-0.1,0-0.2-0.2-0.3c0,0,0,0,0,0c-1-0.4-1.3-0.2-1.7,0.9c-0.6,1.5-1.3,3-2.1,4.5
			c0,0,0-0.1-0.1-0.1c-0.3-0.2-0.6-0.4-1-0.4C8.4,5.2,7.6,5,6.9,4.7C5.8,4,5.1,2.7,5.3,1.3C5.5,1.3,5.5,1.1,5.4,1
			c0.1-0.1,0.2-0.2,0.1-0.4c0-0.1-0.1-0.1-0.2-0.2L5,0.4c0,0,0-0.1-0.1-0.1L4.7,0.4C3,0.4,1.5,1.8,0.8,3.2c-0.5,1-0.7,2.2-0.5,3.3
			C0.3,7.2,0.6,7.9,1,8.4C0.9,8.5,0.9,8.6,0.9,8.6l0,0C0.8,8.5,0.7,8.5,0.6,8.5c0,0,0-0.1-0.1-0.1l0,0l0,0H0.4c0,0-0.1,0-0.1,0l0,0
			l0,0c-0.6,0.9-0.4,2,0.5,2.7h0.1c0,0.7,0.2,1.4,0.3,2.1c0.1,0.5,0.2,1.1,0.2,1.7V15l0,0c0,0,0,0,0,0.1c-0.5,0.5-0.3,1.5-0.2,2
			c0.1,1,0.2,2.7,1,3.5c0.1,0.2,0.3,0.3,0.5,0.4c0.1,1.3,0,2.6,1.1,3.5C4.4,24.8,5,25,5.7,25c1.2,0.1,2.4,0.1,3.6,0
			c0.1,0,0.2-0.1,0.2-0.1c0.6-0.3,0.7-1,0.8-1.6c0.1-0.8,0.1-1.5,0.4-2.3c0.1-0.1,0.2-0.2,0.4-0.3c0-0.1,0-0.2,0-0.2
			c0.4-0.9,0.5-1.9,0.5-2.9c0.1-1,0-2-0.3-2.9c0.1-0.4,0.2-0.9,0.3-1.3c0.1-0.6,0.2-1.1,0.2-1.7c0-0.1,0-0.1-0.1-0.1
			c1.2-0.5,1.4-1.6,1-2.9c0-0.1-0.1-0.2-0.3-0.2c-0.1-0.8-0.6-1.3-0.9-2c0-0.1-0.1-0.1-0.1-0.1c0.5-0.9,1-1.7,1.5-2.5
			c0.6-1,0.8-2.2,1.3-3.2c0.1,0,0.2-0.1,0.2-0.2C14.2,0.6,14.2,0.5,14.2,0.5z M5.1,1.4C4.8,2.3,5,3.5,5.7,4.3
			c0.4,0.5,0.9,0.9,1.5,1.2c0.8,0.3,1.9,0,2.6,0.5C9.8,6,9.9,6,10,6L9.4,7.2C8.8,6.9,8,6.8,7.4,6.6C6.3,6.3,5.3,5.5,4.9,4.4
			C4.6,3.9,3.9,1.4,5.1,1.4z M10,22.7c-0.1,0.4-0.2,0.9-0.3,1.3c-0.1,0.3-0.4,0.3-0.6,0.5c-1.4,0.2-4,0.5-5.2-0.5
			c-0.7-0.6-0.6-1.8-0.8-2.7c2.3,1.1,4.9,1.1,7.2-0.1C10.1,21.7,10.1,22.2,10,22.7z M10.6,20.4c0,0,0,0.1,0,0.1
			c-1.9,1.6-5.9,1.5-7.8,0c-0.8-0.6-0.8-1.7-1-2.6c-0.2-0.8-0.3-1.6-0.3-2.4c0.6,0.8,3.5,0.7,4.1,0.7c1.3,0,4.5,0.7,5.5-0.5
			C11.4,17.3,11.1,18.9,10.6,20.4L10.6,20.4z M11.1,13c0,0.7-0.5,1.5-0.4,2.2c0,0,0,0.1,0,0.1c-1.1,0.9-3.4,0.5-4.7,0.5
			c-0.7,0-3,0.3-4-0.3c0.1-0.1,0.1-0.2,0-0.2c-0.3-0.4-0.2-1.4-0.3-2c-0.1-0.7-0.4-1.4-0.5-2.1C2.5,11.8,4,12.1,5.5,12
			c1.9,0.1,3.9,0,5.8-0.4l0,0C11.2,12.1,11.1,12.5,11.1,13z M8.8,11.6c-1.2,0.1-2.5,0.1-3.7,0c-1.2,0-2.4-0.3-3.5-0.8
			c-0.1-0.1-0.2-0.1-0.4-0.2l0,0c0-0.1-0.1-0.1-0.1-0.1c0,0,0,0,0,0c-0.3-0.4-0.5-1-0.5-1.5C0.8,9.2,1,9.3,1.2,9.4
			C2.4,9.8,3.7,10,5,10c2,0.2,5.6,0.8,7.2-0.9C13,11.3,10.4,11.6,8.8,11.6L8.8,11.6z M11.9,8.5c0,0.1,0,0.1,0.1,0.2v0.1
			c-0.6,1.1-2.8,1-3.9,1S5.8,9.6,4.7,9.5C3.5,9.5,2.3,9.3,1.3,8.9V8.8c0-0.1,0-0.1,0.1-0.2c0,0,0-0.2,0-0.1c0,0,0-0.1,0-0.1
			c0-0.1,0-0.1-0.1-0.1c0,0,0,0,0,0l0,0c0-0.2-0.5-1.5-0.5-1.5C0.5,5.9,0.6,4.9,0.9,4.1c0.2-0.6,0.6-1.2,1-1.7
			C1.8,2.6,1.6,2.9,1.5,3.1C1,4.5,0.6,6.3,1.7,7.5C1.9,7.7,2.2,7.4,2,7.1C0.7,5.7,1.7,1.7,3.7,1C2.9,1.9,2.4,3.2,2.5,4.4
			c0.1,0.9,0.6,1.8,1.2,2.5c0.5,0.4,0.8,1,1,1.6c0,0.2,0.1,0.4,0.2,0.5c0.1,0.1,0.3,0.1,0.4,0c0-0.1,0.1-0.1,0.1-0.2V8.8
			c0,0,0-0.1,0-0.1C5.2,7.8,4.8,7.1,4.1,6.5c-1.7-1.8-1.3-4,0.3-5.6h0.2C3.4,1.4,4,3.8,4.4,4.7C4.9,5.7,5.7,6.6,6.7,7
			c0.7,0.3,1.6,0.3,2.4,0.6l0,0c0,0.1,0,0.1,0,0.2s0.1,0,0.2,0V7.7c0.6,0.2,1,0.5,1.4,1c0,0.1,0.1,0.1,0.2,0.1s0.1-0.1,0.1-0.2
			c-0.1-0.2-0.2-0.4-0.4-0.6c0.1-0.4,0.3-0.8,0.4-1.1l0,0C11.4,7.4,11.9,7.9,11.9,8.5L11.9,8.5z M12.3,4.2c-0.4,0.7-0.8,1.5-1.1,2.2
			C11,6.4,11,6.5,11,6.6c0,0,0,0,0,0l0,0c-0.2,0.3-0.4,0.7-0.5,1.1C10.2,7.5,10,7.3,9.6,7.2c0.7-1.2,1.4-2.4,2-3.7
			c0.3-0.5,0.5-1.1,0.7-1.6c0.2-0.6,0.5-1.1,0.8-1.5c0.1-0.1,0.5,0.1,0.7,0.2C13.5,1.8,13,3.1,12.3,4.2L12.3,4.2z"/>
		<path class="st0" d="M7.1,5.8C7,5.8,6.9,5.9,7,6.1C7,6.1,7,6.2,7.1,6.2c0.1,0,0.2-0.1,0.2-0.3C7.3,5.9,7.2,5.8,7.1,5.8z"/>
		<path class="st0" d="M8,6.1c-0.1,0-0.2,0.1-0.1,0.2c0,0.1,0.1,0.1,0.1,0.1c0.1,0,0.2-0.1,0.1-0.2C8.1,6.2,8.1,6.1,8,6.1z"/>
		<path class="st0" d="M6.3,7.6C6.1,7.6,6,7.7,6,7.8c0,0,0,0,0,0.1c0,0,0,0,0,0.1c0,0.1,0.2,0.2,0.3,0.2c0.1,0,0.2-0.1,0.2-0.2l0,0
			c0.1-0.1,0-0.3-0.1-0.4C6.3,7.6,6.3,7.6,6.3,7.6z"/>
		<path class="st0" d="M7.2,8.1C7.1,8.1,7,8.2,7,8.3c0,0.1,0.1,0.2,0.2,0.2s0.2-0.1,0.2-0.2C7.4,8.2,7.3,8.1,7.2,8.1L7.2,8.1z"/>
		<path class="st0" d="M7.1,7.4C7,7.4,7,7.5,7,7.6S7,7.7,7.1,7.7s0.2-0.1,0.2-0.2S7.2,7.4,7.1,7.4z"/>
		<path class="st0" d="M8.6,8C8.5,8,8.4,8.1,8.4,8.2c0,0.1,0.1,0.2,0.2,0.2c0.1,0,0.2-0.1,0.2-0.2C8.8,8.1,8.7,8,8.6,8z"/>
		<path class="st0" d="M6.6,8.8C6.5,8.9,6.4,9,6.5,9.1c0,0.1,0.1,0.1,0.2,0.2c0.1,0,0.2-0.1,0.2-0.2C6.7,8.9,6.7,8.8,6.6,8.8z"/>
		<path class="st0" d="M3.6,7.7L3.6,7.7c-0.2-0.1-0.3-0.1-0.3,0c0,0,0,0.1,0,0.1C3.2,7.9,3.3,8,3.4,8c0,0,0.1,0,0.1,0L3.6,8
			C3.7,7.9,3.7,7.8,3.6,7.7C3.6,7.7,3.6,7.7,3.6,7.7z"/>
		<path class="st0" d="M5.8,6.9C5.7,6.9,5.7,7,5.7,7.1c0,0.1,0.1,0.1,0.1,0.1C5.9,7.2,6,7.1,5.9,7C5.9,6.9,5.9,6.9,5.8,6.9z"/>
		<path class="st0" d="M2.6,7.5c-0.1,0-0.2,0.1-0.2,0.2c0,0,0,0.1,0,0.1C2.3,8,2.3,8.1,2.2,8.2s0.2,0.3,0.2,0.1s0.1-0.3,0.2-0.5
			C2.7,7.8,2.8,7.5,2.6,7.5z"/>
		<path class="st0" d="M3.2,8.2C3.1,8.2,3,8.3,3,8.4c0,0.1,0.1,0.2,0.2,0.2c0.1,0,0.2-0.1,0.2-0.2C3.3,8.3,3.3,8.2,3.2,8.2z"/>
		<path class="st0" d="M3,6.7c0,0-0.1,0.1-0.1,0.1c0,0,0,0,0.1,0.1C3,6.9,3.1,6.8,3,6.7C3,6.7,3,6.7,3,6.7z"/>
		<path class="st0" d="M4.2,8.1C4.1,8.1,4,8.3,4,8.4c0,0.1,0.1,0.2,0.2,0.2c0.1,0,0.2-0.1,0.2-0.3C4.3,8.2,4.3,8.1,4.2,8.1z"/>
		<path class="st0" d="M9.1,6.5c0,0-0.1,0-0.1,0c-0.1,0-0.1,0.1-0.1,0.2c0,0.1,0.1,0.1,0.1,0.1h0.1C9.2,6.8,9.2,6.7,9.1,6.5
			C9.2,6.6,9.2,6.5,9.1,6.5z"/>
	</g>
</g>
</svg>
