<?xml version="1.0" encoding="utf-8"?>
<!-- Generator: Adobe Illustrator 22.0.1, SVG Export Plug-In . SVG Version: 6.00 Build 0)  -->
<svg version="1.1" id="Layer_1" xmlns="http://www.w3.org/2000/svg" xmlns:xlink="http://www.w3.org/1999/xlink" x="0px" y="0px"
	 viewBox="0 0 26.5 22.8" style="enable-background:new 0 0 26.5 22.8;" xml:space="preserve">
<style type="text/css">
	.st0{fill:#010101;}
</style>
<title>Asset 38</title>
<g id="Layer_2_1_">
	<g id="Layer_1-2">
		<path class="st0" d="M25.4,2c-1.1-0.6-2.4-0.2-3.1,0.8c-1.4-0.6-2.9-1-4.5-1.2c-0.4-0.2-0.8-0.5-1.3-0.6C11.2-1.2,5.1,0.6,1.9,5.3
			c-3.4,4.9-1.8,11.1,2.3,15c1,0.9,2.1,1.7,3.4,2.1c0.1,0,0.3,0,0.3-0.1c0-0.1,0-0.1,0-0.2c2.5,0.9,5.2,0.9,7.7-0.2
			c2.8-1.3,5-3.6,6.2-6.5c2.2-4.5,1-9.9-2.8-13.2c1,0.2,2,0.5,3,1c-0.1,0.1-0.1,0.2-0.2,0.3c0,0.1,0,0.2,0.1,0.3
			c-0.4,1.1,0.1,2.4,1.2,2.8c0,0,0.1,0,0.1,0c1.3,0.4,2.8-0.3,3.2-1.6C26.8,4,26.4,2.7,25.4,2z M21.6,14.1c-1.9,6.1-7.9,9.6-14,7.3
			c-0.3-0.1-0.4,0.2-0.3,0.4c-4.9-2-7.8-8.4-6.3-13.4C2.6,3,8.5-0.2,13.9,0.7c0.7,0.1,1.4,0.3,2,0.5l-1.2-0.1
			c-0.9,0.1-1.7,0.2-2.5,0.4c0-0.1-0.1-0.2-0.2-0.1c-0.5,0-0.9,0.1-1.4,0.3c-0.4,0.2-1.1,0.5-0.9,1s0.9,0.6,1.4,0.5
			c0.3,0,0.6-0.2,0.8-0.3c0.2-0.2,0.1-0.5,0.1-0.8c0.8-0.1,1.5-0.2,2.3-0.3c1,0,2,0.1,3,0.3h0.2C21.5,4.6,23.2,9.6,21.6,14.1z
			 M11.6,2.1c0,0.2,0,0.3,0,0.5l0,0l-0.1,0.1l-0.3,0.1c-0.2,0-0.5,0-0.7,0c-0.1,0-0.1,0-0.1-0.1C10.7,2.3,11.2,2.1,11.6,2.1
			L11.6,2.1z M25.9,4.5c-0.1,1-0.9,1.7-1.9,1.8c-0.7,0.1-1.3-0.2-1.7-0.8C22,4.8,22.1,4,22.6,3.4c0.6-0.7,1.1-1.3,2.2-1
			C25.7,2.7,26.2,3.6,25.9,4.5L25.9,4.5z"/>
		<path class="st0" d="M12.4,10.7c-0.2-0.4-0.7-0.7-1.2-0.6c-0.5,0.1-0.9,0.7-0.7,1.2c0,0.1,0,0.1,0.1,0.2c0,0,0.1,0.1,0.1,0.1
			c0,0,0,0.1,0.1,0.1c0.2,0.2,0.5,0.3,0.8,0.3c0.5,0,0.9-0.5,0.9-1C12.4,10.9,12.4,10.8,12.4,10.7z M11.8,11.4
			c-0.2,0.1-0.4,0.1-0.5,0c-0.1,0-0.1-0.1-0.2-0.1c0.1-0.1,0.1-0.2,0-0.3c0,0,0,0,0,0c0-0.2,0-0.4,0.2-0.5c0.2-0.1,0.5,0,0.6,0.2
			c0.2,0.2,0.2,0.4,0,0.6C11.8,11.4,11.8,11.4,11.8,11.4z"/>
		<path class="st0" d="M12.5,7.2C10.7,6.6,8,8,8.1,10c-0.5,2.1,1.1,3.9,3.3,4.1c1.8,0.1,3.3-1.3,3.4-3c0,0,0,0,0-0.1
			C15,9.3,14.1,7.7,12.5,7.2z M8.5,10.4c0.1,0,0.2-0.1,0.2-0.2c0,0,0,0,0,0c0-1.9,2.3-2.8,3.9-2.3c1.2,0.4,1.7,1.8,1.7,3
			C14.4,14.9,8.1,14.1,8.5,10.4L8.5,10.4z"/>
		<path class="st0" d="M8.8,6.2L8.8,6.2C8.8,6.1,8.7,6,8.6,6C7.7,6,7.2,7.9,7,8.6S6.4,11,7.3,11.3c0.2,0.1,0.3-0.2,0.1-0.3
			c-0.6-0.4-0.1-1.9,0.1-2.4s0.6-1.8,1.2-2.1C8.8,6.4,8.9,6.3,8.8,6.2z"/>
		<path class="st0" d="M7.9,4.7C5.8,5.6,5.1,8.9,5.6,11c0,0.1,0.1,0.1,0.2,0.2h0.1c0.1,0,0.2,0,0.3-0.2c0-0.1,0-0.1,0-0.2
			c0,0,0-0.1,0-0.1c0-0.1-0.2-0.1-0.3,0C6.1,10.3,6,9.9,6,9.4c0-0.6,0.1-1.1,0.3-1.7c0.2-1.1,0.9-2,1.9-2.6C8.5,5,8.2,4.6,7.9,4.7z"
			/>
		<path class="st0" d="M7,3.4C6,2.8,5,5.8,4.7,6.3c-0.5,1.3-1.2,3.8-0.2,5c0.2,0.2,0.4,0,0.3-0.2C4.4,9.8,4.4,8.3,5,7
			c0.2-0.7,1-3.1,1.9-3.1c0.1,0,0.2-0.1,0.2-0.3C7.1,3.5,7.1,3.5,7,3.4z"/>
		<path class="st0" d="M5.2,3.3c-0.4,0.2-0.8,0.5-1,0.9C3.6,5,3.1,5.9,2.7,6.8c-0.7,1.4-0.8,3-0.5,4.4c0,0.1,0.1,0.2,0.2,0.1
			c0.1,0,0.2-0.1,0.1-0.2C2.4,9.9,2.5,8.6,3,7.4c0.3-0.8,0.7-1.5,1.2-2.2c0.4-0.6,0.5-1.1,1.2-1.5c0.1-0.1,0.2-0.2,0.1-0.3
			C5.4,3.3,5.3,3.3,5.2,3.3z"/>
		<path class="st0" d="M16.8,18.7c-1,0.9-2.1,1.5-3.4,2c-1.7,0.3-3.5,0.2-5.2-0.4c-0.2-0.1-0.3,0.3-0.1,0.4c1.6,0.6,3.3,0.8,5,0.6
			c1.6-0.3,2.6-1.2,3.9-2.1C17.3,18.9,17.1,18.5,16.8,18.7z"/>
		<path class="st0" d="M16.4,17.6c-0.9,0.6-1.8,1.2-2.7,1.7c-1.5,0.7-2.8,0.2-4.3,0.1c-0.3,0-0.3,0.4,0,0.4c1.5,0.1,2.6,0.6,4.1,0.1
			c1.2-0.5,2.2-1.1,3.1-2C16.8,17.8,16.6,17.5,16.4,17.6z"/>
		<path class="st0" d="M15.3,16.4c-0.8,0.8-1.8,1.4-2.8,1.7c-0.9,0.3-1.7-0.2-2.5,0.2c-0.2,0.1,0,0.4,0.1,0.3c1-0.4,2.1,0.1,3.1-0.3
			c0.9-0.3,1.8-0.9,2.4-1.6C15.8,16.5,15.5,16.2,15.3,16.4z"/>
		<path class="st0" d="M14.7,15.8c-0.5,0.5-1.1,0.8-1.7,0.9c-0.6,0.1-1.2,0-1.8,0C11,16.8,11,16.9,11,17c0,0.1,0.1,0.1,0.2,0.2
			c1.2,0.1,3.2,0.3,3.9-1c0.1-0.1,0.1-0.2,0-0.3C14.9,15.7,14.8,15.7,14.7,15.8L14.7,15.8z"/>
		<path class="st0" d="M14.7,14.6c-0.7,0.6-1.6,1-2.5,1.2c-0.1,0-0.2,0.1-0.2,0.2c0,0.1,0.1,0.2,0.2,0.2c1.1,0,2.1-0.5,2.8-1.3
			C15.2,14.7,14.9,14.5,14.7,14.6z"/>
		<path class="st0" d="M14.8,13.6c-0.8,0.1-1.6,0.5-2.2,1.2c-0.2,0.2,0.1,0.4,0.3,0.3c0.3-0.3,0.6-0.5,1-0.6c0.3-0.1,0.7-0.3,1-0.5
			C15,13.8,15,13.5,14.8,13.6z"/>
		<path class="st0" d="M16.5,7.4c-0.1-0.4-0.4-0.9-0.8-0.9c-0.2,0-0.4,0.3-0.1,0.4c0.7,0.4,0.6,1.4,0.9,2c0.1,0.2,0.4,0.1,0.4-0.1
			C16.8,8.3,16.7,7.8,16.5,7.4z"/>
		<path class="st0" d="M16.8,5.8c-0.2-0.3-0.5,0-0.4,0.2c0.3,0.4,0.5,0.9,0.7,1.4c0.1,0.4,0.2,0.9,0.3,1.3c0,0.1,0.2,0.2,0.3,0.1
			c0.1,0,0.1-0.1,0.1-0.1C17.8,7.6,17.4,6.6,16.8,5.8z"/>
		<path class="st0" d="M17.3,4.6c-0.1,0-0.2,0.1-0.2,0.2c0,0.1,0.1,0.1,0.1,0.2c0.9,0.2,1,2.1,1,2.8c0.1,0.9,0,1.7,0.2,2.6
			c0,0.1,0.1,0.2,0.3,0.1c0.1,0,0.1-0.1,0.1-0.1C19,9.2,19.1,4.6,17.3,4.6z"/>
	</g>
</g>
</svg>
