<?xml version="1.0" encoding="utf-8"?>
<!-- Generator: Adobe Illustrator 22.0.1, SVG Export Plug-In . SVG Version: 6.00 Build 0)  -->
<svg version="1.1" id="Layer_1" xmlns="http://www.w3.org/2000/svg" xmlns:xlink="http://www.w3.org/1999/xlink" x="0px" y="0px"
	 viewBox="0 0 22.6 20.4" style="enable-background:new 0 0 22.6 20.4;" xml:space="preserve">
<style type="text/css">
	.st0{fill:#010101;}
</style>
<title>Asset 40</title>
<g id="Layer_2_1_">
	<g id="Layer_1-2">
		<path class="st0" d="M22.2,12.9c-1.1,0.2-2.3,0.2-3.5,0c-1.4-0.1-2.7-0.3-4-0.7c-0.5-0.1-4.6-1.8-4.4-2.6c0-0.1,0-0.1,0-0.2
			c0.9-1.1,1.8-2.1,2.7-3c0.8-0.8,1.6-1.4,2.6-1.8C16.7,4.4,17,6.5,17.3,7c0.1,0.2,0.4,0.1,0.5,0c1-1.7,3.9-3.7,1.4-5.2
			c-1.2-0.8-2.4-1.3-3.8-1.7c-1.5-0.2-3-0.2-4.4,0.1c-0.1,0-0.3,0.1-0.3,0.2s0.1,0.3,0.2,0.3C11.4,1,12,1.1,12.6,1.2
			C9.8,1.8,7.1,3.1,5,5.1C4.9,5,4.9,4.9,4.8,4.7C4.7,4.6,4.6,4.4,4.5,4.2c0.3,0,0.6,0,0.9,0c0.1,0,0.3-0.1,0.2-0.3c0,0,0,0,0-0.1
			C5.3,2.8,4.9,1.7,4.3,0.7C4.3,0.6,4.1,0.5,4,0.6C3,1.2,2.2,2.1,1.6,3.1C0.7,4.2,0.2,5.5,0,6.9C0,7.2,0.4,7.2,0.5,7
			c0.2-0.3,0.4-0.6,0.7-0.9C1.2,6.5,1.1,7,1.2,7.5c0,0.6,0.1,1.3,0.4,1.8c0.1,0.1,0.1,0.1,0.2,0.1c-1.1,1.9-1.5,4.1-1,6.3
			c-0.1,0-0.2,0.1-0.2,0.3c0,0,0,0.1,0,0.1c0.5,0.8,1.1,1.5,1.9,2c1,0.9,2.1,1.6,3.2,2.1c0,0.1,0.1,0.1,0.2,0.1
			c0.1,0.3,0.6,0.1,0.5-0.2c-0.2-1.4,0-2.9,0.5-4.3c0.7,0.6,1.4,1.2,2.3,1.6c1.8,1.2,3.8,1.8,5.6,2.8c0.1,0.1,0.3,0,0.3-0.1
			c0,0,0-0.1,0-0.2c1.6-0.4,3-1.3,4.1-2.4c0.6-0.6,1.2-1.3,1.8-2c0.5-0.7,0.7-1.6,1.4-2.1C22.7,13.3,22.5,12.8,22.2,12.9z M1.7,7.6
			C1.6,7,1.7,6.5,1.8,5.9c0,0,0-0.1,0-0.1c0.1-0.1,0.1-0.3,0-0.4c0,0-0.1-0.1-0.2-0.1c-0.4,0-0.7,0.2-0.9,0.4C1,5.1,1.4,4.4,1.8,3.7
			c0.6-1,1.3-1.8,2.2-2.5C4.4,2,4.8,2.8,5.1,3.6c-0.2,0-0.4,0-0.7,0H4.3C4.1,3.6,4,3.8,4.1,3.9C4,4.1,4,4.3,4.1,4.5
			c0.1,0.3,0.4,0.6,0.4,0.9c0,0,0,0.1,0,0.1L4.3,5.8C3.4,6.8,2.6,7.8,2,9C1.8,8.6,1.7,8.1,1.7,7.6z M6.8,14.3c-0.7,1.6-1,3.4-1,5.2
			c-0.9-0.4-1.7-0.9-2.5-1.6c-0.8-0.5-1.4-1.1-2-1.9c0.1,0,0.2-0.2,0.1-0.3c-1.2-3.3,1.1-7.3,3.3-9.7c2.5-2.7,6-4.4,9.7-4.7
			c0.1,0,0.3-0.1,0.3-0.3c0-0.1-0.1-0.3-0.3-0.3c-0.7-0.1-1.3-0.2-2-0.3c1.7-0.2,3.5,0.1,5,0.9c0.4,0.2,0.7,0.4,1.1,0.6
			c0.3,0.2,0.6,0.3,0.9,0.5c0.2,0.7,0,1.4-0.5,1.9c-0.5,0.6-0.9,1.2-1.4,1.8c-0.4-1.2-0.5-2.6-2.2-1.9c-2,0.8-3.5,2.7-4.9,4.3
			C8.9,10.3,7.7,12.3,6.8,14.3z M21.3,13.9c-0.4,0.8-0.9,1.6-1.5,2.3c-1.3,1.6-3.1,2.8-5.1,3.3h-0.1c-1.4-0.8-3-1.3-4.4-2.2
			c-0.6-0.4-1.1-0.7-1.7-1.1c-0.2-0.1-1.3-1-1.3-0.9c0-0.1,0-0.2-0.1-0.3l0.1-0.2c0.6-1.8,1.5-3.4,2.7-4.9c0.4,1,2.8,2,3.5,2.3
			c1.4,0.6,2.9,0.9,4.5,1.1c1.2,0.2,2.4,0.3,3.6,0.2L21.3,13.9z"/>
	</g>
</g>
</svg>
