<?xml version="1.0" encoding="utf-8"?>
<!-- Generator: Adobe Illustrator 22.0.1, SVG Export Plug-In . SVG Version: 6.00 Build 0)  -->
<svg version="1.1" id="Layer_1" xmlns="http://www.w3.org/2000/svg" xmlns:xlink="http://www.w3.org/1999/xlink" x="0px" y="0px"
	 viewBox="0 0 23.4 17.1" style="enable-background:new 0 0 23.4 17.1;" xml:space="preserve">
<style type="text/css">
	.st0{fill:#010101;}
</style>
<title>Asset 7</title>
<g id="Layer_2_1_">
	<g id="Layer_1-2">
		<path class="st0" d="M23.4,15.2c0-1.4-0.1-2.7-0.4-4.1c0-0.1-0.1-0.2-0.3-0.2c-1.4,0-2.8,0.1-4.1,0.1c-0.2-1.3,0.3-3.6-1.2-4
			c-1.1-0.1-2.2-0.1-3.2,0h-2c-0.9,0-0.8-0.4-0.9-1.2h0.6c0.8-0.1,1.6-0.1,2.5,0c0.1,0.1,0.2,0.1,0.3,0h0.1l0,0c0.1,0,0.2,0,0.3,0
			c0.4-0.2,0.2-1.2,0.2-1.5c0-1.4-0.2-2.7-0.4-4.1c0-0.1-0.1-0.2-0.3-0.2c-2.1,0-4.2,0.1-6.3,0.1C8,0.1,7.8,0.2,7.8,0.4
			c0,0,0,0.1,0,0.1H7.8c-0.1,0-0.3,0.1-0.3,0.3c0,0,0,0,0,0c0,1.5,0.2,3.1,0.3,4.6c-0.1,0.1-0.1,0.3,0,0.4c0.1,0,0.1,0.1,0.2,0.1
			h1.9c-0.1,0.3-0.1,0.7,0,1C7.8,7,5.7,7,3.6,7.1c-0.1,0-0.3,0.1-0.3,0.3C3.3,8.7,3.5,10,3.6,11.3c-1,0-2,0.1-3,0.1
			c-0.1,0-0.3,0.1-0.3,0.2c0,0,0,0.1,0,0.1H0.3C0.1,11.7,0,11.9,0,12c0,1.6,0.2,3.1,0.3,4.6c-0.1,0.1-0.1,0.3,0.1,0.4
			c0,0,0.1,0.1,0.2,0.1C1.8,17.1,3,17,4.3,17c0.8-0.1,1.6-0.1,2.5,0c0.1,0.1,0.2,0.1,0.3,0.1h0.1l0,0c0.1,0,0.2,0,0.3,0
			c0.4-0.2,0.2-1.2,0.2-1.5c0-1.4-0.2-2.7-0.4-4.1c0-0.1-0.1-0.2-0.3-0.2H5.5c0-0.1,0-0.2-0.1-0.2c-0.2-0.1-0.1-0.8,0-1
			c-0.1-0.4,0-0.7,0.3-1C6,9,6.4,9,6.7,9C7.8,9,8.9,9,10,8.8c0,0.8,0.1,1.6,0.1,2.3H8.5c-0.1,0-0.3,0.1-0.3,0.2c0,0,0,0.1,0,0.1H8.1
			c-0.1,0-0.3,0.1-0.3,0.3c0,1.6,0.2,3.1,0.3,4.6C8,16.5,8,16.7,8.2,16.8c0,0,0.1,0.1,0.2,0.1c1.3,0,2.6-0.1,3.8-0.1
			c0.8-0.1,1.6-0.1,2.5,0c0.1,0.1,0.2,0.1,0.3,0H15l0,0c0.1,0,0.2,0,0.3,0c0.4-0.2,0.2-1.2,0.2-1.5c0-1.4-0.2-2.7-0.4-4.1
			c0-0.1-0.1-0.2-0.3-0.2c-1,0-2,0-3,0.1c0,0,0-0.1,0-0.1c-0.1-0.5-0.4-2.3,0.5-2.4c0.6,0,1.3,0,1.9,0s1.3,0,2,0
			c1-0.1,0.9,1.8,0.8,2.4h-0.4c-0.1,0-0.3,0.1-0.3,0.3c0,0,0,0,0,0.1h-0.1c-0.1,0-0.3,0.1-0.3,0.3c0,0,0,0,0,0
			c0,1.6,0.2,3.1,0.3,4.6c-0.1,0.1-0.1,0.3,0.1,0.4c0,0,0.1,0.1,0.2,0.1c1.3,0,2.5-0.1,3.8-0.1c0.8-0.1,1.7-0.1,2.5,0
			c0.1,0.1,0.2,0.1,0.3,0.1H23l0,0c0.1,0,0.2,0,0.3,0C23.6,16.5,23.4,15.5,23.4,15.2z M8.3,5.3c0-0.5-0.1-0.9-0.1-1.4
			c0,0,0-0.1,0-0.1V3.7c0,0,0-0.1,0-0.1C8.1,2.8,8,1.9,8,1.1C8.1,1,8.2,0.9,8.1,0.7V0.7l0,0c0.7,0,6-0.5,6.1,0.1
			c0.1,0.3,0.6,4,0.4,4.5l0,0c-0.8-0.1-1.5-0.1-2.3,0C10.9,5.2,9.6,5.3,8.3,5.3z M6.7,12c0.1,0.3,0.6,4,0.4,4.5l0,0
			c-0.8-0.1-1.5-0.1-2.3,0c-1.3,0-2.6,0-4,0.1c0-1.4-0.3-2.8-0.3-4.2c0.1-0.1,0.1-0.2,0.1-0.3v-0.1l0,0c0.4,0,1.7-0.1,3.1-0.2
			c0.1,0.1,0.3,0.1,0.4,0c0,0,0,0,0,0C5.4,11.7,6.7,11.7,6.7,12z M14.6,11.8c0.1,0.3,0.6,4,0.4,4.5l0,0c-0.8-0.1-1.5-0.1-2.3,0
			c-1.3,0-2.6,0-4,0.1c0-1.4-0.3-2.8-0.3-4.2c0.1-0.1,0.2-0.2,0.1-0.4v-0.1l0,0C9.2,11.7,14.4,11.2,14.6,11.8L14.6,11.8z M14.5,8.1
			c-0.7,0-1.4,0-2.1,0c-0.3-0.1-0.7,0-1,0.2c-0.7,0.6-0.4,2-0.2,2.8h-0.6c0-0.9-0.1-1.8-0.1-2.7c0-0.1-0.1-0.3-0.3-0.3
			c0,0,0,0-0.1,0c-1,0.2-2,0.2-3.1,0.2c-0.5,0-1.6-0.2-2,0.2s-0.3,1-0.3,1.6c-0.1,0.4,0,0.7,0.1,1.1H4.1C4.1,10,3.9,8.8,3.9,7.6
			C6,7.6,8,7.5,10.1,7.4c0.1,0,0.3-0.1,0.3-0.3c0-0.4-0.2-0.9,0-1.3l0,0h0.3c0,0.5,0.1,1,0.2,1.5c0,0.1,0.1,0.3,0.3,0.3
			c1.6,0,3.1,0,4.7,0c0.9,0,1.9-0.1,1.9,1.1c0,0.8,0.1,1.6,0.3,2.4h-0.6c0.2-0.8,0.1-1.7-0.3-2.5C16.7,7.8,15.1,8.2,14.5,8.1
			L14.5,8.1z M22.9,16.1L22.9,16.1c-0.8-0.1-1.5-0.1-2.3,0c-1.3,0-2.6,0-4,0.1c0-1.4-0.3-2.8-0.3-4.2c0.1-0.1,0.2-0.2,0.1-0.4v-0.1
			l0,0c0.7,0,6-0.5,6.1,0.1C22.6,12,23.2,15.7,22.9,16.1L22.9,16.1z"/>
	</g>
</g>
</svg>
