<?xml version="1.0" encoding="utf-8"?>
<!-- Generator: Adobe Illustrator 22.0.1, SVG Export Plug-In . SVG Version: 6.00 Build 0)  -->
<svg version="1.1" id="Layer_1" xmlns="http://www.w3.org/2000/svg" xmlns:xlink="http://www.w3.org/1999/xlink" x="0px" y="0px"
	 viewBox="0 0 22.9 24.1" style="enable-background:new 0 0 22.9 24.1;" xml:space="preserve">
<style type="text/css">
	.st0{fill:#010101;}
</style>
<title>Asset 14</title>
<g id="Layer_2_1_">
	<g id="Layer_1-2">
		<path class="st0" d="M15,7.3c-2.7-1.3-6.2-1.4-8.3,1c-0.9,1-1.4,2.4-1.2,3.8c0.2,1.7,1.7,3.5,0.8,5.3l0,0
			c-0.4,0.2-0.5,0.6-0.4,0.9c-0.4,0.2-0.6,0.6-0.5,1c-0.3,0-0.6,0.4-0.6,0.8c0,0.4,0.1,0.7,0.3,1c-0.9,0.9,0,2.1,0.8,2.6
			s2.9,0.9,3.4-0.4c0.1-0.2,0-0.3-0.2-0.4c-0.1,0-0.2,0-0.3,0c-0.6,0.5-1.6,0.7-2.3,0.3c-0.4-0.2-0.7-0.4-1-0.7
			c-0.1-0.2-0.4-0.9-0.2-1.1c0.3,0.4,0.6,0.7,1,1c0.8,0.7,2,0.8,2.9,0.3c0.5-0.2,1.3-0.8,1.3-1.4l0.3-0.1c0.5-0.3,0.9-1,0.5-1.4
			c0-0.1,0.1-0.1,0.1-0.2c0.1,0.1,0.4,0.1,0.5,0c0,0,0.1-0.1,0.1-0.1c0.5-1.5,2.1-2,3.4-2.5c1.1-0.4,2-1.2,2.5-2.2
			C19.2,11.8,17.5,8.5,15,7.3z M7.3,22.3c-0.5-0.2-1-0.6-1.4-1.1c-0.1-0.1-0.2-0.3-0.3-0.4c-0.1-0.1-0.5-1.1-0.2-1.3c0,0,0,0,0,0.1
			c0.2,1,1.3,1.3,2.1,1.6c0.6,0.2,1.2,0.3,1.9,0.3C8.9,22.2,8,22.5,7.3,22.3L7.3,22.3z M7.8,20.6c-0.5-0.1-1-0.3-1.4-0.6
			c-0.3-0.1-0.7-1-0.3-1.4l0,0c0.6,0.8,1.5,1.3,2.4,1.5c0.7,0.2,1.4,0.2,2.1-0.1C10.6,21.1,8.2,20.7,7.8,20.6L7.8,20.6z M8.9,14.4
			c0-0.8,0-1.6-0.1-2.4c0.3,0.2,0.6,0.3,1,0.3c0,0,0,0.1,0,0.1c0.4,0.5,1,0.6,1.5,0.4c0.1,0.2,0.2,0.3,0.4,0.4
			c0.2,0.1,0.4,0.1,0.6,0.1c0.4,0,0.8,0.1,1.1,0.3c-1.8,1.3-3.7,2.7-4.6,4.8l-0.2-0.1c-0.1-0.1-0.3-0.1-0.4-0.2c0,0,0.1,0,0.1,0
			C8.8,16.9,9,15.6,8.9,14.4z M9.1,19.1c0.4,0.2,0.9,0.3,1.4,0.3c-0.7,0.9-4.7-0.3-4.1-1.7l0,0c0.3,0.2,0.6,0.4,0.9,0.5
			C7.9,18.5,8.5,18.8,9.1,19.1z M15.7,15.8c-1.6,0.9-3.6,1.2-4.4,2.9c0-0.1-0.1-0.1-0.2-0.1c-0.3,0-0.6,0.2-0.9,0.2
			c-0.2,0-0.4,0-0.7-0.1c0.9-2.1,2.9-3.5,4.7-4.8c0.1-0.1,0.2-0.3,0.1-0.5c0,0,0,0-0.1-0.1c-0.3-0.3-0.6-0.5-0.9-0.6
			c-0.3-0.1-1.4,0-1.3-0.3c0-0.2-0.1-0.4-0.3-0.4c-0.1,0-0.1,0-0.2,0c-0.4,0.3-0.7,0.3-0.9-0.2c0-0.1,0.1-0.1,0.1-0.2
			c0.1-0.2,0-0.4-0.2-0.4c-0.1,0-0.2,0-0.3,0c-0.2,0.1-0.3,0.2-0.4,0.4c-0.4,0.1-1.1-0.5-1.3-0.8S7.9,10.7,8,11.1
			c0.3,1.2,0.4,2.4,0.3,3.6c0,1-0.1,2.1-0.3,3.1c-0.3-0.2-0.7-0.4-1.1-0.5c1-2-0.9-4.3-0.8-6.4c0.1-1.7,1.6-3,3.1-3.6
			c1.7-0.6,3.6-0.4,5.2,0.4C17.4,9,19.1,13.8,15.7,15.8z"/>
		<path class="st0" d="M2.6,14.1c-0.3-0.2-0.8-0.1-1.2,0l-0.7,0.1H0.4c-0.1,0-0.2,0-0.1,0c-0.1-0.1-0.2,0-0.3,0.1c0,0.1,0,0.2,0,0.3
			c0.3,0.2,0.8,0.1,1.1,0.1s1.2,0,1.4-0.4C2.6,14.2,2.6,14.1,2.6,14.1z"/>
		<path class="st0" d="M2.7,7.6C2.4,7.3,2,7,1.6,6.9C1.4,6.8,1.2,6.7,1,6.6c-0.1-0.1-0.2-0.1-0.3,0c-0.1,0.1-0.1,0.2,0,0.3
			C0.7,7,0.7,7,0.8,7l0,0L1,7.2c0.2,0.1,0.4,0.2,0.5,0.3c0.3,0.2,0.6,0.3,1,0.4C2.6,7.8,2.7,7.7,2.7,7.6C2.7,7.6,2.7,7.6,2.7,7.6z"
			/>
		<path class="st0" d="M8.4,2.8c0-0.4-0.4-0.8-0.6-1.2C7.7,1.1,7.5,0.7,7.4,0.2C7.3-0.1,6.9,0,6.9,0.3c0.1,0.5,0.3,1,0.4,1.5
			c0.2,0.4,0.4,1,0.9,1.1C8.3,2.9,8.4,2.9,8.4,2.8C8.5,2.8,8.5,2.8,8.4,2.8z"/>
		<path class="st0" d="M16.5,1.8c0-0.1,0-0.3-0.1-0.3c-0.1,0-0.3,0-0.3,0.1c-0.4,1-1.5,1.8-1.6,2.9c0,0.1,0.1,0.3,0.3,0.1
			C15.5,3.8,16.1,2.8,16.5,1.8z"/>
		<path class="st0" d="M22.8,7.2c-0.8-0.8-2.4,0-3.4,0c-0.3,0-0.3,0.5,0,0.5c0.5,0.1,1.1,0,1.6-0.1c0.6-0.1,1.1-0.1,1.7-0.1
			C22.8,7.5,22.9,7.4,22.8,7.2C22.9,7.3,22.9,7.2,22.8,7.2z"/>
		<path class="st0" d="M22.9,14.2c0-1-1.2-0.9-1.7-1.3c-0.2-0.2-0.5,0.1-0.3,0.4c0.5,0.6,1.3,0.6,1.8,1.1
			C22.7,14.3,22.8,14.3,22.9,14.2C22.9,14.2,22.9,14.2,22.9,14.2z"/>
		<path class="st0" d="M17.7,21.8c-0.1-0.3-0.5-0.6-0.7-0.8s-0.4-0.3-0.6-0.5l-0.2-0.2c-0.1-0.1,0-0.1-0.1,0
			c0.1-0.3-0.3-0.5-0.5-0.3c-0.2,0.4,0.3,0.9,0.6,1.1s0.9,1,1.4,0.9C17.7,22,17.8,21.9,17.7,21.8C17.7,21.8,17.7,21.8,17.7,21.8z"/>
	</g>
</g>
</svg>
