<svg width="270" height="107" xmlns="http://www.w3.org/2000/svg" viewBox="0 0 270 107" preserveAspectRatio="xMidYMid meet">
  <g fill="none" fill-rule="evenodd">
    <path d="M110.302 63.039c.78-3.51 1.52-6.942 2.223-10.296.286-1.404.585-2.886.897-4.446.312-1.56.61-3.094.897-4.602.286-1.508.559-2.964.819-4.368.26-1.404.48-2.691.663-3.861a31.651 31.651 0 0 1 2.223-.605 37.993 37.993 0 0 1 2.242-.448c.767-.13 1.489-.195 2.165-.195 1.17 0 2.151.195 2.944.585a5.25 5.25 0 0 1 1.93 1.58c.495.663.846 1.436 1.054 2.32.208.884.312 1.833.312 2.847 0 1.456-.267 2.86-.8 4.212a12.694 12.694 0 0 1-2.145 3.608 10.707 10.707 0 0 1-3.08 2.515c-1.158.624-2.36.936-3.608.936h-.43a51.12 51.12 0 0 0-.584 2.886c-.182 1.04-.338 2.002-.468 2.886a129.78 129.78 0 0 0-.507 3.12l-6.747 1.326zm10.023-19.227a685.073 685.073 0 0 1-.936 4.914c.416-.104.851-.344 1.306-.721.455-.378.878-.871 1.268-1.483.39-.61.702-1.319.936-2.125a9.047 9.047 0 0 0 .35-2.535c0-.962-.214-1.69-.643-2.184-.429-.494-.903-.741-1.423-.741a258.705 258.705 0 0 1-.858 4.875zm13.951 18.018c-.897.052-1.8.13-2.71.234-.91.104-1.801.24-2.672.41a18.83 18.83 0 0 0-2.36.604c.157-1.17.338-2.47.547-3.9.208-1.43.448-2.912.721-4.446.273-1.534.546-3.081.819-4.641.273-1.56.552-3.055.839-4.485.65-3.406 1.338-6.877 2.067-10.413l6.825-.897c-.703 3.016-1.378 5.954-2.028 8.814-.287 1.222-.572 2.49-.858 3.803a432.949 432.949 0 0 0-.82 3.841 125.53 125.53 0 0 0-.701 3.627 94 94 0 0 0-.507 3.12c.65-.052 1.345-.084 2.086-.097.741-.014 1.397-.02 1.97-.02a26.624 26.624 0 0 0 .292 2.769c.065.39.117.734.156 1.034.039.299.071.5.098.604-.209 0-.41-.006-.605-.02a9.091 9.091 0 0 0-.604-.019c-.807 0-1.658.026-2.555.078zm16.642.741l-2.106.351c.104-.858.208-1.703.312-2.535.078-.728.15-1.456.215-2.184.065-.728.123-1.352.175-1.872h-3.393l-1.56 5.616c-.572.078-1.248.162-2.028.253-.78.092-1.508.176-2.184.254-.832.104-1.65.208-2.457.312 1.04-3.458 2.067-6.864 3.081-10.218l1.307-4.407c.455-1.534.91-3.061 1.365-4.582.455-1.522.89-2.984 1.306-4.388.416-1.404.78-2.691 1.092-3.861 1.768-.13 3.569-.286 5.402-.468a69.185 69.185 0 0 0 5.362-.741c-.078.832-.162 1.865-.253 3.1a202.92 202.92 0 0 0-.254 4.037 1044.68 1044.68 0 0 0-.234 4.563c-.078 1.586-.156 3.146-.234 4.68-.13 3.588-.273 7.397-.429 11.427-.78.13-1.56.234-2.34.312-.65.104-1.365.221-2.145.351zm-3.86-10.14c.103 0 .292-.006.565-.02l.858-.038c.299-.014.578-.026.838-.04.26-.013.442-.032.546-.058 0-.156.02-.422.059-.8.039-.377.078-.805.117-1.287.039-.48.084-1.007.136-1.579.052-.572.104-1.131.156-1.677.104-1.326.234-2.756.39-4.29l.234-3.393-.585.039-.897 3.354-2.418 9.789zm9.68 10.608c.78-3.64 1.508-7.176 2.184-10.608.26-1.482.533-3.016.819-4.602.286-1.586.552-3.159.8-4.719.246-1.56.467-3.074.662-4.544a89.67 89.67 0 0 0 .449-3.997c.598.052 1.274.097 2.028.136.754.04 1.456.085 2.106.137.78.052 1.56.078 2.34.078-.026.104-.065.299-.117.585-.052.286-.117.63-.195 1.033-.078.404-.163.852-.254 1.346-.09.494-.188.988-.292 1.482l-.702 3.861.234-.039c.26-.416.63-.994 1.111-1.736.481-.74.982-1.527 1.502-2.359.52-.832 1.027-1.631 1.52-2.399.495-.767.91-1.423 1.249-1.969 1.3-.104 2.6-.221 3.9-.351 1.3-.13 2.6-.299 3.9-.507a373.384 373.384 0 0 0-3.55 4.836c-.493.676-.994 1.378-1.5 2.106-.508.728-1.008 1.443-1.502 2.145a82.448 82.448 0 0 0-2.535 3.822 83.342 83.342 0 0 0 2.028 7.605c.78 2.444 1.573 4.94 2.379 7.488a81.1 81.1 0 0 0-3.666-.078 118.065 118.065 0 0 0-4.368.078 655.06 655.06 0 0 0-.76-5.324 654.972 654.972 0 0 1-.761-5.323l-.702.819c-.182.78-.384 1.742-.605 2.886-.22 1.144-.435 2.249-.643 3.315a475.547 475.547 0 0 1-.741 3.861l-6.318.936zm30.819-.468l-2.106.351c.104-.858.207-1.703.311-2.535.078-.728.15-1.456.215-2.184.065-.728.124-1.352.175-1.872h-3.392l-1.56 5.616c-.573.078-1.248.162-2.028.253-.78.092-1.508.176-2.184.254-.833.104-1.651.208-2.458.312 1.04-3.458 2.067-6.864 3.082-10.218l1.306-4.407c.455-1.534.91-3.061 1.365-4.582.455-1.522.89-2.984 1.306-4.388.417-1.404.78-2.691 1.093-3.861 1.768-.13 3.568-.286 5.401-.468a69.185 69.185 0 0 0 5.363-.741c-.078.832-.163 1.865-.254 3.1a202.92 202.92 0 0 0-.254 4.037 1044.68 1044.68 0 0 0-.233 4.563l-.235 4.68c-.13 3.588-.272 7.397-.428 11.427-.78.13-1.56.234-2.34.312-.65.104-1.365.221-2.145.351zm-3.861-10.14c.104 0 .292-.006.565-.02l.858-.038c.299-.014.578-.026.839-.04.26-.013.441-.032.546-.058 0-.156.019-.422.058-.8.039-.377.078-.805.117-1.287.039-.48.084-1.007.136-1.579l.156-1.677c.105-1.326.234-2.756.39-4.29l.234-3.393-.584.039-.898 3.354-2.417 9.789zm4.563-20.494a477.052 477.052 0 0 0-4.953 1.813 8.68 8.68 0 0 1-.04-.78v-.702c0-.416.007-.838.02-1.268.013-.429.02-.877.02-1.345a116.329 116.329 0 0 1 4.992-4.797 62.494 62.494 0 0 0 4.368-4.329c.13 1.742.201 3.367.214 4.875.013 1.508.123 3.055.332 4.641a131.23 131.23 0 0 1-4.953 1.891zm8.354 31.102c.598-2.86 1.17-5.681 1.716-8.463.234-1.17.468-2.392.702-3.666.234-1.274.462-2.528.683-3.763.22-1.236.416-2.431.585-3.588.169-1.158.318-2.217.448-3.179a10.533 10.533 0 0 0-1.813-.078 5.398 5.398 0 0 1-1.814-.234c.026-.416.04-.897.04-1.443s.012-1.092.038-1.638c.026-.598.052-1.235.078-1.911a52.996 52.996 0 0 0 4.056.156c1.326 0 2.607-.032 3.842-.097 1.235-.066 2.379-.143 3.432-.234a75.506 75.506 0 0 0 3.1-.332l-.429 2.106c-.13.598-.253 1.209-.37 1.833a36.458 36.458 0 0 1-.332 1.599 11.35 11.35 0 0 1-1.735.331c-.585.066-1.164.15-1.736.254-.182.884-.377 1.865-.585 2.944-.208 1.08-.41 2.197-.604 3.354a224.066 224.066 0 0 0-.566 3.53 246.26 246.26 0 0 1-.546 3.432 279.646 279.646 0 0 0-1.17 7.995l-7.02 1.092zm31.618-15.113c-.455 1.886-1.06 3.614-1.813 5.188-.754 1.573-1.632 2.976-2.633 4.212-1 1.235-2.047 2.287-3.14 3.158-1.091.872-2.196 1.534-3.314 1.99-1.118.455-2.184.682-3.198.682-.858 0-1.638-.162-2.34-.487a5.137 5.137 0 0 1-1.833-1.444c-.52-.637-.93-1.455-1.229-2.456-.299-1.002-.448-2.204-.448-3.608 0-1.456.182-2.99.546-4.602a32.857 32.857 0 0 1 1.482-4.797 26.43 26.43 0 0 1 2.3-4.524 22.786 22.786 0 0 1 3.004-3.803c1.092-1.105 2.262-1.982 3.51-2.632 1.248-.65 2.548-.975 3.9-.975 1.17 0 2.138.24 2.905.721a5.153 5.153 0 0 1 1.794 1.873c.43.767.735 1.631.917 2.593.182.962.273 1.924.273 2.886 0 2.132-.228 4.14-.683 6.025zm-13.981 7.118c.104.312.247.585.429.819.182.234.41.435.682.605.273.169.566.253.878.253 1.17 0 2.21-.403 3.12-1.209.91-.806 1.664-1.794 2.262-2.964a17.181 17.181 0 0 0 1.384-3.744c.325-1.326.488-2.535.488-3.627 0-.312-.02-.65-.059-1.014a4.13 4.13 0 0 0-.234-1.014 1.999 1.999 0 0 0-.546-.8c-.247-.22-.578-.331-.994-.331-.832 0-1.6.208-2.301.624a7.09 7.09 0 0 0-1.892 1.657 11.693 11.693 0 0 0-1.462 2.34 23.096 23.096 0 0 0-1.073 2.652 15.825 15.825 0 0 0-.643 2.633c-.13.858-.195 1.599-.195 2.223 0 .286.052.585.156.897zm14.984 8.307c.339-3.64.65-7.215.936-10.725.13-1.456.254-2.99.371-4.602.117-1.612.221-3.204.312-4.778.091-1.573.162-3.093.214-4.563.052-1.469.091-2.814.118-4.036.624 0 1.293-.013 2.008-.039.715-.026 1.365-.052 1.95-.078a31.329 31.329 0 0 0 1.501-.098l.624-.058a623.108 623.108 0 0 1-.74 7.43c-.209 1.937-.371 3.51-.488 4.718a229.945 229.945 0 0 0-.312 3.491 118.858 118.858 0 0 1-.293 3.12 352.11 352.11 0 0 1-.273 2.457h.702l4.368-20.748a62.668 62.668 0 0 0 2.145-.117c.65-.052 1.333-.091 2.048-.117a21.275 21.275 0 0 0 1.97-.156 96.704 96.704 0 0 0-1.112 3.783c-.377 1.378-.767 2.808-1.17 4.29-.403 1.482-.793 2.99-1.17 4.524a554.974 554.974 0 0 1-1.112 4.446 881.756 881.756 0 0 0-2.495 10.335l-10.102 1.521z" style="fill: currentColor;"></path>
    <path d="M89.5 11a4.5 4.5 0 0 0-4.5 4.5v61a4.5 4.5 0 0 0 4.5 4.5h173a4.5 4.5 0 0 0 4.5-4.5v-61a4.5 4.5 0 0 0-4.5-4.5h-173zm0-3h173a7.5 7.5 0 0 1 7.5 7.5v61a7.5 7.5 0 0 1-7.5 7.5h-173a7.5 7.5 0 0 1-7.5-7.5v-61A7.5 7.5 0 0 1 89.5 8z" style="fill: currentColor;" fill-rule="nonzero"></path>
    <path d="M42.279 54.097c.152.04.258.038.32-.098.016-.034.015-.06-.021-.073-.143-.055-.205.054-.3.171zm-30.63 42.23a.884.884 0 0 0-.494.255c-.321.329-.631.669-.942 1.008-.039.042-.09.108-.082.154.07.379-.163.678-.247 1.016-.128.515-.305 1.034-.062 1.566a.29.29 0 0 1 .012.18c-.11.384-.125.79-.264 1.167-.06.162-.201.376.018.477.192.09.325-.11.428-.268.041-.064.072-.134.105-.203.152-.322.23-.66.231-1.018 0-.136-.003-.287.05-.409.248-.573.435-1.17.641-1.758.085-.245.207-.475.354-.695.232-.343.452-.697.603-1.087.106-.277.03-.386-.35-.384zm-2.49 2.611c-.16.326-.321.65-.477.977a.853.853 0 0 1-.29.346c-.372.268-.724.555-.96.966-.333.583-.672 1.162-1.073 1.704-.156.21-.415.425-.088.72.065.059.022.208-.047.3-.037.048-.091.087-.12.139-.078.142-.107.297-.012.437.085.126.231.067.342.053.5-.068.97-.233 1.388-.526a.759.759 0 0 0 .313-.389c.12-.384.483-.686.374-1.15-.025-.11.096-.181.16-.267.285-.382.432-.803.383-1.291-.02-.21-.028-.44.032-.636.142-.451.105-.91.075-1.383zm83.868-36.105c-.028-.001-.088-.006-.15-.008-.84-.028-1.642.722-1.744 1.569-.05.421.216.694.698.75.122.013.261-.023.365.025.259.118.47.042.696-.086.201-.112.421-.186.656-.2.23-.011.436.084.437.311.005.321.173.29.382.27.214-.022.425-.03.63-.114.635-.259 1.195-.592 1.523-1.242.163-.328.192-.844-.035-1.128-.115-.143-.238-.297-.463-.195-.108.05-.208.015-.31-.032-.54-.248-1.1-.271-1.654-.076-.329.116-.66.14-1.03.156zm1.78-4.255c-.718.005-1.318.323-1.814.792-.644.609-.713 1.387-.457 2.208.02.063.047.123.112.134.25.042.484.23.753.09.186-.097.368-.044.534.028.271.117.54.097.811.03.195-.05.39-.11.59-.07.706.145 1.305-.13 1.902-.454.414-.225.567-.624.765-1.001.165-.316.165-.314-.093-.59-.063-.066-.128-.134-.178-.209-.169-.26-.418-.407-.7-.493-.64-.193-1.336-.146-1.95-.46-.074-.038-.182-.005-.274-.005zm-47.62 42.684a93.517 93.517 0 0 0-.519-3.327c-.045-.259-.21-.474-.324-.708-.057-.115-.143-.15-.264-.119-.76.201-1.534.317-2.302.467-.215.043-.3.17-.313.384-.029.446-.032.897.05 1.334.244 1.317.357 2.652.545 3.977l3.127-2.008zm-7.706 1.994c.148-.991.264-1.984.311-2.982.039-.784.014-1.571.029-2.357.006-.291-.027-.38-.3-.34-.309.049-.607-.013-.909-.012-.2 0-.4-.02-.532-.025-.236.016-.404.036-.573.039-.689.01-.689.009-.834.683-.01.046-.018.092-.025.137-.25 1.563-.554 3.119-.735 4.689l3.568.168zM5.8 96.473c.082-.052.122-.072.155-.1.142-.119.29-.283.475-.101.155.153.197.349.014.53a.301.301 0 0 0-.1.247c.031.442-.21.751-.491 1.044-.107.111-.224.218-.302.348-.315.527-.61 1.067-.925 1.595-.202.34-.298.751-.603 1.024-.276.247-.432.57-.52.9-.15.556-.523.97-.826 1.421-.398.597-.512 1.229-.466 1.918.01.16.103.195.236.224a.655.655 0 0 0 .602-.148c.104-.09.216-.168.321-.254.384-.306.76-.622 1.117-.96.18-.171.014-.362.11-.51.116-.182.373-.011.525-.217.523-.72 1.077-1.419 1.619-2.127a.44.44 0 0 0 .1-.204c.025-.328.213-.573.392-.823.19-.262.361-.533.517-.818.278-.511.613-.997.857-1.524.113-.24.242-.427.452-.55.409-.242.706-.605.973-.969.355-.481.782-.84 1.298-1.123.204-.111.354-.132.532.042.173.17.382.242.631.14.135-.056.827.135.924.234.042.045.1.099.101.15.009.412.224.763.321 1.148.16.624.355 1.235.715 1.778.119.18.23.364.346.543.151.236.314.463.631.564.27.085.46.355.544.635.12.4.292.562.698.55.246-.01.487-.052.72-.144.457-.181.545-.34.527-.84-.024-.638-.416-1.114-.7-1.632-.204-.371-.489-.702-.65-1.102-.148-.371-.292-.742-.54-1.064-.035-.047-.043-.114-.07-.17-.306-.632-.22-1.32-.283-1.987-.024-.247.067-.543.012-.744-.158-.567-.228-1.163-.53-1.696-.235-.414-.263-.47-.685-.282-.098.044-.197.092-.3.116-.127.03-.272.01-.312-.127-.06-.2-.168-.403-.081-.624.347-.882.536-1.828 1.092-2.623.223-.317.319-.695.503-1.034.406-.746.898-1.435 1.308-2.175.395-.714.689-1.485 1.108-2.18.677-1.12 1.172-2.337 1.88-3.437.14-.22.266-.458.343-.704.242-.77.675-1.445 1.039-2.154.377-.738.778-1.464 1.171-2.195.106-.198.096-.362-.071-.536-.555-.574-1.184-1.072-1.658-1.724-.102-.142-.251-.171-.368.025-.1.172-.218.336-.32.507-.622 1.056-1.14 2.174-1.853 3.177-.17.238-.371.456-.516.708-.467.811-.872 1.656-1.372 2.45-.364.583-.665 1.21-1.056 1.778-.389.565-.586 1.248-1.082 1.746-.086.086-.126.211-.196.312-.294.418-.39.929-.637 1.366-.634 1.121-1.194 2.281-1.873 3.377a1.18 1.18 0 0 0-.174.47c-.052.401-.421.672-.449 1.085-.391.395-.59.875-.64 1.426-.024.25-.26.556-.454.588-.269.044-.431-.103-.542-.331-.01-.024-.047-.036-.092-.068-.54.608-.953 1.31-1.403 1.985-.539.804-.88 1.72-1.384 2.546-.223.367-.446.777-.385 1.304zM92.06 62.289c-.38-.444-.427-.989-.45-1.51-.025-.591.183-1.144.565-1.612.173-.214.303-.485.566-.597.43-.183.805-.493 1.299-.535.6-.05 1.168-.329 1.788-.275.156.014.26-.032.313-.197.047-.146.16-.216.321-.206.465.03.86-.206 1.241-.4.997-.51 1.848-1.248 2.752-1.904.252-.183.487-.42.591-.749.054-.17.178-.316.381-.245.232.08.277-.098.324-.223.1-.266.069-.553.004-.82-.062-.263-.285-.35-.573-.27-.118.032-.23.09-.353.01-.087-.055-.175-.021-.261.021-.263.129-.555.216-.783.39-.632.482-1.367.754-2.08 1.069-.296.13-.523.383-.851.447-.259.05-.486.187-.727.282-.525.206-1 .55-1.568.63-.602.086-1.15.328-1.716.52-.32.108-.666.179-.941.358-.23.148-.433.2-.683.165-.123-.017-.256-.037-.332.093-.191.33-.538.488-.8.74-.2.191-.397.383-.578.595-.162.19-.094.452-.235.643-.202.274-.224.59-.245.92-.031.523-.136 1.036-.39 1.506-.11.2-.43.3-.631.192-.187-.1-.217-.317-.064-.552.42-.651.562-1.327.175-2.042-.13-.24-.092-.43.068-.634.122-.154.236-.317.123-.544-.057-.12.04-.234.12-.331.131-.153.277-.29.437-.41.367-.277.72-.576 1.022-.923.617-.71 1.108-1.514 1.646-2.282.26-.372.204-.723.084-1.088-.152-.465-.347-.518-.743-.236a.798.798 0 0 0-.188.196c-.065.09-.145.159-.23.224-.194.147-.39.273-.618.373-.32.14-.572.395-.823.653-.364.37-.754.728-1.214.989-.108.06-.222.101-.29.213a.579.579 0 0 1-.37.255c-.15.04-.28.12-.403.216a6.833 6.833 0 0 1-.95.623c-.144.08-.317.101-.447.214-.692.597-1.284 1.29-1.893 1.966-.365.403-.55.923-.833 1.38-.206.334-.345.687-.333 1.085.007.258-.14.501-.316.571-.322.13-.382.405-.505.646-.132.258-.3.397-.6.42-.364.027-.735.07-1.072.231-.734.351-1.47.693-2.281.832a1.6 1.6 0 0 0-.39.134c-.35.16-.68.375-1.043.482-.74.217-1.409.596-2.136.844-.91.311-1.78.737-2.67 1.111-.193.082-.414.118-.5.36-.02.056-.13.125-.188.116-.398-.073-.794-.16-1.19-.253-.047-.011-.084-.087-.117-.138-.274-.425-.704-.623-1.15-.796-.128-.05-.254-.09-.353-.2-.2-.221-.461-.35-.737-.457-1.013-.395-2.026-.788-2.945-1.381-.064-.04-.143-.057-.216-.08-.112-.036-.194-.02-.27.096-.453.704-.909 1.406-1.32 2.134-.068.12-.104.259-.174.376-.084.142-.046.238.087.299.687.316 1.281.784 1.898 1.206.99.68 2.028 1.248 3.145 1.68.099.039.195.096.276.165.638.526 1.389.83 2.148 1.12.173.066.347.115.504-.06.086-.096.212-.107.342-.058.412.157.833.064 1.248.022.465-.047.845-.358 1.29-.467.633-.156 1.172-.521 1.746-.8.33-.16.642-.364.987-.49.747-.272 1.505-.503 2.194-.93.582-.361 1.277-.482 1.906-.757.674-.295 1.399-.452 2.06-.79.254-.132.526-.266.82-.295a.767.767 0 0 0 .523-.252.582.582 0 0 1 .582-.19c.125.026.295.072.399-.03.249-.249.5-.139.76-.05.114.04.231.076.35.11.226.066.43.16.546.387.09.176.254.301.43.322.442.052.836.283 1.292.3a4.3 4.3 0 0 1 1.125.209c.848.27 1.691.41 2.557.098.057-.02.122-.019.182-.033.653-.152 1.323-.268 1.833-.802-.23-.053-.435.006-.623.094-.238.11-.458.271-.721.067-.228-.179-.51.116-.738-.085-.13-.112-.267-.198-.45-.205-.121-.005-.178-.112-.218-.216a2.153 2.153 0 0 1 .015-1.597c.204-.51.506-.974 1.084-1.162.125-.042.228-.147.37-.241zM39.646 76.155a7.438 7.438 0 0 0-.871.07c-.849.129-1.676.36-2.538.433-1.007.088-2 .301-2.966.62-.216.072-.415.204-.66.18-.249-.024-.487.049-.726.107-.757.186-1.5.42-2.264.591-.88.197-1.727.543-2.584.837-.357.123-.368.167-.361.542.003.168.027.346-.014.505-.21.809-.238 1.642-.345 2.463-.186 1.433-.48 2.85-.691 4.279-.168 1.139-.307 2.284-.526 3.416-.07.361-.155.724-.18 1.09-.045.661-.15 1.314-.212 1.973-.13 1.391-.27 2.78-.3 4.18-.004.174.058.204.204.22.52.057 1.015-.108 1.488-.252a22.22 22.22 0 0 1 2.314-.575c.99-.189 1.998-.299 3.002-.417.57-.065 1.123-.186 1.708-.189a8.04 8.04 0 0 0 1.914-.218c.18-.045.399-.137.58-.047.345.171.692.1 1.039.063.414-.043.822-.067 1.237.01.377.07.755.141 1.142.138.101 0 .243.039.273-.097.06-.28.222-.222.364-.109.215.172.424.216.685.122.106-.038.248-.015.363.017.14.041.21-.006.233-.131.08-.466.351-.874.383-1.356.042-.658.2-1.314-.042-1.965-.005-.014-.006-.03-.013-.044-.103-.286.104-.47.245-.653.124-.16.416-.053.466.158.024.103.006.214.011.322.01.242-.019.49.245.65.107.063.139.208.09.333-.101.256-.06.52-.062.78-.007.584-.142 1.162-.081 1.75.035.343.069.39.413.407.076.005.153.002.23-.009.561-.075 1.125-.14 1.684-.233 1.012-.167 2.026-.333 3.032-.54.65-.132 1.313-.11 1.96-.245.436-.09.865-.218 1.305-.276.822-.106 1.643-.205 2.454-.374.15-.031.298-.085.448-.095.681-.05 1.364-.079 2.026-.275.056-.016.12-.01.183-.012.435-.016.496-.057.572-.475.03-.165.022-.339.015-.507-.052-1.21-.319-2.38-.63-3.543-.044-.163-.093-.327-.109-.495-.066-.688-.165-1.372-.217-2.062-.02-.27.026-.563-.097-.815-.463-.947-.548-1.965-.615-2.993-.05-.782-.133-1.562-.209-2.341-.017-.167-.031-.348-.105-.493-.15-.294-.212-.606-.24-.923-.088-.996-.419-1.944-.54-2.932-.017-.12-.004-.251-.17-.29-.428-.103-.832-.286-1.295-.28-.513.005-1.02.06-1.548-.113-.493-.16-1.061-.103-1.597-.111-.53-.01-1.062.028-1.592.026-.367-.001-.732-.038-1.1-.054-1.538-.067-3.072.059-4.608.09-.077.003-.154.005-.23.015-.64.08-1.279.155-1.97.152zm-.527-18.932c-.03-.006-.06-.016-.09-.018-.509-.011-.519-.01-.6-.478a1.166 1.166 0 0 0-.285-.615 2.515 2.515 0 0 1-.56-.94c-.102-.311-.245-.38-.515-.236a1.127 1.127 0 0 1-.712.118c-.353-.063-.67.023-.997.08-1.056.187-2.115.352-3.153.637-.782.214-1.549.465-2.24.903a9.834 9.834 0 0 0-.857.605c-.61.48-1.255.93-1.799 1.478a25.68 25.68 0 0 1-1.58 1.46c-.248.212-.424.489-.675.68a8.02 8.02 0 0 0-1.085.957c-.656.71-1.31 1.422-1.955 2.144-.153.17-.313.326-.53.429-.178.083-.34.21-.34.448-.001.202-.139.324-.26.468-.284.347-.668.588-.945.938-.436.553-.853 1.121-1.3 1.664-.151.184-.11.284.032.421.176.168.37.33.506.526.589.85 1.363 1.53 2.08 2.256.472.477.945.957 1.435 1.418.157.148.349.258.49.416.401.446.64.433.97-.059.716-1.058 1.281-2.206 1.98-3.275.21-.324.294-.707.495-1.023.225-.354.42-.748.804-.983.113-.07.181-.203.26-.318.15-.22.216-.47.311-.71.081-.203.227-.237.41-.165.27.107.384.525.209.756-.328.426-.668.842-.951 1.303-.184.3-.186.386.045.657.256.3.28.462-.017.656-.485.316-.528.814-.56 1.29-.049.703-.031 1.411-.019 2.116.02 1.078.004 2.154-.065 3.23-.01.167.014.344-.084.495-.181.279-.114.6-.145.901-.026.255.15.344.419.3.837-.135 1.647-.369 2.427-.695a3.65 3.65 0 0 1 .928-.235c.805-.108 1.58-.353 2.371-.529a88.17 88.17 0 0 1 5.124-1.006c1.259-.203 2.528-.265 3.795-.337.76-.043 1.534.033 2.267-.255.036-.014.098-.012.13.01.161.108.324.048.491.027.303-.037.612-.098.915-.084.594.029 1.186.085 1.776-.057.088-.02.18.005.272.02a5.376 5.376 0 0 0 1.548.042c.419-.052.848-.132 1.279-.026.924.226 1.866.073 2.798.13.171.012.245-.06.227-.25-.049-.521-.034-1.045-.101-1.565-.107-.824-.234-1.647-.294-2.476-.083-1.105-.306-2.187-.439-3.282-.058-.472-.146-.939-.215-1.407-.08-.558-.15-1.107-.482-1.583-.046-.068-.071-.142-.052-.219.084-.356-.08-.654-.195-.972-.15-.418-.268-.848-.462-1.249-.046-.094-.055-.207-.071-.312-.013-.087.04-.148.115-.182a.153.153 0 0 1 .202.057c.088.128.136.275.178.425.088.309.183.616.271.926.03.11.068.185.204.207.47.076.479.084.493.56.004.107.014.174.106.224.2.11.378.277.63.245.173-.021.282.076.407.174.542.422 1.064.88 1.647 1.233 1.17.714 2.1 1.729 3.221 2.5.262.179.265.223.48-.013.276-.302.606-.582.732-.988.147-.485.356-.943.562-1.402.17-.377.325-.76.507-1.131.28-.565.554-1.133.873-1.674.202-.342-.007-.626-.044-.93-.025-.202-.268-.17-.406-.252-.223-.133-.538-.133-.68-.358-.184-.293-.45-.444-.732-.6-.938-.518-1.835-1.112-2.83-1.525-1.57-.651-3.103-1.386-4.628-2.135-.302-.149-.603-.318-.923-.41-.359-.102-.684-.263-1.02-.417-.524-.24-1.013-.541-1.595-.68-.489-.118-.993-.17-1.471-.318-.427-.132-.87-.197-1.288-.336-.465-.154-.877.127-1.343.056-.407-.062-.844-.036-1.26-.108-.348-.059-.7.105-1.046-.037-.047-.02-.139.047-.202.088-.28.181-.564.345-.9.408a.424.424 0 0 0-.333.294c-.07.286-.264.51-.334.797-.119.492-.465.664-.967.513a.93.93 0 0 1 .014-.674c.287-.71.604-1.41.848-2.14.079-.24.18-.514.409-.647.125-.074.16-.136.195-.264.087-.332.205-.383.548-.419.256-.027.53.087.762-.035.382-.203.812-.27 1.202-.454.273-.129.556-.275.845-.348 1.166-.294 2.192-.92 3.292-1.37.255-.104.506-.2.772-.26.106-.024.221-.03.287-.123.155-.221.412-.257.629-.366.56-.278 1.117-.546 1.598-.98.464-.42.894-.877 1.413-1.243.314-.223.597-.537.788-.87.142-.253.266-.52.463-.728.259-.273.481-.548.53-.939.02-.153.136-.275.235-.39.102-.119.185-.245.243-.39.27-.684.577-1.356.796-2.056.123-.395.365-.834.02-1.26-.03-.037-.012-.12-.003-.178.036-.213.056-.432.122-.636.177-.547.249-1.109.285-1.679.067-1.09.005-2.176-.029-3.267-.038-1.214-.305-2.375-.637-3.526-.122-.424-.299-.863-.592-1.19-.594-.663-1.064-1.425-1.68-2.067-.098-.102-.157-.224-.221-.347a1.611 1.611 0 0 0-.539-.621c-.437-.282-.809-.65-1.26-.912-.541-.313-1.028-.718-1.59-1-.297-.149-.584-.349-.9-.42a3.315 3.315 0 0 1-.64-.22c-.268-.121-.497-.306-.758-.436-.916-.458-1.796-.987-2.76-1.354-.988-.376-1.958-.797-2.938-1.192-.12-.048-.25-.111-.411-.026.325.448.712.805 1.152 1.119.434.31.893.6 1.12 1.126.063.14.182.255.328.316.273.114.415.302.38.607-.013.112-.007.221.127.26.336.097.542.388.818.573.21.14.366.371.514.585.083.117.152.275.019.425-.225.252-.767.166-.868-.16-.101-.336-.258-.53-.638-.515-.172.007-.337-.13-.524.009-.178.133-.36.28-.615.254-.096-.009-.162.084-.225.147-.243.24-.536.413-.821.585-.286.173-.612.293-.96.13-.236-.11-.26-.182-.188-.426.067-.225.289-.303.404-.45.348-.442.801-.678 1.28-.916.17-.086.347-.152.566-.23-1.066-.434-2.111-.769-3.216-.9-.49-.058-.98-.12-1.455-.24-.954-.242-1.91-.458-2.893-.537-.477-.038-.951-.061-1.427.005a2.425 2.425 0 0 1-.73.013c-.33-.052-.68-.082-1.007-.027-.895.148-1.813.082-2.697.318a.642.642 0 0 1-.23.006c-.403-.04-.8.023-1.189.115-.258.06-.512.07-.774.082-.342.014-.701 0-.97.202.118.493.352.913.486 1.359.224.747.454 1.494.636 2.255.183.765.256 1.544.4 2.313a.397.397 0 0 1-.023.224c-.087.203-.054.404.026.585.165.366-.077.723.005 1.083.007.03-.035.092-.069.111-.216.12-.21.313-.197.52a1.15 1.15 0 0 1-.033.32c-.024.11-.08.205-.21.213-.116.006-.234-.033-.256-.15-.086-.43-.344-.78-.5-1.174a5.498 5.498 0 0 0-.484-.986c-.225-.347-.392-.733-.62-1.075-.177-.268-.3-.584-.581-.833-.024.161-.04.267-.054.374-.089.609.016 1.23-.13 1.837-.131.553-.268 1.107-.364 1.666-.14.821-.442 1.592-.707 2.374-.068.201-.165.412-.446.39-.183-.015-.33-.087-.412-.254-.09-.184-.052-.362.062-.52.089-.122.22-.204.184-.396-.098-.528-.149-1.066-.272-1.586-.093-.395-.221-.79-.462-1.134-.127.078-.127.18-.14.262-.104.592-.215 1.182-.288 1.777a31.852 31.852 0 0 1-.22 1.502c-.092.539-.21 1.085-.42 1.601a.87.87 0 0 0-.051.454c.109.642-.312 1.118-.511 1.66-.066.178-.293.267-.495.307-.344.069-.532-.025-.622-.37-.29-1.117-1.272-1.449-2.133-1.921a.133.133 0 0 0-.09-.011c-.368.083-.768.034-1.101.279a1.485 1.485 0 0 1-.447.232c-.548.162-.828.67-1.273.963-.036.023-.06.074-.074.116-.13.421-.364.821-.254 1.291a.31.31 0 0 1-.003.183c-.226.496-.02.978.094 1.44.238.962.73 1.82 1.26 2.647.189.296.431.58.772.7.206.072.382.174.568.28.4.228.842.324 1.269.12.404-.193.845-.372 1.028-.852.046-.119.157-.238.283-.18.252.11.522.088.774.16.2.058.36.168.332.425-.008.072-.004.192.039.22.309.196.312.547.439.832.301.68.79 1.19 1.392 1.607.063.043.123.092.182.14.074.06.156.144.135.23-.067.285.146.42.317.506.656.331 1.13.954 1.863 1.155.864.63 1.936.777 2.874 1.245.436.218.943.373 1.463.357a.213.213 0 0 1 .165.062c.358.333.832.363 1.271.478.41.106.82.21 1.26.157.286-.033.565.11.848.166.462.094.939.131 1.41.163.165.01.322.026.412.157.147.211.353.184.565.226.57.108 1.21-.02 1.673.474.027.03.086.053.126.048.24-.036.323.102.373.305a.346.346 0 0 0 .14.18c.303.213.436.546.605.852.105.189.21.376.311.564.228.414.58.744.756 1.194.173.44.187.434-.155.737-.034.03-.073.057-.11.084zm-3.982 45.84c.125-.616.403-2.543.439-3.172.013-.246.043-.489.067-.732.036-.367.083-.73.037-1.104-.053-.418-.034-.443-.465-.39-.838.104-1.682.113-2.522.193-.517.049-1.03.163-1.537.284-.182.043-.366.087-.542.06-.84-.137-1.68-.041-2.52-.059-.643-.016-1.279.04-1.919.051-.416.007-.802.193-1.206.283-.324.072-.668.069-.96.262a2.58 2.58 0 0 1-.28.156c-.24.118-.413.062-.45-.189-.048-.33-.009-.676-.244-.958-.018-.023.005-.088.02-.13.156-.445.15-.91.14-1.37-.011-.555.05-1.099.113-1.65.083-.734.225-1.458.29-2.193.08-.933.241-1.857.316-2.791.051-.638.192-1.272.331-1.898.221-.99.367-1.994.563-2.987.252-1.27.392-2.554.549-3.835.034-.275.035-.553.048-.829.005-.095-.006-.184-.12-.22-.14-.043-.283-.127-.263-.28a1.02 1.02 0 0 1 .256-.523c.047-.054.131-.076.197-.115.054-.033.11-.093.072-.147-.266-.375-.087-.793-.037-1.158.057-.415.049-.824.067-1.234.042-.953.06-1.908.088-2.862.005-.153 0-.306 0-.447-.108-.06-.177-.006-.214.054-.22.368-.475.723-.635 1.116-.143.352-.379.56-.705.658-.537.162-.77.572-.93 1.049-.046.131-.07.267-.173.37-.725.73-1.148 1.664-1.687 2.519a3.153 3.153 0 0 0-.339.752c-.038.12-.09.263-.274.264-.142 0-.215.118-.268.227-.15.303-.351.579-.465.901-.143.41-.46.72-.653 1.106-.196.396-.38.801-.675 1.15-.161.19-.26.444-.335.701a3.897 3.897 0 0 1-.384.885c-.33.555-.587 1.148-.912 1.705a.978.978 0 0 0-.13.294c-.119.648-.453 1.197-.785 1.747-.145.24-.241.489-.278.772-.03.225-.029.469-.143.675-.187.341-.115.656.085.948.477.697.713 1.494.947 2.286.113.377.114.787.177 1.18.113.7.407 1.329.703 1.969.191.413.498.79.527 1.299.017.28.172.619.378.809.33.306.297.69.381 1.051.046.191.039.396.052.596.009.124.012.247-.087.346a.416.416 0 0 0-.12.242c-.096.714-.626 1.005-1.222 1.127-.275.056-.575.16-.892.078-.485-.125-.884-.41-1.318-.63a.519.519 0 0 1-.217-.233c-.357-.767-.978-1.375-1.29-2.167-.034-.086-.084-.155-.19-.184-.272-.073-.42-.274-.544-.518-.16-.314-.36-.605-.476-.94-.018-.052-.026-.124-.106-.13-.072-.006-.119.042-.146.094-.215.407-.48.79-.628 1.227-.184.536-.392 1.068-.429 1.643a.61.61 0 0 1-.162.41c-.201.217-.12.527-.186.79-.053.212-.102.407-.23.582-.16.22-.32.443-.478.665a.58.58 0 0 1-.473.245c-.452.023-.74.227-.825.702-.05.278-.297.467-.416.71-.304.627-.943.737-1.477.992-.613.292-1.483.082-2.087-.507-.411.378-.883.681-1.23 1.144-.164.218-.485.299-.723.465-.219.154-.478.256-.717.385-.475.255-1.069-.18-1.074-.737 0-.092.013-.195-.021-.275-.322-.734-.005-1.37.328-1.986.186-.34.334-.694.477-1.048.248-.607.625-1.124 1.03-1.625.192-.241.385-.476.499-.767.14-.36.374-.676.576-.994.322-.504.335-1.115.659-1.604.017-.026.037-.064.029-.086-.166-.44.08-.81.214-1.192.175-.508.274-1.036.478-1.534A12.38 12.38 0 0 1 7.2 91.857c.276-.351.539-.708.86-1.022.205-.203.383-.44.436-.742.017-.097.057-.187.138-.232.259-.148.41-.406.618-.6.253-.238.434-.508.602-.803.152-.264.351-.501.519-.758.43-.656.772-1.355 1.085-2.077.297-.684.6-1.373 1.076-1.967.13-.162.231-.365.285-.565.161-.595.545-1.06.862-1.563.458-.729.835-1.498 1.195-2.28.326-.707.713-1.388 1.084-2.076a113.107 113.107 0 0 0 1.624-3.1c.357-.712.761-1.4 1.163-2.088.21-.36.316-.764.517-1.128.073-.131.108-.317-.074-.4-.356-.162-.52-.516-.782-.768-.366-.352-.741-.686-1.168-.958-.258-.162-.426-.426-.715-.565-.24-.116-.187-.464.097-.523.362-.074.523-.329.743-.563.24-.256.531-.465.761-.734.117-.136.257-.26.23-.478-.018-.151.057-.263.233-.285.21-.026.366-.16.499-.31a20.723 20.723 0 0 1 3.275-3.032c.245-.181.407-.42.585-.642.16-.197.343-.35.545-.49.277-.19.567-.355.757-.657.123-.194.379-.236.553-.399.58-.545 1.175-1.078 1.767-1.612.467-.42.992-.777 1.422-1.22.461-.478 1.017-.765 1.553-1.107.128-.081.234-.199.346-.304.12-.113.22-.25.42-.225.138.018.213-.107.305-.185.32-.272.682-.415 1.103-.3.168.046.26.024.312-.152.05-.17.157-.22.348-.187.349.063.689-.04 1.036-.1.538-.09 1.026-.4 1.597-.349.154.014.403-.006.423-.182.025-.224-.236-.188-.384-.226-.757-.196-1.533-.29-2.297-.452-.491-.104-.964-.3-1.454-.418-.868-.208-1.67-.605-2.52-.861-.249-.074-.459-.248-.718-.307-.236-.052-.462-.166-.706-.006-.11.072-.248.004-.353-.048-.342-.166-.725-.249-1.027-.497-.175-.143-.397-.16-.598-.229a5.792 5.792 0 0 1-1.474-.726c-.36-.251-.726-.517-1.154-.66-.037-.02-.08-.04-.109.003-.027.04-.006.078.03.108-.047.462-.004.892.272 1.303.24.358.497.7.764 1.036.207.26.203.495-.006.701-.133.132-.286.225-.492.098-.539-.333-1.134-.523-1.75-.652-.552-.116-1.027-.403-1.509-.67-1.478-.814-2.883-1.755-4.35-2.584-1.02-.576-1.874-1.315-2.68-2.181-.094.144-.042.252-.019.363.126.606.386 1.167.585 1.748.073.218.25.385.41.551a.634.634 0 0 1 .192.501c-.021.25-.283.403-.46.26-.586-.469-1.232-.856-1.807-1.343-.455-.386-.764-.874-1.066-1.363-.226-.364-.512-.687-.697-1.078-.466-.979-1.077-1.897-1.282-2.989a1.284 1.284 0 0 0-.127-.345 5.286 5.286 0 0 1-.461-1.349c-.057-.3-.146-.593-.407-.84-.106.161-.07.328-.077.483-.043.939.067 1.875.049 2.813-.004.185-.017.37-.03.554a.318.318 0 0 1-.245.302c-.152.039-.227-.105-.27-.206-.299-.727-.834-1.32-1.142-2.04-.25-.582-.363-1.205-.536-1.81-.44-1.545-.56-3.137-.649-4.733-.035-.63-.067-1.26-.124-1.887-.079-.862.023-1.716.077-2.572.016-.276.043-.55.018-.829-.033-.368.125-.715.14-1.085.031-.736.066-1.476.312-2.186.08-.228.081-.485.094-.73.024-.488.224-.921.405-1.36.017-.044.036-.086.052-.129.03-.077.034-.153-.052-.193-.062-.028-.122-.002-.16.051-.09.124-.211.222-.306.337-.89 1.078-1.917 2.038-2.704 3.205-.177.264-.397.508-.596.762a1.346 1.346 0 0 0-.247.437c-.09.288-.238.523-.545.642-.254.099-.283.387-.411.592-.119.191-.175.473-.475.405-.27-.06-.282-.33-.338-.553-.032-.129-.033-.245.038-.355.356-.547.435-1.177.526-1.8.05-.328.169-.62.339-.898.36-.589.665-1.195.84-1.874.12-.471.376-.888.657-1.303.263-.39.573-.768.716-1.26.295-1.016.895-1.881 1.539-2.712.722-.931 1.437-1.87 2.214-2.757.453-.52.938-1.008 1.472-1.452.386-.322.702-.73 1.035-1.112.13-.15.238-.319.406-.437a.2.2 0 0 0 .086-.202c-.02-.1-.109-.087-.182-.1-1.27-.208-2.505-.09-3.696.415-.042.018-.085.04-.13.048-.937.15-1.852.433-2.809.477-.138.007-.244-.03-.244-.198 0-.092.008-.185-.056-.28-.133-.043-.21.168-.359.097-.133-.064-.214-.28-.132-.435.132-.25.326-.44.578-.577.834-.455 1.665-.917 2.497-1.375.134-.075.268-.149.371-.269a2.494 2.494 0 0 1 1.485-.847 2.62 2.62 0 0 0 1.17-.502c.093-.072.2-.148.335-.14.463.026.84-.206 1.24-.393a7.181 7.181 0 0 1 2.2-.6c.849-.1 1.7-.22 2.562-.188.16.006.338.032.484-.104-.227-.543-.68-.867-1.143-1.165-.606-.391-1.264-.692-1.89-1.046-.393-.221-.876-.27-1.306-.433-.378-.142-.79-.102-1.163-.262-.287-.123-.345-.183-.291-.415.05-.22.262-.388.485-.3.19.075.261.019.375-.1.172-.178.415-.146.61-.09.55.157 1.118.189 1.676.293.693.13 1.383.279 2.07.433 1.1.247 2.145.632 3.099 1.238.041.026.083.033.15-.012a.574.574 0 0 0-.158-.288c-.094-.105-.074-.218.034-.272.17-.085.145-.193.108-.34-.174-.689-.464-1.331-.759-1.972-.134-.292-.22-.606-.349-.9-.217-.497-.601-.887-.886-1.34-.305-.481-.722-.846-1.134-1.221a1.309 1.309 0 0 1-.154-.172c-.15-.196-.153-.362-.013-.488.18-.164.399-.156.565.019.709.744 1.44 1.463 2.113 2.243.99 1.152 1.95 2.32 2.586 3.72.114.248.274.476.423.73a7.248 7.248 0 0 0 .936-1.552c.102-.231.232-.44.396-.611.539-.565.986-1.206 1.564-1.742.62-.575 1.276-1.106 1.9-1.672.55-.496 1.095-.99 1.734-1.367.053-.03.126-.057.15-.104.237-.492.73-.396 1.134-.5.098-.026.217-.062.29.06.071.117.053.242-.009.352-.1.179-.26.301-.429.411-.702.458-1.213 1.112-1.78 1.712-.509.537-.86 1.19-1.334 1.756-.37.44-.64.996-.794 1.58a1.749 1.749 0 0 1-.218.506c-.23.354-.23.75-.29 1.197.393-.111.74-.205 1.085-.31.859-.256 1.739-.364 2.63-.426.993-.07 1.984-.173 2.978-.258.673-.06 1.355-.213 2.016-.15 1.262.122 2.506-.098 3.76-.067.396.01.796-.007 1.192.018.251.017.534.031.621.358.031.12.133.11.221.12.517.055 1.034.115 1.554.158.17.014.33.043.496.078.343.071.688.162 1.047.115.105-.013.214.027.32.026.248-.002.307.181.344.363.045.223-.14.279-.294.341a.426.426 0 0 1-.317.002c-.838-.325-1.627-.15-2.375.265-.846.47-1.603 1.075-2.382 1.644-.047.034-.076.092-.106.129.034.15.143.118.226.12.54.017 1.04.243 1.574.29.06.005.12.042.18.04 1.312-.065 2.53.419 3.775.7 2.137.48 4.208 1.193 6.224 2.07.643.279 1.296.553 1.961.785.158.055.31.137.452.227.484.305.994.546 1.557.665.144.03.25.115.356.201.394.32.784.644 1.178.962.208.167.464.265.597.53.08.161.173.294.055.464a.452.452 0 0 1-.543.127c-.677-.343-1.4-.504-2.145-.627-.817-.136-1.63-.289-2.463-.262-.163.006-.391-.065-.463.11-.076.182.153.275.262.39.74.785 1.564 1.474 2.427 2.114.264.196.446.398.397.764-.032.237.128.442.279.613.74.841 1.53 1.633 2.346 2.4.19.177.388.36.458.62.142.542.465.972.852 1.35.31.305.545.667.579 1.075.05.617.42 1.026.755 1.474.046.062.132.113.14.178.108.695.672 1.202.766 1.902.037.283.271.518.2.836-.02.092.126.129.167.195.156.264.442.467.34.856-.05.187.092.379.207.543.097.135.127.268.055.43-.107.24-.102.469.095.676.135.142.154.308-.01.442-.16.133-.303.07-.443-.067-.082-.078-.125-.17-.18-.26-.382-.614-.74-1.245-1.166-1.826a5.018 5.018 0 0 0-1.16-1.169c-.068.222.005.396.061.569.384 1.194.556 2.427.652 3.672.015.216.09.415.1.634.037.89-.02 1.774-.09 2.661-.038.489.023.978-.021 1.47a22.944 22.944 0 0 1-.24 1.854c-.08.47-.18.934-.276 1.4-.116.574-.353 1.1-.543 1.645-.146.42-.357.815-.44 1.258-.03.146-.104.299-.197.416a3.23 3.23 0 0 0-.525 1.016c-.17.515-.531.89-.907 1.247-.281.266-.51.573-.778.85-.659.682-1.33 1.347-2.253 1.687-.355.131-.675.357-1.011.538-.622.334-1.25.672-1.949.796-.454.08-.851.28-1.27.435-.415.157-.83.327-1.246.462-.471.152-.893.485-1.429.438-.093-.008-.2.072-.291.126-.234.142-.447.334-.759.196-.06-.026-.147.036-.157.128-.013.118.067.102.145.102.475.002.946.104 1.424.066.185-.016.368-.01.538.091a.367.367 0 0 0 .263.039c.974-.18 1.958-.212 2.921.01.77.18 1.538.378 2.288.635.695.239 1.342.575 2.004.89.509.241 1.038.441 1.547.69.282.138.623.129.928.235.95.33 1.797.866 2.685 1.317.52.263 1.021.558 1.447.968.315.304.695.501 1.12.606.246.06.443.217.651.337.449.258.97.372 1.368.734.273.248.634.365.987.478.215.069.451.076.62.274.079.094.232.053.354.054.376.002.376 0 .46.347.015.06.061.13.046.177-.137.384.137.484.393.633.595.345 1.166.734 1.763 1.073.717.405 1.438.798 2.216 1.08.343.122.66.358 1.01.409.508.074 1.041.124 1.54-.113.068-.034.142-.088.21-.087.574.013.991-.373 1.479-.577a112.32 112.32 0 0 1 1.916-.782c.81-.32 1.617-.655 2.4-1.046.34-.17.69-.332 1.075-.398.28-.048.51-.219.693-.427a.907.907 0 0 1 .409-.28 3.32 3.32 0 0 0 1.804-1.42c.425-.693.876-1.358 1.378-1.994.121-.154.222-.338.282-.524.085-.264.257-.444.452-.62a379.74 379.74 0 0 0 2.133-1.953.493.493 0 0 1 .247-.11.775.775 0 0 0 .328-.16c.88-.704 1.825-1.316 2.728-1.988.539-.401 1.1-.79 1.509-1.332.297-.395.677-.34 1.066-.297.11.011.237.1.305.19.32.43.62.874.716 1.419.005.03.023.062.018.09-.1.68-.028 1.388-.33 2.032a1.882 1.882 0 0 0-.167.509c.357.04.73.008 1.02-.126.475-.22.99-.29 1.463-.5.206-.091.421-.175.622-.277.22-.11.443-.208.68-.277.678-.2 1.308-.52 1.9-.892.505-.317 1.018-.62 1.521-.938.42-.265.901-.374 1.395-.412.254-.02.488-.023.746-.14.515-.233 1.2.228 1.246.81.053.657.05 1.313-.257 1.937a2.33 2.33 0 0 1-.327.491c-.347.402-.754.747-1.146 1.107-.607.555-1.307.942-2.016 1.332-.276.152-.52.36-.805.562.269.273.525.52.665.849.166.39.333.784.475 1.182.14.388-.03.77-.37 1.013-.27.195-.454.443-.616.724a8.607 8.607 0 0 1-.494.774c-.166.23-.242.451-.092.715.02.038.035.094.024.133-.138.481-.128 1.013-.516 1.404-.4.404-.808.801-1.239 1.172-.201.173-.443.274-.685.372-.825.335-1.654.661-2.472 1.012-.402.173-.835.193-1.25.308-.668.183-1.339.29-2.041.13a1.221 1.221 0 0 0-.719.078c-.082.034-.198.076-.265.044-.391-.188-.832-.19-1.23-.344-.368-.143-.712-.355-1.085-.484-.421-.146-.728-.444-1.064-.704-.147-.113-.254-.134-.405-.047-.079.046-.176.06-.255.105-.896.524-1.922.696-2.87 1.076-.412.165-.818.348-1.216.544-.565.281-1.163.467-1.756.676-1.127.397-2.251.807-3.368 1.234-.297.112-.562.305-.842.46-.449.245-.951.329-1.431.483-.273.089-.535.181-.756.409-.2.205-.525.24-.807.303 0 0-.484.097-1.256.024a5.921 5.921 0 0 1-1.31-.268c-.583-.27-1.137-.598-1.705-.893-.41-.214-.786-.513-1.205-.729-.054-.029-.107-.069-.165-.079-.763-.129-1.321-.688-2.012-.97-.248-.101-.477-.262-.694-.423-.388-.285-.835-.45-1.274-.625-.493-.195-.569-.18-.813.258-.29.523-.543 1.066-.813 1.6-.137.274-.253.562-.484.777-.056.052-.127.153-.182.12-.244-.143-.616-.102-.738-.402-.104-.26-.302-.421-.48-.593a49.065 49.065 0 0 0-1.902-1.746c-.334-.287-.713-.524-1.085-.765-.167-.108-.33-.212-.484-.345-.386-.337-.685-.466-1.27-.604-.07.344.014.68.11.993.261.87.388 1.76.513 2.655.158 1.14.287 2.283.526 3.413.163.762.228 1.552.445 2.299.186.634.146 1.292.352 1.924.313.963.473 1.968.604 2.975.029.212.114.415.15.627.155.909.266 1.821.298 2.746.018.505.189.992.23 1.5.085 1.01.332 1.997.493 2.998.206 1.285.305 2.584.512 3.867a.645.645 0 0 1 .01.138c-.044.718.148 1.397.338 2.077.07.25.106.51.173.762.058.222.002.427-.061.634-.066.219-.229.352-.443.323-.47-.06-.927.032-1.39.054-.792.039-1.586.052-2.376.082-.928.036-1.863.12-2.788.269-.68.108-1.36.237-2.05.293-.345.027-.682.16-1.02.255-.08.023-.212.072-.16.182.18.374.04.758.057 1.137.02.447.025.89.183 1.318a.737.737 0 0 1 .028.318c-.085.942.033 1.87.133 2.802.05.468.063.099.134.568l-5.392.099c0-.295-.083-.664-.313-1.905-.12-.651-.202-1.3-.446-1.925-.1-.258-.147-.564-.048-.86.037-.111.057-.236-.019-.35-.394.105-.596.352-.693.753a67.25 67.25 0 0 0-.833 3.992l-5.588.196z" fill="#000"></path>
    <path d="M33.764 27.36c-.382.083-.739.158-1.093.24-.056.013-.102.068-.15.106-.9.72-1.556 1.615-1.912 2.72a.67.67 0 0 0-.039.224c.008.17.112.207.273.126.374-.19.56-.562.818-.86.196-.226.3-.543.548-.728.24-.178.587-.21.722-.538.011-.03.081-.037.126-.05.368-.101.735-.21 1.123-.21.155 0 .309-.003.434-.112.13-.113.21-.267.072-.397-.266-.249-.558-.476-.922-.52m11.204 10.3c-.055-.353-.102-.783-.323-1.16-.148-.253-.37-.413-.687-.373-.105.014-.202.037-.306-.032-.31-.206-.693-.056-1.026-.19-.102-.041-.25.035-.288.172-.036.132.032.248.152.304.11.051.237.109.349.098.356-.033.66.143.981.227.317.08.448.552.283.851-.08.146-.165.3-.191.459-.066.408-.342.634-.651.844-.28.188-.541.397-.794.623-.268.24-.416.596-.785.742-.239.092-.266.376-.11.619.091.141.26.136.49.025.462-.22.836-.564 1.226-.882.412-.336.84-.659 1.17-1.088.268-.35.468-.72.51-1.24m-.502-8.322c-.296-.545-.473-.584-.927-.27-.383.265-.721.564-.944.987-.076.147-.205.265-.306.401-.238.322-.483.651-.5 1.065a6.36 6.36 0 0 1-.163 1.184c-.033.146-.096.297-.033.453.34.832.703 1.643 1.665 1.939.072.022.134.086.206.102.335.072.685.234 1.015.082.391-.182.819-.28 1.154-.613.178-.179.394-.323.519-.552.068-.125.134-.24.254-.32a.396.396 0 0 0 .173-.265c.103-.573.208-1.145.299-1.72.028-.167-.02-.334-.046-.502-.049-.338-.235-.63-.297-.96-.125-.68-.582-1.018-1.194-1.196-.302-.087-.61-.117-.875.185m-4.936 3.454c.09-.365-.067-.746-.111-1.14a.792.792 0 0 0-.292-.55c-.14-.118-.287-.233-.41-.37-.226-.255-.503-.338-.828-.287-.528.084-1.03.2-1.525.46-.502.264-.932.569-1.302.985-.096.108-.178.217-.204.352a1.336 1.336 0 0 1-.31.657c-.093.106-.098.251-.128.388-.112.511-.007 1.047-.184 1.552-.044.121.048.232.096.346.163.392.218.83.483 1.181-.004.67.719.743.978 1.195.404.05.835.211 1.204.12.635-.155 1.292-.338 1.698-.966.168-.26.293-.537.46-.789.462-.7.462-1.48.422-2.263l-.047-.87m.063 15.596c.257.05.51 0 .781-.105.325-.124.635-.318 1.008-.306.164.005.277-.13.382-.239.227-.234.423-.505.485-.827.071-.37.313-.667.386-1.032.025-.124.137-.198.228-.283.261-.242.584-.395.86-.604.351-.266.647-.613.99-.898.097-.081.184-.175.1-.316-.076-.13-.203-.123-.327-.109a.517.517 0 0 0-.322.163c-.074.078-.132.165-.236.215-.564.28-1.064.66-1.585 1.006-.246.164-.493.328-.787.357-.264.026-.51.102-.758.178-.89.272-1.551.054-2.144-.684a2.191 2.191 0 0 0-.43-.413c-.33-.237-.709-.415-.916-.805-.1-.186-.366-.188-.575-.035-.134.097-.248.216-.39.31-.24.157-.235.424.003.609.124.096.223.21.336.314.37.346.625.803 1.052 1.093.118.08.105.161.04.271-.104.179-.074.362.051.515.091.113.11.25.17.371.326.665.69 1.292 1.598 1.254m-.474 8.834c.037-.027.075-.054.11-.084.342-.304.328-.298.155-.738-.176-.449-.528-.78-.755-1.193l-.312-.564c-.17-.306-.303-.639-.606-.852a.35.35 0 0 1-.139-.18c-.05-.203-.132-.341-.374-.305a.165.165 0 0 1-.124-.048c-.463-.495-1.105-.366-1.674-.475-.212-.04-.418-.014-.565-.226-.09-.13-.246-.145-.412-.156-.471-.033-.948-.069-1.41-.163-.283-.057-.562-.2-.848-.166-.439.052-.85-.05-1.26-.157-.44-.115-.914-.145-1.271-.478a.218.218 0 0 0-.165-.063c-.52.018-1.027-.138-1.463-.356-.938-.468-2.01-.616-2.874-1.245-.733-.2-1.207-.824-1.863-1.155-.17-.086-.383-.22-.316-.506.02-.085-.062-.169-.137-.23-.059-.048-.118-.097-.181-.14-.602-.417-1.091-.927-1.392-1.607-.127-.285-.13-.636-.44-.833-.042-.027-.046-.147-.038-.22.03-.256-.133-.366-.332-.423-.252-.073-.523-.052-.774-.162-.127-.057-.237.063-.283.181-.183.48-.624.659-1.028.853-.427.203-.869.107-1.27-.12-.185-.107-.36-.209-.567-.282-.34-.118-.583-.403-.772-.699-.53-.828-1.022-1.685-1.26-2.647-.114-.462-.32-.944-.094-1.44a.304.304 0 0 0 .003-.183c-.11-.47.124-.87.254-1.291.013-.043.038-.093.073-.116.446-.293.726-.8 1.274-.963.158-.047.312-.134.447-.233.333-.244.732-.195 1.101-.279a.138.138 0 0 1 .09.012c.86.472 1.844.804 2.133 1.92.09.346.278.44.622.37.203-.04.428-.128.495-.307.199-.54.62-1.017.51-1.66a.88.88 0 0 1 .052-.453c.21-.516.327-1.062.42-1.6.085-.497.158-1.001.22-1.503.073-.595.183-1.186.287-1.777.014-.081.014-.183.141-.262.24.344.369.74.462 1.134.123.52.175 1.058.273 1.586.035.192-.096.274-.185.395-.114.158-.153.338-.062.52.082.169.229.24.412.255.28.021.378-.189.446-.39.265-.782.567-1.553.707-2.374.096-.56.233-1.113.364-1.666.146-.606.041-1.228.13-1.838l.054-.373c.282.25.404.565.581.833.228.342.395.728.62 1.074.203.312.346.642.484.987.156.393.414.744.5 1.173.023.118.14.157.256.15.13-.006.187-.102.21-.212.023-.104.04-.214.034-.32-.015-.207-.02-.4.195-.52.036-.02.077-.08.07-.111-.082-.36.16-.718-.005-1.083-.08-.181-.113-.382-.026-.585a.393.393 0 0 0 .022-.224c-.144-.769-.216-1.548-.4-2.313-.181-.76-.411-1.508-.635-2.255-.134-.446-.368-.867-.487-1.359.27-.202.629-.188.97-.202.263-.011.517-.022.775-.083.388-.09.786-.154 1.19-.113a.66.66 0 0 0 .23-.007c.883-.237 1.802-.17 2.695-.318.327-.055.678-.025 1.007.027.252.04.488.02.731-.014.476-.065.95-.042 1.427-.004.984.078 1.94.295 2.893.537.475.12.966.182 1.455.24 1.104.13 2.15.466 3.216.9a4.72 4.72 0 0 0-.567.23c-.478.238-.932.473-1.279.915-.115.148-.338.227-.405.452-.072.243-.047.315.19.426.347.162.673.041.958-.13.286-.173.579-.346.822-.586.063-.063.13-.155.226-.147.253.026.436-.122.614-.254.187-.139.352-.003.524-.009.38-.015.537.18.638.514.1.327.643.413.868.161.133-.15.064-.308-.019-.426-.148-.213-.305-.444-.514-.584-.276-.185-.481-.476-.818-.573-.134-.038-.14-.147-.127-.26.035-.305-.107-.493-.38-.607a.62.62 0 0 1-.327-.316c-.228-.525-.687-.815-1.121-1.126a4.911 4.911 0 0 1-1.152-1.12c.161-.084.292-.02.41.027.981.395 1.951.816 2.94 1.192.962.367 1.843.896 2.76 1.354.26.13.49.315.756.436a3.3 3.3 0 0 0 .641.22c.315.071.603.271.9.42.562.282 1.049.687 1.59 1 .451.262.824.63 1.26.911.238.154.408.374.539.622.065.122.123.245.221.347.616.643 1.086 1.404 1.68 2.068.293.326.469.765.592 1.19.332 1.15.6 2.311.637 3.525.034 1.09.096 2.177.029 3.267-.036.57-.108 1.132-.285 1.68-.067.203-.086.422-.122.635-.009.058-.027.14.003.178.345.426.103.865-.02 1.26-.219.7-.525 1.373-.796 2.056-.058.145-.14.271-.243.39-.098.116-.216.237-.235.39-.05.39-.271.666-.53.939-.197.208-.32.475-.464.727-.19.334-.473.648-.786.87-.52.366-.95.825-1.414 1.244-.48.434-1.038.702-1.599.98-.216.109-.472.144-.628.366-.066.094-.18.099-.287.123-.266.061-.517.156-.772.26-1.1.45-2.126 1.077-3.291 1.37-.29.074-.573.22-.846.348-.39.185-.82.251-1.202.454-.23.122-.505.007-.762.035-.342.037-.46.087-.548.42-.035.127-.07.189-.195.263-.23.134-.33.407-.41.648-.243.73-.56 1.429-.847 2.14a.93.93 0 0 0-.016.673c-.006.295-.272.246-.43.352-.279.182-.33.056-.358-.183" fill="#FFCEA4"></path>
    <path d="M39.119 57.224c.028.238.08.364.357.182.16-.106.425-.057.431-.352.503.151.85-.02.969-.514.07-.286.264-.51.333-.796a.426.426 0 0 1 .334-.294c.336-.063.62-.227.9-.408.063-.04.154-.108.202-.088.347.142.698-.022 1.045.038.417.072.854.045 1.26.107.466.071.879-.21 1.343-.055.418.139.863.203 1.289.335.478.148.982.2 1.471.318.582.139 1.072.44 1.596.68.334.154.66.315 1.02.418.32.09.62.26.922.409 1.525.75 3.059 1.483 4.629 2.134.994.414 1.89 1.008 2.83 1.526.282.155.547.307.73.6.143.225.458.225.681.357.138.084.38.05.406.253.037.304.245.588.044.93-.319.54-.593 1.11-.873 1.674-.182.37-.338.754-.506 1.131-.207.46-.416.916-.563 1.401-.126.408-.456.687-.732.99-.216.235-.218.19-.48.011-1.121-.77-2.051-1.785-3.22-2.498-.584-.356-1.107-.812-1.647-1.234-.126-.097-.236-.195-.408-.173-.252.03-.43-.136-.63-.245-.092-.05-.103-.118-.107-.225-.013-.477-.021-.484-.491-.56-.136-.023-.174-.098-.205-.208-.088-.309-.183-.616-.271-.926a1.41 1.41 0 0 0-.178-.424c-.05-.07-.123-.091-.202-.057-.075.034-.128.094-.115.181.016.106.025.22.07.313.195.401.313.831.464 1.248.113.318.278.617.193.973a.275.275 0 0 0 .053.219c.332.475.401 1.025.482 1.582.069.47.157.936.215 1.407.133 1.096.356 2.178.439 3.283.06.829.187 1.652.293 2.475.068.521.053 1.045.102 1.566.017.19-.056.262-.227.25-.932-.057-1.875.096-2.798-.13-.431-.105-.86-.025-1.28.027a5.403 5.403 0 0 1-1.547-.044c-.092-.014-.185-.04-.272-.019-.59.142-1.182.085-1.777.057-.303-.013-.61.047-.914.084-.167.021-.33.08-.49-.027a.163.163 0 0 0-.132-.01c-.733.288-1.505.212-2.265.254-1.268.073-2.537.135-3.796.338-1.72.277-3.425.628-5.124 1.006-.791.176-1.566.42-2.371.53-.32.042-.626.109-.928.235-.78.325-1.59.56-2.427.695-.27.043-.445-.047-.419-.3.03-.301-.037-.623.145-.901.098-.152.073-.329.084-.496a38.93 38.93 0 0 0 .065-3.23c-.012-.705-.03-1.413.018-2.116.033-.475.076-.974.561-1.29.296-.194.274-.356.017-.655-.232-.273-.23-.359-.046-.658.283-.461.624-.876.952-1.303.175-.231.06-.65-.21-.756-.182-.072-.328-.038-.409.166-.095.24-.162.49-.311.708-.079.116-.147.248-.26.32-.384.234-.579.627-.803.98-.203.318-.286.701-.498 1.026-.697 1.067-1.262 2.216-1.977 3.274-.331.492-.57.504-.97.06-.142-.159-.334-.27-.49-.417-.49-.46-.964-.941-1.435-1.418-.717-.726-1.493-1.407-2.081-2.256-.136-.197-.33-.357-.505-.526-.144-.136-.184-.238-.033-.421.447-.542.864-1.111 1.3-1.664.276-.35.66-.591.947-.938.12-.145.256-.266.257-.468 0-.239.163-.365.342-.449.216-.102.375-.258.529-.428a160.4 160.4 0 0 1 1.956-2.144 8.08 8.08 0 0 1 1.084-.958c.251-.19.427-.467.674-.679.546-.463 1.073-.95 1.58-1.46.545-.548 1.19-.997 1.8-1.477.274-.218.563-.419.858-.606.69-.439 1.457-.69 2.239-.904 1.038-.284 2.098-.45 3.153-.635.327-.058.644-.145.997-.082.217.04.477.007.712-.117.27-.144.412-.076.515.235.12.36.304.666.56.941.158.17.245.377.285.615.081.469.092.467.6.478.03.001.06.012.09.019" fill="#FFF"></path>
    <path d="M39.646 76.155c.691.003 1.331-.072 1.97-.152.076-.01.154-.012.23-.014 1.536-.032 3.07-.158 4.608-.091.368.016.733.053 1.1.054.53.002 1.062-.035 1.591-.026.537.008 1.105-.05 1.598.111.529.174 1.035.118 1.548.112.463-.004.867.178 1.295.281.166.039.153.17.169.29.121.987.453 1.936.54 2.93.03.319.09.632.24.925.075.145.09.326.106.493.075.78.158 1.56.209 2.341.067 1.028.152 2.046.615 2.993.123.252.077.545.098.815.051.69.15 1.374.217 2.062.016.168.064.331.108.495.311 1.163.579 2.334.63 3.543.007.169.015.342-.015.506-.076.419-.137.46-.572.476-.062.002-.127-.004-.183.013-.662.195-1.345.225-2.026.274-.15.01-.298.064-.448.096-.811.168-1.632.267-2.454.374-.44.057-.87.185-1.306.274-.646.135-1.31.114-1.96.247-1.005.206-2.02.372-3.031.539-.559.093-1.123.157-1.685.233-.075.01-.153.014-.23.009-.343-.017-.377-.064-.412-.407-.06-.587.074-1.166.08-1.75.004-.26-.038-.525.062-.78.05-.125.019-.27-.089-.334-.264-.158-.235-.407-.245-.648-.005-.109.013-.22-.011-.322-.05-.212-.343-.32-.466-.16-.142.184-.348.368-.244.654.006.014.007.03.011.044.244.65.085 1.307.043 1.964-.032.484-.303.892-.384 1.356-.021.126-.092.172-.232.132-.115-.032-.257-.055-.363-.017-.261.094-.47.05-.684-.122-.143-.113-.304-.17-.366.11-.029.135-.17.096-.272.096-.387.003-.766-.069-1.142-.138-.415-.077-.823-.053-1.237-.01-.347.038-.694.108-1.04-.064-.18-.09-.399.003-.58.048a8.055 8.055 0 0 1-1.912.219c-.586.002-1.14.123-1.71.188-1.004.117-2.01.228-3.001.418-.778.147-1.55.342-2.313.574-.474.144-.969.309-1.49.252-.145-.016-.207-.046-.204-.22.03-1.399.171-2.789.301-4.18.062-.66.167-1.312.212-1.973.024-.366.109-.729.18-1.09.218-1.132.358-2.278.526-3.417.212-1.43.505-2.845.692-4.28.107-.82.134-1.653.344-2.462.04-.158.017-.336.014-.505-.007-.375.004-.419.36-.541.858-.295 1.705-.64 2.585-.837.764-.171 1.507-.405 2.264-.591.24-.058.477-.131.725-.106.246.022.445-.11.66-.18.966-.32 1.96-.533 2.967-.62.862-.074 1.69-.305 2.537-.433.308-.047.61-.063.872-.07" fill="#F05127"></path>
    <path d="M92.06 62.289c-.142.094-.245.2-.37.241-.578.188-.88.653-1.084 1.161a2.152 2.152 0 0 0-.015 1.598c.04.104.096.21.218.216.183.007.321.093.45.205.228.2.51-.094.738.084.263.205.483.045.721-.066.188-.088.394-.147.623-.094-.51.534-1.18.65-1.834.802-.058.014-.124.013-.181.033-.866.312-1.71.173-2.557-.098a4.314 4.314 0 0 0-1.125-.21c-.456-.017-.85-.246-1.293-.299a.577.577 0 0 1-.429-.322c-.115-.227-.32-.321-.547-.387a6.717 6.717 0 0 1-.35-.11c-.26-.09-.51-.197-.759.05-.105.102-.273.056-.399.03a.583.583 0 0 0-.582.19.767.767 0 0 1-.523.252c-.294.03-.565.164-.82.295-.661.339-1.386.495-2.06.79-.629.275-1.324.396-1.906.756-.689.428-1.447.66-2.195.93-.345.127-.657.33-.986.49-.574.28-1.113.644-1.746.8-.446.11-.824.421-1.29.469-.415.04-.836.133-1.248-.024-.13-.048-.256-.037-.343.059-.156.175-.33.126-.503.06-.76-.29-1.51-.594-2.148-1.12a1 1 0 0 0-.276-.165c-1.117-.432-2.155-1-3.145-1.68-.617-.422-1.21-.89-1.898-1.206-.133-.061-.171-.157-.087-.3.07-.117.106-.255.173-.375.412-.728.868-1.43 1.321-2.134.076-.117.158-.132.27-.096.073.023.152.04.215.08.92.593 1.934.987 2.946 1.381.275.107.536.236.737.457.1.11.225.15.354.2.445.173.875.372 1.15.796.032.052.07.127.117.138.395.093.791.18 1.19.252.056.01.166-.059.186-.115.087-.242.308-.278.502-.36.888-.374 1.759-.8 2.67-1.11.726-.25 1.395-.628 2.134-.846.364-.106.695-.32 1.044-.48.124-.058.256-.113.39-.135.81-.138 1.547-.481 2.28-.832.338-.161.709-.204 1.073-.232.3-.022.468-.161.6-.419.123-.24.182-.516.505-.645.176-.071.323-.313.316-.572-.013-.398.127-.751.333-1.085.284-.458.468-.977.833-1.38.61-.677 1.2-1.37 1.893-1.965.13-.114.303-.135.447-.215.332-.184.652-.386.95-.622.122-.098.253-.178.403-.217a.58.58 0 0 0 .37-.255c.068-.112.183-.152.29-.213.46-.26.85-.618 1.213-.99.252-.256.505-.512.824-.652.229-.1.424-.226.618-.373.085-.065.165-.133.23-.224a.808.808 0 0 1 .188-.196c.396-.281.59-.229.743.236.12.365.175.716-.085 1.088-.537.768-1.028 1.572-1.645 2.282a6.674 6.674 0 0 1-1.021.922c-.161.12-.307.258-.437.411-.08.097-.178.211-.12.33.111.228-.002.39-.124.544-.16.205-.198.396-.068.634.387.716.245 1.392-.176 2.043-.152.236-.123.452.065.552.202.107.521.009.63-.193.255-.469.36-.982.392-1.504.02-.33.042-.647.245-.92.14-.192.072-.454.235-.644a8.18 8.18 0 0 1 .576-.595c.262-.252.61-.41.801-.74.076-.13.208-.11.331-.093.251.036.454-.017.683-.165.276-.179.623-.25.943-.358.565-.191 1.112-.435 1.714-.52.57-.08 1.044-.424 1.57-.63.24-.095.467-.233.726-.283.328-.063.555-.317.85-.447.714-.314 1.45-.586 2.081-1.068.228-.174.52-.261.783-.39.086-.043.174-.075.261-.02.124.08.235.021.353-.01.289-.08.511.006.573.269.065.267.096.554-.003.82-.047.125-.093.304-.324.223-.204-.071-.328.074-.382.245-.104.329-.339.566-.591.749-.904.655-1.755 1.393-2.752 1.905-.38.193-.776.43-1.241.4-.16-.011-.274.059-.321.205-.053.165-.157.212-.314.198-.619-.055-1.186.224-1.787.274-.494.042-.87.352-1.3.535-.261.112-.392.383-.565.597-.381.468-.59 1.02-.565 1.612.023.521.07 1.065.45 1.51M5.8 96.472c-.062-.526.162-.936.384-1.303.505-.827.845-1.741 1.384-2.546.45-.674.862-1.377 1.402-1.986.046.033.082.045.093.068.11.228.273.377.542.332.194-.031.43-.339.453-.588.051-.55.25-1.031.641-1.426.028-.413.397-.684.449-1.084.022-.174.087-.33.174-.472.68-1.094 1.239-2.255 1.873-3.376.248-.437.342-.948.637-1.366.07-.1.11-.226.196-.312.495-.498.693-1.18 1.082-1.746.391-.569.692-1.195 1.057-1.778.5-.795.904-1.639 1.37-2.45.146-.252.347-.47.517-.708.712-1.002 1.23-2.12 1.854-3.177.101-.172.22-.335.32-.507.115-.196.264-.166.367-.025.473.652 1.103 1.15 1.657 1.724.168.175.179.337.072.536-.393.73-.794 1.457-1.171 2.195-.363.71-.797 1.384-1.039 2.154a2.99 2.99 0 0 1-.343.704c-.708 1.1-1.203 2.317-1.88 3.438-.42.694-.712 1.465-1.108 2.18-.41.739-.902 1.428-1.308 2.173-.185.34-.28.717-.503 1.035-.556.794-.746 1.741-1.093 2.623-.087.222.022.424.082.625.04.136.185.156.312.126.103-.024.202-.072.3-.116.423-.189.45-.132.684.283.303.533.373 1.127.531 1.695.055.201-.036.498-.012.745.064.665-.023 1.355.283 1.987.027.055.035.123.07.169.249.321.392.693.54 1.065.162.4.446.73.65 1.101.284.518.676.995.7 1.632.018.5-.07.66-.528.84a2.163 2.163 0 0 1-.719.144c-.406.012-.578-.15-.697-.55-.085-.28-.276-.55-.545-.635-.317-.1-.48-.328-.631-.563-.116-.18-.227-.365-.346-.544-.36-.543-.555-1.154-.715-1.779-.097-.384-.312-.736-.32-1.146-.001-.052-.06-.106-.102-.15-.097-.1-.79-.29-.923-.236-.25.103-.46.031-.632-.139-.178-.173-.328-.153-.532-.042a3.874 3.874 0 0 0-1.297 1.124c-.269.362-.565.727-.974.968-.21.123-.34.31-.452.55-.244.527-.579 1.012-.858 1.525a7.745 7.745 0 0 1-.515.817c-.18.25-.368.495-.394.822a.43.43 0 0 1-.1.205c-.54.708-1.095 1.406-1.619 2.127-.15.205-.408.035-.524.217-.096.148.071.34-.109.51-.359.339-.734.654-1.117.96-.106.085-.218.164-.322.254a.653.653 0 0 1-.602.147c-.134-.028-.226-.062-.236-.223-.046-.69.068-1.32.467-1.917.302-.451.675-.866.824-1.422.089-.33.245-.653.521-.901.305-.272.4-.683.603-1.023.315-.529.61-1.068.925-1.595.078-.13.196-.236.301-.347.282-.294.523-.603.491-1.045a.301.301 0 0 1 .101-.247c.182-.18.141-.377-.014-.53-.184-.181-.333-.018-.475.102-.033.026-.073.046-.155.098M39.482 103.256c.147-.992.263-1.985.31-2.982.039-.784.014-1.571.029-2.357.006-.29-.026-.38-.3-.34-.31.05-.607-.013-.909-.012-.2 0-.4-.02-.532-.026-.236.017-.404.037-.572.04-.69.01-.69.009-.834.683-.01.046-.02.092-.026.137-.25 1.563-.554 3.119-.735 4.689l3.569.168zM47.39 103.161s-.052-.808-.203-1.9a94.877 94.877 0 0 0-.519-3.326c-.045-.259-.21-.474-.324-.708-.057-.115-.143-.15-.264-.119-.76.2-1.534.317-2.301.467-.216.042-.302.17-.314.383-.029.448-.032.898.05 1.335.244 1.318.357 2.653.545 3.977l3.33-.109z" fill="#FFCEA4"></path>
    <path d="M94.808 58.577c.092 0 .2-.032.273.006.615.314 1.31.267 1.95.46.283.086.533.233.701.493.05.075.114.143.178.21.258.274.258.273.093.59-.198.376-.35.776-.765 1-.597.324-1.195.6-1.902.455-.2-.042-.395.02-.59.069-.272.067-.54.087-.811-.03-.167-.072-.348-.125-.534-.029-.27.14-.504-.047-.753-.09-.064-.01-.092-.07-.112-.133-.256-.822-.187-1.6.457-2.207.495-.469 1.097-.787 1.815-.794M93.027 62.833c.372-.015.703-.04 1.031-.156a2.14 2.14 0 0 1 1.654.077c.1.046.202.081.31.031.225-.102.349.052.464.196.226.283.197.8.033 1.127-.328.65-.887.983-1.521 1.242-.205.084-.417.092-.631.113-.21.021-.377.053-.381-.27-.003-.226-.209-.321-.438-.309a1.513 1.513 0 0 0-.656.2c-.225.126-.437.202-.696.084-.103-.047-.242-.01-.365-.025-.481-.055-.748-.327-.698-.75.102-.846.904-1.596 1.744-1.568.061.002.122.006.15.008M9.16 98.938c.03.474.066.933-.076 1.383-.06.196-.052.425-.032.635.049.489-.099.91-.383 1.292-.064.085-.185.157-.16.267.108.464-.255.766-.373 1.15a.768.768 0 0 1-.314.389 3.123 3.123 0 0 1-1.388.526c-.11.013-.257.072-.342-.053-.095-.14-.066-.295.012-.438.03-.051.084-.09.12-.139.07-.09.112-.24.046-.3-.326-.294-.067-.509.088-.719.402-.542.741-1.12 1.074-1.704.236-.411.587-.698.96-.965a.863.863 0 0 0 .29-.347c.156-.327.318-.651.478-.977M11.65 96.327c.38-.001.456.108.35.385-.15.39-.371.744-.602 1.087-.148.22-.27.45-.355.695-.206.589-.393 1.185-.642 1.759-.051.12-.049.271-.049.407a2.375 2.375 0 0 1-.23 1.02c-.034.068-.065.14-.107.203-.101.157-.235.356-.428.268-.219-.102-.077-.316-.017-.478.139-.378.155-.783.264-1.167a.282.282 0 0 0-.013-.18c-.242-.533-.065-1.051.063-1.566.084-.338.317-.637.247-1.016-.007-.046.043-.113.082-.155.311-.338.62-.678.942-1.007a.88.88 0 0 1 .494-.255" fill="#F7D1AD"></path>
    <path d="M42.279 54.143c.118-.146.196-.282.374-.213.046.016.047.049.028.09-.079.171-.211.173-.402.123M22.68 49.842c-.045-.036-.07-.085-.035-.134.037-.053.09-.029.136-.003l-.1.137" fill="#FFF"></path>
    <path d="M39.593 48.389c-.909.038-1.272-.59-1.597-1.253-.06-.122-.08-.259-.171-.372-.125-.154-.154-.336-.05-.516.065-.11.077-.19-.04-.27-.428-.29-.683-.747-1.053-1.093-.113-.103-.213-.218-.337-.314-.236-.184-.243-.452-.003-.61.143-.093.257-.212.391-.31.209-.152.476-.15.575.036.207.39.587.568.915.805.167.12.308.26.43.413.594.739 1.254.955 2.145.684.25-.076.494-.152.758-.178.294-.03.541-.194.786-.357.523-.346 1.022-.726 1.586-1.006.104-.05.162-.137.236-.214a.517.517 0 0 1 .322-.164c.124-.014.251-.02.328.11.083.14-.004.234-.101.315-.343.285-.639.632-.99.898-.276.21-.599.363-.86.604-.092.085-.203.159-.228.283-.073.365-.315.662-.386 1.032-.063.321-.257.593-.485.828-.105.108-.218.243-.382.238-.373-.012-.683.182-1.008.306-.27.105-.524.156-.781.105M34.83 34.21c-.099.944.255 1.745.79 2.487.1.14.216.251.373.332.671.352 1.741.15 2.228-.432.029-.035.084-.066.087-.103.04-.314.296-.496.443-.743.064-.107.13-.21.156-.33.136-.61.304-1.216.036-1.837a1.976 1.976 0 0 1-.157-.575c-.075-.763-.54-1.222-1.18-1.526-.342-.163-.694-.21-1.023.097-.257.24-.577.414-.833.655-.397.375-.853.726-.916 1.332-.022.212-.004.43-.004.644m4.7-1.42l.047.871c.04.784.04 1.563-.422 2.264-.167.252-.292.53-.46.788-.406.629-1.063.812-1.698.967-.37.09-.8-.071-1.203-.12-.26-.452-.984-.524-.978-1.195-.266-.352-.321-.789-.485-1.181-.047-.113-.139-.224-.096-.346.178-.504.073-1.04.185-1.552.03-.136.035-.282.128-.388.168-.19.262-.408.31-.657.026-.135.108-.244.204-.352.37-.417.8-.72 1.302-.985.495-.259.996-.376 1.525-.46.325-.05.602.033.829.287.122.137.27.252.41.37a.792.792 0 0 1 .29.55c.046.394.203.775.112 1.14M43.367 34.525c.093.079.183.175.309.052 0 .047.01.08.064.1.376.133.713.098 1.09-.076.881-.407 1.292-1.09 1.338-2.023a3.732 3.732 0 0 0-.285-1.697c-.224-.523-.574-.84-1.07-1.046a.4.4 0 0 0-.221-.045c-.363.06-.728.11-1.087.189a.701.701 0 0 0-.417.267c-.497.65-.886 1.321-.92 2.193-.03.766.304 1.317.769 1.843.11.126.247.233.43.243m1.098-5.187c.266-.302.574-.272.876-.185.611.178 1.068.516 1.194 1.195.061.33.248.623.298.961.025.168.073.335.045.503-.091.574-.196 1.147-.3 1.72a.39.39 0 0 1-.172.263c-.12.08-.186.196-.254.32-.125.23-.341.374-.52.553-.334.333-.762.432-1.153.612-.33.153-.68-.01-1.015-.08-.072-.016-.133-.081-.206-.103-.963-.296-1.325-1.106-1.665-1.94-.063-.155 0-.306.033-.451.087-.391.15-.78.164-1.185.015-.413.261-.743.499-1.065.1-.136.23-.254.306-.401.222-.423.561-.722.944-.986.454-.315.632-.276.926.269M44.969 37.66c-.043.52-.243.89-.511 1.24-.331.43-.758.752-1.17 1.088-.39.318-.764.662-1.227.882-.23.111-.398.117-.488-.025-.156-.243-.13-.526.11-.62.368-.145.516-.501.784-.74.253-.227.514-.437.794-.624.309-.21.586-.436.65-.844.027-.16.112-.314.192-.459.165-.299.034-.771-.282-.852-.323-.083-.626-.259-.981-.226-.113.01-.241-.047-.35-.097-.12-.056-.188-.172-.152-.305.038-.137.186-.213.289-.171.333.133.715-.017 1.026.188.103.07.2.047.305.033.316-.04.538.12.686.373.222.376.27.807.325 1.16M33.764 27.36c.364.045.656.272.922.521.138.13.058.284-.072.397-.125.11-.279.113-.434.112-.388 0-.755.109-1.123.21-.045.013-.115.02-.126.05-.135.327-.482.36-.722.538-.249.185-.352.502-.548.729-.258.297-.444.67-.818.859-.161.08-.265.044-.273-.126a.67.67 0 0 1 .04-.224c.355-1.105 1.01-2 1.912-2.72.047-.038.093-.093.149-.106.354-.082.71-.157 1.093-.24" fill="#000"></path>
    <path d="M38.411 34.558c0-.105-.006-.138 0-.166.117-.491-.229-.756-.51-1.05-.054-.057-.135-.09-.21-.069-.214.058-.426.003-.639.006-.554.007-.877.305-1.087.81-.173.415-.13.839-.209 1.254-.116.608.18 1.058.566 1.474.182.196.397.213.628.098.152-.075.3-.155.449-.234.44-.234.69-.634.92-1.054a.087.087 0 0 0 .007-.044c-.022-.37.135-.728.085-1.025m-3.58-.347c0-.214-.019-.432.003-.644.063-.606.518-.956.916-1.332.256-.241.576-.415.833-.654.329-.308.68-.26 1.023-.098.64.305 1.105.764 1.18 1.526.018.195.08.394.157.575.268.621.1 1.227-.036 1.835-.026.122-.092.225-.155.332-.148.247-.404.43-.444.743-.004.037-.058.068-.088.104-.486.58-1.556.783-2.227.431a1.034 1.034 0 0 1-.372-.331c-.536-.743-.89-1.544-.79-2.487M43.367 34.525c-.183-.01-.32-.117-.43-.243-.465-.526-.799-1.077-.769-1.843.034-.872.423-1.543.92-2.193a.701.701 0 0 1 .417-.267c.36-.079.724-.13 1.087-.189a.4.4 0 0 1 .222.045c.495.206.845.523 1.069 1.046.239.557.314 1.115.285 1.697-.046.932-.457 1.616-1.337 2.023-.378.174-.715.21-1.091.076-.055-.02-.064-.053-.064-.1l-.007.015c.076 0 .16.016.229-.007.277-.092.61-.13.81-.311.303-.275.331-.736.522-1.098.025-.047.007-.12.001-.182-.023-.304-.04-.609-.073-.91-.056-.49-.55-.84-1.016-.704-.414.12-.752.35-.923.777a2.103 2.103 0 0 1-.237.446c-.183.25-.17.515-.092.787.11.387.304.732.575 1.03l-.098.105" fill="#FFF"></path>
    <path d="M43.754 34.616c-.159.153-.27.033-.387-.065l.123-.131c.094.061.213.092.255.216l.01-.02z" fill="#FFF"></path>
    <path d="M38.411 34.558c.05.297-.107.655-.085 1.025a.087.087 0 0 1-.007.044c-.23.42-.48.82-.92 1.054-.148.079-.297.16-.449.234-.231.115-.446.098-.628-.098-.385-.416-.682-.866-.566-1.474.08-.415.036-.839.209-1.254.21-.505.533-.803 1.087-.81.213-.003.425.052.639-.006.075-.02.156.012.21.068.281.295.627.56.51 1.05-.006.03 0 .062 0 .167M43.669 34.592c-.033-.099-.128-.123-.204-.172a2.558 2.558 0 0 1-.575-1.03c-.077-.272-.09-.538.092-.787.099-.135.174-.29.237-.446.171-.427.509-.656.923-.777.466-.137.96.213 1.016.703.034.302.05.607.073.91.006.062.025.136 0 .183-.191.361-.22.823-.523 1.097-.201.183-.533.22-.81.312-.07.023-.152.006-.23.007" fill="#000"></path>
  </g>
</svg>